{
.appVersion = "3180";
.formatVersion = 3;
axes = (
{
name = Width;
tag = wdth;
},
{
name = Weight;
tag = wght;
}
);
classes = (
{
automatic = 1;

glyphs = (
{
color = 6;
glyphname = A;
kernLeft = A;
kernRight = A;
lastChange = "2023-03-03 14:59:49 +0000";
layers = (
{
anchors = (
{
name = bottom;
pos = (76,0);
},
{
name = ogonek;
pos = (133,0);
},
{
name = top;
pos = (76,1350);
}
);
layerId = "A1A0948C-E637-4A65-8CCC-05505AD98C44";
shapes = (
{
closed = 1;
nodes = (
(56,1350,l),
(98,1350,l),
(133,0,l),
(111,0,l),
(100,437,l),
(54,437,l),
(43,0,l),
(21,0,l)
);
},
{
closed = 1;
nodes = (
(100,459,l),
(78,1328,l),
(76,1328,l),
(54,459,l)
);
}
);
width = 161;
},
{
anchors = (
{
name = bottom;
pos = (379,0);
},
{
name = ogonek;
pos = (749,0);
},
{
name = top;
pos = (379,1350);
}
);
layerId = "BA0CA162-2A9B-49EE-921D-3B4346C7D39F";
shapes = (
{
closed = 1;
nodes = (
(103,1350,l),
(651,1350,l),
(749,0,l),
(399,0,l),
(393,314,l),
(365,314,l),
(359,0,l),
(9,0,l)
);
},
{
closed = 1;
nodes = (
(394,568,l),
(382,1100,l),
(376,1100,l),
(364,568,l)
);
}
);
width = 758;
},
{
anchors = (
{
name = bottom;
pos = (1192,0);
},
{
name = ogonek;
pos = (2294,0);
},
{
name = top;
pos = (1192,1350);
}
);
layerId = "C75D3228-2D13-4E9D-9829-45195F4951D0";
shapes = (
{
closed = 1;
nodes = (
(828,1350,l),
(1566,1350,l),
(2294,0,l),
(1704,0,l),
(1574,264,l),
(819,264,l),
(688,0,l),
(98,0,l)
);
},
{
closed = 1;
nodes = (
(1429,606,l),
(1199,1072,l),
(1197,1072,l),
(966,606,l)
);
}
);
width = 2388;
},
{
anchors = (
{
name = bottom;
pos = (1065,0);
},
{
name = ogonek;
pos = (2010,0);
},
{
name = top;
pos = (1065,1350);
}
);
layerId = "71977205-6510-4B11-BB00-17BACA883C8F";
shapes = (
{
closed = 1;
nodes = (
(1047,1357,l),
(1086,1357,l),
(2010,0,l),
(1982,0,l),
(1685,437,l),
(447,437,l),
(149,0,l),
(120,0,l)
);
},
{
closed = 1;
nodes = (
(1669,459,l),
(1067,1342,l),
(1066,1342,l),
(463,459,l)
);
}
);
width = 2130;
}
);
unicode = 65;
},
{
color = 3;
glyphname = AE;
kernLeft = A;
kernRight = E;
lastChange = "2023-03-03 14:59:49 +0000";
layers = (
{
anchors = (
{
name = bottom;
pos = (110,0);
},
{
name = top;
pos = (110,1350);
}
);
layerId = "A1A0948C-E637-4A65-8CCC-05505AD98C44";
shapes = (
{
closed = 1;
nodes = (
(86,1350,l),
(104,1350,l),
(102,1334,l),
(43,0,l),
(21,0,l)
);
},
{
closed = 1;
nodes = (
(41,344,l),
(109,344,l),
(109,322,l),
(43,322,l)
);
},
{
alignment = -1;
pos = (69,0);
ref = E;
}
);
width = 211;
},
{
anchors = (
{
name = bottom;
pos = (467,0);
},
{
name = top;
pos = (467,1350);
}
);
layerId = "BA0CA162-2A9B-49EE-921D-3B4346C7D39F";
shapes = (
{
closed = 1;
nodes = (
(163,1350,l),
(451,1350,l),
(451,1160,l),
(377,0,l),
(9,0,l)
);
},
{
closed = 1;
nodes = (
(293,448,l),
(569,448,l),
(569,204,l),
(239,204,l)
);
},
{
alignment = -1;
pos = (435,0);
ref = E;
}
);
width = 937;
},
{
anchors = (
{
name = bottom;
pos = (1631,0);
},
{
name = top;
pos = (1631,1350);
}
);
layerId = "C75D3228-2D13-4E9D-9829-45195F4951D0";
shapes = (
{
closed = 1;
nodes = (
(1270,1350,l),
(1764,1350,l),
(1764,1218,l),
(688,0,l),
(98,0,l)
);
},
{
closed = 1;
nodes = (
(758,604,l),
(1630,604,l),
(1630,250,l),
(638,250,l)
);
},
{
alignment = -1;
pos = (1440,0);
ref = E;
}
);
width = 3364;
},
{
anchors = (
{
name = bottom;
pos = (1625,0);
},
{
name = top;
pos = (1625,1350);
}
);
layerId = "71977205-6510-4B11-BB00-17BACA883C8F";
shapes = (
{
closed = 1;
nodes = (
(1490,1350,l),
(1513,1350,l),
(1513,1339,l),
(149,0,l),
(120,0,l)
);
},
{
closed = 1;
nodes = (
(598,459,l),
(1508,459,l),
(1508,437,l),
(568,437,l)
);
},
{
alignment = -1;
pos = (1346,0);
ref = E;
}
);
width = 3188;
}
);
metricLeft = A;
metricRight = E;
unicode = 198;
},
{
color = 6;
glyphname = B;
kernLeft = H;
kernRight = B;
lastChange = "2023-03-03 14:59:49 +0000";
layers = (
{
anchors = (
{
name = bottom;
pos = (84,0);
},
{
name = top;
pos = (84,1350);
}
);
layerId = "A1A0948C-E637-4A65-8CCC-05505AD98C44";
shapes = (
{
closed = 1;
nodes = (
(28,1350,l),
(65,1350,ls),
(130,1350,o),
(130,1168,o),
(130,1068,qs),
(130,952,o),
(130,768,o),
(90,762,q),
(130,756,o),
(130,530,o),
(130,396,qs),
(130,236,o),
(130,0,o),
(67,0,qs),
(28,0,l)
);
},
{
closed = 1;
nodes = (
(67,22,ls),
(108,22,o),
(108,236,o),
(108,396,qs),
(108,530,o),
(108,750,o),
(68,750,qs),
(50,750,l),
(50,22,l)
);
},
{
closed = 1;
nodes = (
(68,772,ls),
(108,772,o),
(108,954,o),
(108,1070,qs),
(108,1170,o),
(108,1328,o),
(65,1328,qs),
(50,1328,l),
(50,772,l)
);
}
);
width = 168;
},
{
anchors = (
{
name = bottom;
pos = (371,0);
},
{
name = top;
pos = (371,1350);
}
);
layerId = "BA0CA162-2A9B-49EE-921D-3B4346C7D39F";
shapes = (
{
closed = 1;
nodes = (
(12,1350,l),
(520,1350,ls),
(730,1350,o),
(730,1086,o),
(730,1024,qs),
(730,956,o),
(730,748,o),
(588,746,q),
(730,738,o),
(730,508,o),
(730,408,qs),
(730,266,o),
(730,0,o),
(496,0,qs),
(12,0,l)
);
},
{
closed = 1;
nodes = (
(370,254,ls),
(384,254,o),
(384,324,o),
(384,424,qs),
(384,524,o),
(384,617,o),
(368,617,qs),
(360,617,l),
(360,254,l)
);
},
{
closed = 1;
nodes = (
(368,869,l),
(384,869,o),
(384,932,o),
(384,992,qs),
(384,1052,o),
(384,1100,o),
(368,1100,qs),
(360,1100,l),
(360,869,l)
);
}
);
width = 742;
},
{
anchors = (
{
name = bottom;
pos = (1106,0);
},
{
name = top;
pos = (1106,1350);
}
);
layerId = "C75D3228-2D13-4E9D-9829-45195F4951D0";
shapes = (
{
closed = 1;
nodes = (
(140,1350,l),
(1328,1350,ls),
(1695,1350,o),
(1960,1180,o),
(1960,1014,qs),
(1960,858,o),
(1756,696,o),
(1630,690,q),
(1756,684,o),
(2032,543,o),
(2032,369,qs),
(2032,191,o),
(1777,0,o),
(1414,0,qs),
(140,0,l)
);
},
{
closed = 1;
nodes = (
(1310,362,ls),
(1414,362,o),
(1466,402,o),
(1466,448,qs),
(1466,494,o),
(1414,532,o),
(1310,532,qs),
(706,532,l),
(706,362,l)
);
},
{
closed = 1;
nodes = (
(1250,826,ls),
(1334,826,o),
(1386,870,o),
(1386,910,qs),
(1386,950,o),
(1334,988,o),
(1250,988,qs),
(706,988,l),
(706,826,l)
);
}
);
width = 2192;
},
{
anchors = (
{
name = bottom;
pos = (1009,0);
},
{
name = top;
pos = (1009,1350);
}
);
layerId = "71977205-6510-4B11-BB00-17BACA883C8F";
shapes = (
{
closed = 1;
nodes = (
(150,1350,l),
(1289,1350,ls),
(1494,1350,o),
(1697,1204,o),
(1697,1047,qs),
(1697,889,o),
(1471,722,o),
(1353,716,q),
(1492,710,o),
(1736,557,o),
(1736,373,qs),
(1736,183,o),
(1517,0,o),
(1344,0,qs),
(150,0,l)
);
},
{
closed = 1;
nodes = (
(1335,22,ls),
(1507,22,o),
(1712,193,o),
(1712,373,qs),
(1712,551,o),
(1453,704,o),
(1198,704,qs),
(172,704,l),
(172,22,l)
);
},
{
closed = 1;
nodes = (
(1198,726,ls),
(1437,726,o),
(1673,895,o),
(1673,1047,qs),
(1673,1192,o),
(1486,1328,o),
(1280,1328,qs),
(172,1328,l),
(172,726,l)
);
}
);
width = 1981;
}
);
metricLeft = H;
unicode = 66;
},
{
color = 6;
glyphname = C;
kernLeft = O;
kernRight = O;
lastChange = "2023-03-03 14:59:49 +0000";
layers = (
{
anchors = (
{
name = bottom;
pos = (88,0);
},
{
name = top;
pos = (88,1350);
}
);
layerId = "A1A0948C-E637-4A65-8CCC-05505AD98C44";
shapes = (
{
closed = 1;
nodes = (
(30,-8,o),
(30,206,o),
(30,678,qs),
(30,1150,o),
(28,1356,o),
(88,1356,qs),
(146,1356,o),
(146,1150,o),
(146,794,q),
(124,794,l),
(124,1144,o),
(124,1334,o),
(88,1334,qs),
(50,1334,o),
(52,1144,o),
(52,678,qs),
(52,212,o),
(52,14,o),
(88,14,qs),
(124,14,o),
(124,214,o),
(124,556,q),
(146,556,l),
(146,206,o),
(146,-8,o),
(88,-8,qs)
);
}
);
width = 184;
},
{
anchors = (
{
name = bottom;
pos = (370,0);
},
{
name = top;
pos = (370,1350);
}
);
layerId = "BA0CA162-2A9B-49EE-921D-3B4346C7D39F";
shapes = (
{
closed = 1;
nodes = (
(12,-8,o),
(12,380,o),
(12,680,qs),
(12,980,o),
(12,1362,o),
(366,1362,qs),
(728,1362,o),
(728,980,o),
(728,774,q),
(382,774,l),
(382,1064,o),
(382,1108,o),
(370,1108,qs),
(358,1108,o),
(358,1064,o),
(358,680,qs),
(358,290,o),
(358,246,o),
(370,246,qs),
(382,246,o),
(382,290,o),
(382,572,q),
(728,572,l),
(728,380,o),
(728,-8,o),
(368,-8,qs)
);
}
);
width = 740;
},
{
anchors = (
{
name = bottom;
pos = (1068,0);
},
{
name = top;
pos = (1068,1350);
}
);
layerId = "C75D3228-2D13-4E9D-9829-45195F4951D0";
shapes = (
{
closed = 1;
nodes = (
(614,-8,o),
(50,344,o),
(50,678,qs),
(50,1012,o),
(614,1362,o),
(1082,1362,qs),
(1550,1362,o),
(2056,1038,o),
(2056,814,q),
(1478,814,l),
(1478,874,o),
(1256,1000,o),
(1072,1000,qs),
(884,1000,o),
(628,838,o),
(628,678,qs),
(628,518,o),
(884,354,o),
(1072,354,qs),
(1254,354,o),
(1478,486,o),
(1478,546,q),
(2056,546,l),
(2056,322,o),
(1550,-8,o),
(1082,-8,qs)
);
}
);
width = 2167;
},
{
anchors = (
{
name = bottom;
pos = (941,0);
},
{
name = top;
pos = (941,1350);
}
);
layerId = "71977205-6510-4B11-BB00-17BACA883C8F";
shapes = (
{
closed = 1;
nodes = (
(569,-10,o),
(113,367,o),
(113,676,qs),
(113,982,o),
(569,1363,o),
(958,1363,qs),
(1335,1363,o),
(1757,1035,o),
(1757,877,q),
(1734,877,l),
(1734,1022,o),
(1332,1341,o),
(958,1341,qs),
(577,1341,o),
(137,969,o),
(137,676,qs),
(137,382,o),
(578,12,o),
(958,12,qs),
(1332,12,o),
(1734,336,o),
(1734,482,q),
(1757,482,l),
(1757,324,o),
(1336,-10,o),
(958,-10,qs)
);
}
);
width = 2016;
}
);
unicode = 67;
},
{
color = 6;
glyphname = D;
kernLeft = H;
kernRight = O;
lastChange = "2023-03-03 14:59:49 +0000";
layers = (
{
anchors = (
{
name = bottom;
pos = (75,0);
},
{
name = center;
pos = (85,675);
},
{
name = top;
pos = (75,1350);
}
);
layerId = "A1A0948C-E637-4A65-8CCC-05505AD98C44";
shapes = (
{
closed = 1;
nodes = (
(28,1350,l),
(70,1350,ls),
(132,1350,o),
(132,1106,o),
(132,674,qs),
(132,242,o),
(132,0,o),
(70,0,qs),
(28,0,l)
);
},
{
closed = 1;
nodes = (
(68,22,ls),
(110,22,o),
(110,248,o),
(110,674,qs),
(110,1100,o),
(110,1328,o),
(68,1328,qs),
(50,1328,l),
(50,22,l)
);
}
);
width = 162;
},
{
anchors = (
{
name = bottom;
pos = (370,0);
},
{
name = center;
pos = (370,675);
},
{
name = top;
pos = (370,1350);
}
);
layerId = "BA0CA162-2A9B-49EE-921D-3B4346C7D39F";
shapes = (
{
closed = 1;
nodes = (
(12,1350,l),
(486,1350,ls),
(728,1350,o),
(728,1056,o),
(728,676,qs),
(728,296,o),
(728,0,o),
(486,0,qs),
(12,0,l)
);
},
{
closed = 1;
nodes = (
(366,254,ls),
(382,254,o),
(382,306,o),
(382,676,qs),
(382,1044,o),
(382,1096,o),
(366,1096,qs),
(358,1096,l),
(358,254,l)
);
}
);
width = 740;
},
{
anchors = (
{
name = bottom;
pos = (1102,0);
},
{
name = center;
pos = (1102,675);
},
{
name = top;
pos = (1102,1350);
}
);
layerId = "C75D3228-2D13-4E9D-9829-45195F4951D0";
shapes = (
{
closed = 1;
nodes = (
(140,1350,l),
(1268,1350,ls),
(1632,1350,o),
(2082,1030,o),
(2082,676,qs),
(2082,322,o),
(1632,0,o),
(1268,0,qs),
(140,0,l)
);
},
{
closed = 1;
nodes = (
(1138,362,ls),
(1330,362,o),
(1516,504,o),
(1516,676,qs),
(1516,846,o),
(1330,988,o),
(1138,988,qs),
(706,988,l),
(706,362,l)
);
}
);
width = 2169;
},
{
anchors = (
{
name = bottom;
pos = (916,0);
},
{
name = center;
pos = (949,675);
},
{
name = top;
pos = (866,1350);
}
);
layerId = "71977205-6510-4B11-BB00-17BACA883C8F";
shapes = (
{
closed = 1;
nodes = (
(150,1350,l),
(905,1350,ls),
(1285,1350,o),
(1722,1034,o),
(1722,676,qs),
(1722,318,o),
(1284,0,o),
(905,0,qs),
(150,0,l)
);
},
{
closed = 1;
nodes = (
(899,22,ls),
(1274,22,o),
(1698,329,o),
(1698,676,qs),
(1698,1024,o),
(1274,1328,o),
(899,1328,qs),
(172,1328,l),
(172,22,l)
);
}
);
width = 1916;
}
);
metricLeft = H;
metricRight = O;
unicode = 68;
},
{
color = 3;
glyphname = Eth;
kernLeft = H;
kernRight = O;
lastChange = "2023-03-03 14:59:49 +0000";
layers = (
{
layerId = "A1A0948C-E637-4A65-8CCC-05505AD98C44";
shapes = (
{
closed = 1;
nodes = (
(28,688,l),
(126,688,l),
(126,666,l),
(28,666,l)
);
},
{
pos = (36,0);
ref = D;
}
);
width = 198;
},
{
layerId = "BA0CA162-2A9B-49EE-921D-3B4346C7D39F";
shapes = (
{
closed = 1;
nodes = (
(12,788,l),
(422,788,l),
(422,564,l),
(12,564,l)
);
},
{
alignment = -1;
pos = (52,0);
ref = D;
}
);
width = 792;
},
{
layerId = "C75D3228-2D13-4E9D-9829-45195F4951D0";
shapes = (
{
closed = 1;
nodes = (
(-52,858,l),
(1088,858,l),
(1088,494,l),
(-52,494,l)
);
},
{
alignment = -1;
pos = (44,0);
ref = D;
}
);
width = 2213;
},
{
layerId = "71977205-6510-4B11-BB00-17BACA883C8F";
shapes = (
{
closed = 1;
nodes = (
(-78,688,l),
(602,688,l),
(602,666,l),
(-78,666,l)
);
},
{
pos = (-6,0);
ref = D;
}
);
width = 1910;
}
);
metricRight = D;
unicode = 208;
},
{
color = 6;
glyphname = E;
kernLeft = H;
kernRight = E;
lastChange = "2023-03-03 14:59:49 +0000";
layers = (
{
anchors = (
{
name = bottom;
pos = (73,0);
},
{
name = ogonek;
pos = (89,0);
},
{
name = top;
pos = (73,1350);
},
{
name = topleft;
pos = (24,1350);
}
);
layerId = "A1A0948C-E637-4A65-8CCC-05505AD98C44";
shapes = (
{
closed = 1;
nodes = (
(32,1350,l),
(108,1350,l),
(108,1328,l),
(54,1328,l),
(54,710,l),
(108,710,l),
(108,688,l),
(54,688,l),
(54,22,l),
(108,22,l),
(108,0,l),
(32,0,l)
);
}
);
width = 142;
},
{
anchors = (
{
name = bottom;
pos = (251,0);
},
{
name = ogonek;
pos = (364,0);
},
{
name = top;
pos = (251,1350);
},
{
name = topleft;
pos = (20,1350);
}
);
layerId = "BA0CA162-2A9B-49EE-921D-3B4346C7D39F";
shapes = (
{
closed = 1;
nodes = (
(12,1350,l),
(490,1350,l),
(490,1096,l),
(360,1096,l),
(360,805,l),
(490,805,l),
(490,555,l),
(360,555,l),
(360,254,l),
(490,254,l),
(490,0,l),
(12,0,l)
);
}
);
width = 502;
},
{
anchors = (
{
name = bottom;
pos = (932,0);
},
{
name = ogonek;
pos = (1476,0);
},
{
name = top;
pos = (932,1350);
},
{
name = topleft;
pos = (20,1350);
}
);
layerId = "C75D3228-2D13-4E9D-9829-45195F4951D0";
shapes = (
{
closed = 1;
nodes = (
(120,1350,l),
(1776,1350,l),
(1776,988,l),
(686,988,l),
(686,844,l),
(1676,844,l),
(1676,508,l),
(686,508,l),
(686,362,l),
(1776,362,l),
(1776,0,l),
(120,0,l)
);
}
);
width = 1924;
},
{
anchors = (
{
name = bottom;
pos = (921,0);
},
{
name = ogonek;
pos = (950,0);
},
{
name = top;
pos = (921,1350);
},
{
name = topleft;
pos = (19,1350);
}
);
layerId = "71977205-6510-4B11-BB00-17BACA883C8F";
shapes = (
{
closed = 1;
nodes = (
(156,1350,l),
(1617,1350,l),
(1617,1328,l),
(178,1328,l),
(178,710,l),
(1548,710,l),
(1548,688,l),
(178,688,l),
(178,22,l),
(1617,22,l),
(1617,0,l),
(156,0,l)
);
}
);
width = 1842;
}
);
unicode = 69;
},
{
color = 6;
glyphname = Schwa;
kernLeft = O;
kernRight = O;
lastChange = "2023-03-03 14:59:49 +0000";
layers = (
{
anchors = (
{
name = bottom;
pos = (90,-11);
},
{
name = top;
pos = (91,1350);
}
);
layerId = "A1A0948C-E637-4A65-8CCC-05505AD98C44";
shapes = (
{
closed = 1;
nodes = (
(28,-11,o),
(28,285,o),
(28,678,q),
(28,682,o),
(28,688,q),
(138,688,l),
(138,665,l),
(42,665,l),
(50,676,l),
(50,299,o),
(50,11,o),
(90,11,qs),
(130,11,o),
(130,299,o),
(130,676,qs),
(130,988,o),
(130,1334,o),
(91,1334,q),
(91,1356,l),
(152,1356,o),
(152,992,o),
(152,678,qs),
(152,295,o),
(152,-11,o),
(90,-11,qs)
);
},
{
closed = 1;
nodes = (
(28,890,l),
(28,1230,o),
(30,1356,o),
(91,1356,c),
(94,1346,l),
(91,1334,l),
(51,1334,o),
(50,1203,o),
(50,890,c)
);
}
);
width = 182;
},
{
anchors = (
{
name = bottom;
pos = (374,-9);
},
{
name = top;
pos = (374,1350);
}
);
layerId = "BA0CA162-2A9B-49EE-921D-3B4346C7D39F";
shapes = (
{
closed = 1;
nodes = (
(12,-9,o),
(12,347,o),
(12,667,qs),
(12,731,o),
(12,787,q),
(416,787,l),
(416,563,l),
(340,563,l),
(360,591,l),
(360,337,o),
(360,247,o),
(374,247,qs),
(388,247,o),
(388,337,o),
(388,667,qs),
(388,1003,o),
(388,1106,o),
(376,1106,q),
(376,1360,l),
(736,1360,o),
(736,997,o),
(736,677,qs),
(736,347,o),
(736,-9,o),
(374,-9,qs)
);
},
{
closed = 1;
nodes = (
(12,905,l),
(12,1258,o),
(55,1360,o),
(376,1360,c),
(394,1244,l),
(376,1106,l),
(361,1106,o),
(360,1050,o),
(360,905,c)
);
}
);
width = 748;
},
{
anchors = (
{
name = bottom;
pos = (878,-8);
},
{
name = top;
pos = (878,1350);
}
);
layerId = "71977205-6510-4B11-BB00-17BACA883C8F";
shapes = (
{
closed = 1;
nodes = (
(556,-8,o),
(142,311,o),
(142,656,qs),
(142,667,o),
(142,680,q),
(1614,680,l),
(1614,657,l),
(156,657,l),
(167,668,l),
(167,321,o),
(565,14,o),
(878,14,qs),
(1183,14,o),
(1602,327,o),
(1602,668,qs),
(1602,1018,o),
(1208,1339,o),
(878,1339,q),
(878,1361,l),
(1212,1361,o),
(1626,1035,o),
(1626,667,qs),
(1626,312,o),
(1189,-8,o),
(878,-8,qs)
);
},
{
closed = 1;
nodes = (
(154,975,l),
(154,1193,o),
(482,1361,o),
(878,1361,c),
(881,1351,l),
(878,1339,l),
(500,1339,o),
(178,1181,o),
(178,975,c)
);
}
);
width = 1820;
},
{
anchors = (
{
name = bottom;
pos = (1056,-11);
},
{
name = top;
pos = (1034,1350);
}
);
layerId = "C75D3228-2D13-4E9D-9829-45195F4951D0";
shapes = (
{
closed = 1;
nodes = (
(636,-14,o),
(80,331,o),
(80,684,qs),
(80,778,o),
(98,836,q),
(1558,836,l),
(1558,512,l),
(620,512,l),
(626,558,l),
(626,392,o),
(880,306,o),
(1054,306,qs),
(1268,306,o),
(1510,424,o),
(1510,684,qs),
(1510,906,o),
(1278,1038,o),
(1034,1038,q),
(1036,1366,l),
(1450,1366,o),
(2034,1074,o),
(2034,684,qs),
(2034,314,o),
(1454,-14,o),
(1056,-14,qs)
);
},
{
closed = 1;
nodes = (
(175,1253,l),
(283,1310,o),
(766,1366,o),
(1036,1366,c),
(1072,1244,l),
(1034,1038,l),
(870,1038,o),
(687,1006,o),
(632,980,c)
);
}
);
width = 2121;
}
);
metricLeft = O;
metricRight = O;
unicode = 399;
},
{
color = 6;
glyphname = F;
kernLeft = H;
kernRight = F;
lastChange = "2023-03-03 14:59:49 +0000";
layers = (
{
anchors = (
{
name = bottom;
pos = (73,0);
},
{
name = top;
pos = (73,1350);
}
);
layerId = "A1A0948C-E637-4A65-8CCC-05505AD98C44";
shapes = (
{
closed = 1;
nodes = (
(28,1350,l),
(112,1350,l),
(112,1328,l),
(50,1328,l),
(50,676,l),
(112,676,l),
(112,654,l),
(50,654,l),
(50,0,l),
(28,0,l)
);
}
);
width = 146;
},
{
anchors = (
{
name = bottom;
pos = (245,0);
},
{
name = top;
pos = (245,1350);
}
);
layerId = "BA0CA162-2A9B-49EE-921D-3B4346C7D39F";
shapes = (
{
closed = 1;
nodes = (
(12,1350,l),
(486,1350,l),
(486,1096,l),
(360,1096,l),
(360,730,l),
(488,730,l),
(488,480,l),
(360,480,l),
(360,0,l),
(12,0,l)
);
}
);
width = 500;
},
{
anchors = (
{
name = bottom;
pos = (867,0);
},
{
name = top;
pos = (867,1350);
}
);
layerId = "C75D3228-2D13-4E9D-9829-45195F4951D0";
shapes = (
{
closed = 1;
nodes = (
(96,1350,l),
(1632,1350,l),
(1632,988,l),
(662,988,l),
(662,748,l),
(1536,748,l),
(1536,412,l),
(662,412,l),
(662,0,l),
(96,0,l)
);
}
);
width = 1754;
},
{
anchors = (
{
name = bottom;
pos = (889,0);
},
{
name = top;
pos = (889,1350);
}
);
layerId = "71977205-6510-4B11-BB00-17BACA883C8F";
shapes = (
{
closed = 1;
nodes = (
(189,1350,l),
(1584,1350,l),
(1584,1328,l),
(211,1328,l),
(211,667,l),
(1472,667,l),
(1472,645,l),
(211,645,l),
(211,0,l),
(189,0,l)
);
}
);
width = 1722;
}
);
unicode = 70;
},
{
color = 6;
glyphname = G;
kernLeft = O;
kernRight = H;
lastChange = "2023-03-03 14:59:49 +0000";
layers = (
{
anchors = (
{
name = bottom;
pos = (86,0);
},
{
name = top;
pos = (86,1350);
}
);
layerId = "A1A0948C-E637-4A65-8CCC-05505AD98C44";
shapes = (
{
closed = 1;
nodes = (
(28,-8,o),
(28,212,o),
(28,684,qs),
(28,1156,o),
(28,1356,o),
(86,1356,qs),
(143,1356,o),
(144,1130,o),
(144,836,q),
(122,836,l),
(122,1120,o),
(122,1334,o),
(86,1334,qs),
(50,1334,o),
(50,1150,o),
(50,684,qs),
(50,218,o),
(50,14,o),
(80,14,qs),
(99,14,o),
(122,94,o),
(122,224,q),
(122,558,l),
(84,558,l),
(84,582,l),
(144,582,l),
(144,0,l),
(125,0,l),
(125,42,l),
(113,-8,o),
(80,-8,qs)
);
}
);
width = 184;
},
{
anchors = (
{
name = bottom;
pos = (372,0);
},
{
name = top;
pos = (372,1350);
}
);
layerId = "BA0CA162-2A9B-49EE-921D-3B4346C7D39F";
shapes = (
{
closed = 1;
nodes = (
(12,-8,o),
(12,380,o),
(12,680,qs),
(12,990,o),
(12,1362,o),
(372,1362,qs),
(732,1362,o),
(732,990,o),
(732,846,q),
(384,846,l),
(384,1061,o),
(384,1108,o),
(372,1108,qs),
(360,1108,o),
(360,1062,o),
(360,650,qs),
(360,348,o),
(360,246,o),
(378,246,qs),
(391,246,o),
(398,306,o),
(398,466,q),
(398,468,l),
(377,468,l),
(377,702,l),
(732,702,l),
(732,0,l),
(570,0,l),
(519,89,l),
(469,-8,o),
(314,-8,qs)
);
}
);
width = 744;
},
{
anchors = (
{
name = bottom;
pos = (1086,1);
},
{
name = top;
pos = (1087,1350);
}
);
layerId = "C75D3228-2D13-4E9D-9829-45195F4951D0";
shapes = (
{
closed = 1;
nodes = (
(622,-8,o),
(80,343,o),
(80,680,qs),
(80,1017,o),
(643,1362,o),
(1098,1362,qs),
(1493,1362,o),
(2052,1099,o),
(2072,872,q),
(1506,872,l),
(1482,927,o),
(1289,1002,o),
(1100,1002,qs),
(900,1002,o),
(652,838,o),
(652,680,qs),
(652,521,o),
(901,352,o),
(1100,352,qs),
(1289,352,o),
(1448,421,o),
(1473,472,q),
(1475,476,l),
(1140,476,l),
(1140,774,l),
(2072,774,l),
(2072,0,l),
(1725,0,l),
(1672,184,l),
(1518,-8,o),
(1076,-8,qs)
);
}
);
width = 2267;
},
{
anchors = (
{
name = bottom;
pos = (1016,0);
},
{
name = top;
pos = (1016,1350);
}
);
layerId = "71977205-6510-4B11-BB00-17BACA883C8F";
shapes = (
{
closed = 1;
nodes = (
(573,-8,o),
(142,378,o),
(142,672,qs),
(142,967,o),
(573,1363,o),
(978,1363,qs),
(1373,1363,o),
(1770,1024,o),
(1770,838,q),
(1746,838,l),
(1746,1015,o),
(1366,1341,o),
(978,1341,qs),
(577,1341,o),
(166,956,o),
(166,672,qs),
(166,390,o),
(577,14,o),
(979,14,qs),
(1369,14,o),
(1737,332,o),
(1737,579,q),
(1737,583,l),
(1024,583,l),
(1024,605,l),
(1770,605,l),
(1770,0,l),
(1748,0,l),
(1748,466,l),
(1654,-3,o),
(979,-8,qs)
);
}
);
width = 2042;
}
);
metricLeft = O;
metricRight = H;
note = G;
unicode = 71;
},
{
color = 6;
glyphname = H;
kernLeft = H;
kernRight = H;
lastChange = "2023-03-03 14:59:49 +0000";
layers = (
{
anchors = (
{
name = bottom;
pos = (86,0);
},
{
name = center;
pos = (86,675);
},
{
name = top;
pos = (86,1350);
},
{
name = topleft;
pos = (12,1350);
}
);
layerId = "A1A0948C-E637-4A65-8CCC-05505AD98C44";
shapes = (
{
closed = 1;
nodes = (
(28,1350,l),
(50,1350,l),
(50,750,l),
(112,750,l),
(112,1350,l),
(134,1350,l),
(134,0,l),
(112,0,l),
(112,728,l),
(50,728,l),
(50,0,l),
(28,0,l)
);
}
);
width = 174;
},
{
anchors = (
{
name = bottom;
pos = (371,0);
},
{
name = center;
pos = (371,675);
},
{
name = top;
pos = (371,1350);
},
{
name = topleft;
pos = (20,1350);
}
);
layerId = "BA0CA162-2A9B-49EE-921D-3B4346C7D39F";
shapes = (
{
closed = 1;
nodes = (
(12,1350,l),
(360,1350,l),
(360,797,l),
(382,797,l),
(382,1350,l),
(730,1350,l),
(730,0,l),
(382,0,l),
(382,543,l),
(360,543,l),
(360,0,l),
(12,0,l)
);
}
);
width = 742;
},
{
anchors = (
{
name = bottom;
pos = (1110,0);
},
{
name = center;
pos = (1110,675);
},
{
name = top;
pos = (1110,1350);
},
{
name = topleft;
pos = (20,1350);
}
);
layerId = "C75D3228-2D13-4E9D-9829-45195F4951D0";
shapes = (
{
closed = 1;
nodes = (
(140,1350,l),
(706,1350,l),
(706,830,l),
(1494,830,l),
(1494,1350,l),
(2060,1350,l),
(2060,0,l),
(1494,0,l),
(1494,468,l),
(706,468,l),
(706,0,l),
(140,0,l)
);
}
);
width = 2255;
},
{
anchors = (
{
name = bottom;
pos = (953,0);
},
{
name = center;
pos = (953,675);
},
{
name = top;
pos = (953,1350);
},
{
name = topleft;
pos = (30,1350);
}
);
layerId = "71977205-6510-4B11-BB00-17BACA883C8F";
shapes = (
{
closed = 1;
nodes = (
(150,1350,l),
(172,1350,l),
(172,706,l),
(1612,706,l),
(1612,1350,l),
(1634,1350,l),
(1634,0,l),
(1612,0,l),
(1612,684,l),
(172,684,l),
(172,0,l),
(150,0,l)
);
}
);
width = 1906;
}
);
unicode = 72;
},
{
color = 3;
glyphname = Hbar;
kernLeft = H;
kernRight = H;
lastChange = "2023-03-03 14:59:49 +0000";
layers = (
{
layerId = "A1A0948C-E637-4A65-8CCC-05505AD98C44";
shapes = (
{
closed = 1;
nodes = (
(4,1070,l),
(158,1070,l),
(158,1048,l),
(4,1048,l)
);
},
{
ref = H;
}
);
width = 188;
},
{
layerId = "BA0CA162-2A9B-49EE-921D-3B4346C7D39F";
shapes = (
{
closed = 1;
nodes = (
(-7,1170,l),
(813,1170,l),
(813,1046,l),
(-7,1046,l)
);
},
{
pos = (32,0);
ref = H;
}
);
width = 820;
},
{
layerId = "C75D3228-2D13-4E9D-9829-45195F4951D0";
shapes = (
{
closed = 1;
nodes = (
(70,1200,l),
(2130,1200,l),
(2130,1006,l),
(70,1006,l)
);
},
{
ref = H;
}
);
width = 2220;
},
{
layerId = "71977205-6510-4B11-BB00-17BACA883C8F";
shapes = (
{
closed = 1;
nodes = (
(45,1070,l),
(1738,1070,l),
(1738,1048,l),
(45,1048,l)
);
},
{
ref = H;
}
);
width = 1759;
}
);
unicode = 294;
},
{
color = 6;
glyphname = I;
kernLeft = H;
kernRight = H;
lastChange = "2023-03-03 14:59:49 +0000";
layers = (
{
anchors = (
{
name = bottom;
pos = (46,0);
},
{
name = ogonek;
pos = (56,0);
},
{
name = top;
pos = (45,1350);
},
{
name = topleft;
pos = (10,1350);
}
);
layerId = "A1A0948C-E637-4A65-8CCC-05505AD98C44";
shapes = (
{
closed = 1;
nodes = (
(34,1350,l),
(56,1350,l),
(56,0,l),
(34,0,l)
);
}
);
width = 100;
},
{
anchors = (
{
name = bottom;
pos = (187,0);
},
{
name = ogonek;
pos = (362,0);
},
{
name = top;
pos = (187,1350);
},
{
name = topleft;
pos = (20,1350);
}
);
layerId = "BA0CA162-2A9B-49EE-921D-3B4346C7D39F";
shapes = (
{
closed = 1;
nodes = (
(12,1350,l),
(362,1350,l),
(362,0,l),
(12,0,l)
);
}
);
width = 374;
},
{
anchors = (
{
name = bottom;
pos = (503,0);
},
{
name = ogonek;
pos = (784,0);
},
{
name = top;
pos = (503,1350);
},
{
name = topleft;
pos = (20,1350);
}
);
layerId = "C75D3228-2D13-4E9D-9829-45195F4951D0";
shapes = (
{
closed = 1;
nodes = (
(224,1350,l),
(784,1350,l),
(784,0,l),
(224,0,l)
);
}
);
width = 1026;
},
{
anchors = (
{
name = bottom;
pos = (293,0);
},
{
name = ogonek;
pos = (304,0);
},
{
name = top;
pos = (293,1350);
},
{
name = topleft;
pos = (10,1350);
}
);
layerId = "71977205-6510-4B11-BB00-17BACA883C8F";
shapes = (
{
closed = 1;
nodes = (
(282,1350,l),
(304,1350,l),
(304,0,l),
(282,0,l)
);
}
);
width = 698;
}
);
unicode = 73;
},
{
color = 6;
glyphname = J;
kernLeft = J;
kernRight = J;
lastChange = "2023-03-03 14:59:49 +0000";
layers = (
{
anchors = (
{
name = bottom;
pos = (93,0);
},
{
name = top;
pos = (136,1350);
}
);
layerId = "A1A0948C-E637-4A65-8CCC-05505AD98C44";
shapes = (
{
closed = 1;
nodes = (
(56,-8,o),
(28,72,o),
(28,164,qs),
(28,614,l),
(50,614,l),
(50,164,ls),
(50,82,o),
(68,14,o),
(88,14,qs),
(108,14,o),
(126,82,o),
(126,164,qs),
(126,1350,l),
(148,1350,l),
(148,164,ls),
(148,72,o),
(120,-8,o),
(88,-8,qs)
);
}
);
width = 186;
},
{
anchors = (
{
name = bottom;
pos = (368,0);
},
{
name = top;
pos = (560,1350);
}
);
layerId = "BA0CA162-2A9B-49EE-921D-3B4346C7D39F";
shapes = (
{
closed = 1;
nodes = (
(194,-8,o),
(12,104,o),
(12,240,qs),
(12,572,l),
(356,572,l),
(356,324,ls),
(356,282,o),
(356,238,o),
(368,238,qs),
(380,238,o),
(380,282,o),
(380,324,qs),
(380,1350,l),
(724,1350,l),
(724,240,ls),
(724,100,o),
(552,-8,o),
(370,-8,qs)
);
}
);
width = 736;
},
{
anchors = (
{
name = bottom;
pos = (1087,0);
},
{
name = top;
pos = (1728,1350);
}
);
layerId = "C75D3228-2D13-4E9D-9829-45195F4951D0";
shapes = (
{
closed = 1;
nodes = (
(564,-16,o),
(86,296,o),
(86,596,qs),
(86,636,l),
(654,636,l),
(654,618,ls),
(654,488,o),
(812,346,o),
(1036,346,qs),
(1260,346,o),
(1428,469,o),
(1428,592,qs),
(1428,1350,l),
(1994,1350,l),
(1994,544,ls),
(1994,290,o),
(1512,-16,o),
(1036,-16,qs)
);
}
);
width = 2173;
},
{
anchors = (
{
name = bottom;
pos = (908,0);
},
{
name = top;
pos = (1486,1350);
}
);
layerId = "71977205-6510-4B11-BB00-17BACA883C8F";
shapes = (
{
closed = 1;
nodes = (
(463,-17,o),
(129,268,o),
(129,583,qs),
(129,609,l),
(151,609,l),
(151,590,ls),
(151,282,o),
(473,5,o),
(813,5,qs),
(1152,5,o),
(1474,301,o),
(1474,631,qs),
(1474,1350,l),
(1496,1350,l),
(1496,629,ls),
(1496,291,o),
(1160,-17,o),
(813,-17,qs)
);
}
);
width = 1817;
}
);
unicode = 74;
},
{
color = 3;
glyphname = J.ss01;
kernLeft = U;
kernRight = U;
lastChange = "2023-03-03 14:59:49 +0000";
layers = (
{
layerId = "A1A0948C-E637-4A65-8CCC-05505AD98C44";
shapes = (
{
closed = 1;
nodes = (
(136,1350,l),
(136,1328,l),
(30,1328,l),
(30,1350,l)
);
},
{
ref = J;
}
);
width = 186;
},
{
layerId = "BA0CA162-2A9B-49EE-921D-3B4346C7D39F";
shapes = (
{
closed = 1;
nodes = (
(390,1350,l),
(390,1096,l),
(32,1096,l),
(32,1350,l)
);
},
{
ref = J;
}
);
width = 736;
},
{
layerId = "71977205-6510-4B11-BB00-17BACA883C8F";
shapes = (
{
closed = 1;
nodes = (
(1484,1350,l),
(1484,1328,l),
(135,1328,l),
(135,1350,l)
);
},
{
ref = J;
}
);
width = 1817;
},
{
layerId = "C75D3228-2D13-4E9D-9829-45195F4951D0";
shapes = (
{
closed = 1;
nodes = (
(1438,1350,l),
(1438,988,l),
(91,988,l),
(91,1350,l)
);
},
{
ref = J;
}
);
width = 2173;
}
);
},
{
color = 6;
glyphname = K;
kernLeft = H;
kernRight = K;
lastChange = "2023-03-03 14:59:49 +0000";
layers = (
{
anchors = (
{
name = bottom;
pos = (99,0);
},
{
name = top;
pos = (99,1350);
}
);
layerId = "A1A0948C-E637-4A65-8CCC-05505AD98C44";
shapes = (
{
closed = 1;
nodes = (
(28,1350,l),
(50,1350,l),
(50,678,l),
(140,1350,l),
(162,1350,l),
(72,674,l),
(162,0,l),
(140,0,l),
(50,670,l),
(50,0,l),
(28,0,l)
);
}
);
width = 188;
},
{
anchors = (
{
name = bottom;
pos = (384,0);
},
{
name = top;
pos = (384,1350);
}
);
layerId = "BA0CA162-2A9B-49EE-921D-3B4346C7D39F";
shapes = (
{
closed = 1;
nodes = (
(12,1350,l),
(356,1350,l),
(356,792,l),
(408,1350,l),
(756,1350,l),
(662,674,l),
(756,0,l),
(408,0,l),
(356,556,l),
(356,0,l),
(12,0,l)
);
}
);
width = 764;
},
{
anchors = (
{
name = bottom;
pos = (998,0);
},
{
name = top;
pos = (998,1350);
}
);
layerId = "C75D3228-2D13-4E9D-9829-45195F4951D0";
shapes = (
{
closed = 1;
nodes = (
(140,1350,l),
(704,1350,l),
(704,799,l),
(1356,1350,l),
(2024,1350,l),
(1219,674,l),
(2024,0,l),
(1356,0,l),
(704,550,l),
(704,0,l),
(140,0,l)
);
}
);
width = 2048;
},
{
anchors = (
{
name = bottom;
pos = (788,0);
},
{
name = top;
pos = (788,1350);
}
);
layerId = "71977205-6510-4B11-BB00-17BACA883C8F";
shapes = (
{
closed = 1;
nodes = (
(150,1350,l),
(172,1350,l),
(172,684,l),
(1428,1350,l),
(1476,1350,l),
(201,674,l),
(1485,0,l),
(1437,0,l),
(172,664,l),
(172,0,l),
(150,0,l)
);
}
);
width = 1631;
}
);
metricLeft = H;
unicode = 75;
},
{
color = 6;
glyphname = L;
kernLeft = H;
kernRight = L;
lastChange = "2023-03-03 14:59:49 +0000";
layers = (
{
anchors = (
{
name = bottom;
pos = (82,0);
},
{
name = center;
pos = (82,675);
},
{
name = top;
pos = (82,1350);
},
{
name = topright;
pos = (144,1350);
}
);
layerId = "A1A0948C-E637-4A65-8CCC-05505AD98C44";
shapes = (
{
closed = 1;
nodes = (
(28,1350,l),
(50,1350,l),
(50,22,l),
(126,22,l),
(126,0,l),
(28,0,l)
);
}
);
width = 140;
},
{
anchors = (
{
name = bottom;
pos = (248,0);
},
{
name = center;
pos = (248,675);
},
{
name = top;
pos = (248,1350);
},
{
name = topright;
pos = (476,1350);
}
);
layerId = "BA0CA162-2A9B-49EE-921D-3B4346C7D39F";
shapes = (
{
closed = 1;
nodes = (
(12,1350,l),
(360,1350,l),
(360,250,l),
(494,250,l),
(494,0,l),
(12,0,l)
);
}
);
width = 506;
},
{
anchors = (
{
name = bottom;
pos = (861,0);
},
{
name = center;
pos = (861,675);
},
{
name = top;
pos = (861,1350);
},
{
name = topright;
pos = (1684,1350);
}
);
layerId = "C75D3228-2D13-4E9D-9829-45195F4951D0";
shapes = (
{
closed = 1;
nodes = (
(140,1350,l),
(706,1350,l),
(706,362,l),
(1594,362,l),
(1594,0,l),
(140,0,l)
);
}
);
width = 1704;
},
{
anchors = (
{
name = bottom;
pos = (787,0);
},
{
name = center;
pos = (787,675);
},
{
name = top;
pos = (787,1350);
},
{
name = topright;
pos = (1577,1350);
}
);
layerId = "71977205-6510-4B11-BB00-17BACA883C8F";
shapes = (
{
closed = 1;
nodes = (
(150,1350,l),
(172,1350,l),
(172,22,l),
(1396,22,l),
(1396,0,l),
(150,0,l)
);
}
);
width = 1597;
}
);
metricLeft = H;
unicode = 76;
},
{
color = 3;
glyphname = Lcaron;
kernLeft = H;
kernRight = L;
lastChange = "2023-03-03 14:59:49 +0000";
layers = (
{
layerId = "A1A0948C-E637-4A65-8CCC-05505AD98C44";
shapes = (
{
closed = 1;
nodes = (
(150,1348,l),
(174,1348,l),
(144,1148,l),
(124,1148,l)
);
},
{
ref = L;
}
);
width = 212;
},
{
layerId = "BA0CA162-2A9B-49EE-921D-3B4346C7D39F";
shapes = (
{
closed = 1;
nodes = (
(498,1348,l),
(722,1348,l),
(642,1008,l),
(422,1008,l)
);
},
{
ref = L;
}
);
width = 734;
},
{
layerId = "C75D3228-2D13-4E9D-9829-45195F4951D0";
shapes = (
{
closed = 1;
nodes = (
(1498,1348,l),
(1854,1348,l),
(1684,890,l),
(1368,890,l)
);
},
{
ref = L;
}
);
width = 1664;
},
{
layerId = "71977205-6510-4B11-BB00-17BACA883C8F";
shapes = (
{
closed = 1;
nodes = (
(1463,1348,l),
(1490,1348,l),
(1398,1123,l),
(1372,1123,l)
);
},
{
ref = L;
}
);
width = 1370;
}
);
unicode = 317;
},
{
color = 3;
glyphname = Lslash;
kernLeft = H;
kernRight = L;
lastChange = "2023-03-03 14:59:49 +0000";
layers = (
{
layerId = "A1A0948C-E637-4A65-8CCC-05505AD98C44";
shapes = (
{
closed = 1;
nodes = (
(7,475,l),
(159,869,l),
(177,856,l),
(25,462,l)
);
},
{
alignment = -1;
pos = (56,0);
ref = L;
}
);
width = 220;
},
{
layerId = "BA0CA162-2A9B-49EE-921D-3B4346C7D39F";
shapes = (
{
closed = 1;
nodes = (
(-46,590,l),
(498,953,l),
(593,795,l),
(49,430,l)
);
},
{
alignment = -1;
pos = (76,0);
ref = L;
}
);
width = 572;
},
{
layerId = "C75D3228-2D13-4E9D-9829-45195F4951D0";
shapes = (
{
closed = 1;
nodes = (
(-8,608,l),
(1008,1038,l),
(1121,747,l),
(105,317,l)
);
},
{
alignment = -1;
pos = (106,0);
ref = L;
}
);
width = 1836;
},
{
layerId = "71977205-6510-4B11-BB00-17BACA883C8F";
shapes = (
{
closed = 1;
nodes = (
(6,413,l),
(770,951,l),
(783,933,l),
(19,395,l)
);
},
{
alignment = -1;
pos = (99,0);
ref = L;
}
);
width = 1747;
}
);
unicode = 321;
},
{
color = 6;
glyphname = M;
kernLeft = H;
kernRight = H;
lastChange = "2023-03-03 14:59:49 +0000";
layers = (
{
anchors = (
{
name = bottom;
pos = (140,0);
},
{
name = top;
pos = (140,1350);
}
);
layerId = "A1A0948C-E637-4A65-8CCC-05505AD98C44";
shapes = (
{
closed = 1;
nodes = (
(28,1350,l),
(78,1350,l),
(132,142,l),
(138,142,l),
(192,1350,l),
(242,1350,l),
(242,0,l),
(220,0,l),
(220,1328,l),
(212,1328,l),
(158,124,l),
(112,124,l),
(58,1328,l),
(50,1328,l),
(50,0,l),
(28,0,l)
);
}
);
width = 282;
},
{
anchors = (
{
name = bottom;
pos = (604,0);
},
{
name = top;
pos = (604,1350);
}
);
layerId = "BA0CA162-2A9B-49EE-921D-3B4346C7D39F";
shapes = (
{
closed = 1;
nodes = (
(12,1350,l),
(562,1350,l),
(602,268,l),
(606,268,l),
(646,1350,l),
(1196,1350,l),
(1196,0,l),
(854,0,l),
(854,1098,l),
(850,1098,l),
(790,0,l),
(418,0,l),
(358,1098,l),
(354,1098,l),
(354,0,l),
(12,0,l)
);
}
);
width = 1208;
},
{
anchors = (
{
name = bottom;
pos = (1386,0);
},
{
name = top;
pos = (1386,1350);
}
);
layerId = "C75D3228-2D13-4E9D-9829-45195F4951D0";
shapes = (
{
closed = 1;
nodes = (
(140,1350,l),
(1056,1350,l),
(1379,391,l),
(1381,391,l),
(1704,1350,l),
(2620,1350,l),
(2620,0,l),
(2060,0,l),
(2060,974,l),
(2058,974,l),
(1720,10,l),
(1040,10,l),
(702,974,l),
(700,974,l),
(700,0,l),
(140,0,l)
);
}
);
width = 2815;
},
{
anchors = (
{
name = bottom;
pos = (1095,0);
},
{
name = top;
pos = (1095,1350);
}
);
layerId = "71977205-6510-4B11-BB00-17BACA883C8F";
shapes = (
{
closed = 1;
nodes = (
(150,1350,l),
(189,1350,l),
(1092,140,l),
(1095,140,l),
(1998,1350,l),
(2037,1350,l),
(2037,0,l),
(2015,0,l),
(2015,1333,l),
(2014,1333,l),
(1111,122,l),
(1076,122,l),
(173,1333,l),
(172,1333,l),
(172,0,l),
(150,0,l)
);
}
);
width = 2309;
}
);
metricLeft = H;
metricRight = H;
unicode = 77;
},
{
color = 6;
glyphname = N;
kernLeft = H;
kernRight = H;
lastChange = "2023-03-03 14:59:49 +0000";
layers = (
{
anchors = (
{
name = bottom;
pos = (105,0);
},
{
name = top;
pos = (105,1350);
}
);
layerId = "A1A0948C-E637-4A65-8CCC-05505AD98C44";
shapes = (
{
closed = 1;
nodes = (
(28,1350,l),
(76,1350,l),
(144,22,l),
(150,22,l),
(150,1350,l),
(172,1350,l),
(172,0,l),
(124,0,l),
(56,1328,l),
(50,1328,l),
(50,0,l),
(28,0,l)
);
}
);
width = 212;
},
{
anchors = (
{
name = bottom;
pos = (480,0);
},
{
name = top;
pos = (480,1350);
}
);
layerId = "BA0CA162-2A9B-49EE-921D-3B4346C7D39F";
shapes = (
{
closed = 1;
nodes = (
(12,1350,l),
(546,1350,l),
(591,264,l),
(596,264,l),
(604,1350,l),
(948,1350,l),
(948,0,l),
(404,0,l),
(360,1096,l),
(354,1096,l),
(354,0,l),
(12,0,l)
);
}
);
width = 960;
},
{
anchors = (
{
name = bottom;
pos = (1245,0);
},
{
name = top;
pos = (1245,1350);
}
);
layerId = "C75D3228-2D13-4E9D-9829-45195F4951D0";
shapes = (
{
closed = 1;
nodes = (
(140,1350,l),
(1054,1350,l),
(1752,426,l),
(1754,426,l),
(1754,1350,l),
(2320,1350,l),
(2320,0,l),
(1430,0,l),
(708,961,l),
(706,961,l),
(706,0,l),
(140,0,l)
);
}
);
width = 2515;
},
{
anchors = (
{
name = bottom;
pos = (985,0);
},
{
name = top;
pos = (985,1350);
}
);
layerId = "71977205-6510-4B11-BB00-17BACA883C8F";
shapes = (
{
closed = 1;
nodes = (
(150,1350,l),
(182,1350,l),
(1723,24,l),
(1724,24,l),
(1724,1350,l),
(1746,1350,l),
(1746,0,l),
(1714,0,l),
(173,1326,l),
(172,1326,l),
(172,0,l),
(150,0,l)
);
}
);
width = 2018;
}
);
metricLeft = H;
metricRight = H;
unicode = 78;
},
{
color = 3;
glyphname = Eng;
kernLeft = N;
kernRight = N;
lastChange = "2023-03-03 14:59:49 +0000";
layers = (
{
layerId = "A1A0948C-E637-4A65-8CCC-05505AD98C44";
shapes = (
{
closed = 1;
nodes = (
(76,-378,l),
(152,-378,o),
(158,-193,o),
(158,0,c),
(180,0,l),
(180,-193,o),
(170,-400,o),
(76,-400,c)
);
},
{
ref = N;
}
);
width = 220;
},
{
layerId = "BA0CA162-2A9B-49EE-921D-3B4346C7D39F";
shapes = (
{
closed = 1;
nodes = (
(390,-198,l),
(530,-198,o),
(596,-158,o),
(594,0,c),
(948,0,l),
(948,-388,o),
(638,-440,o),
(390,-440,c)
);
},
{
ref = N;
}
);
width = 960;
},
{
layerId = "C75D3228-2D13-4E9D-9829-45195F4951D0";
shapes = (
{
closed = 1;
nodes = (
(1298,-142,l),
(1672,-142,o),
(1730,-76,o),
(1730,0,c),
(2318,0,l),
(2318,-372,o),
(1878,-490,o),
(1298,-490,c)
);
},
{
ref = N;
}
);
width = 2515;
},
{
layerId = "71977205-6510-4B11-BB00-17BACA883C8F";
shapes = (
{
closed = 1;
nodes = (
(1163,-440,l),
(1629,-440,o),
(1724,-277,o),
(1724,0,c),
(1746,0,l),
(1746,-329,o),
(1603,-462,o),
(1163,-462,c)
);
},
{
ref = N;
}
);
width = 2018;
}
);
metricLeft = N;
metricRight = N;
unicode = 330;
},
{
color = 6;
glyphname = O;
kernLeft = O;
kernRight = O;
lastChange = "2023-03-03 14:59:49 +0000";
layers = (
{
anchors = (
{
name = bottom;
pos = (87,0);
},
{
name = center;
pos = (91,675);
},
{
name = ogonek;
pos = (134,38);
},
{
name = top;
pos = (91,1350);
},
{
name = topleft;
pos = (20,1350);
},
{
name = topright;
pos = (142,1216);
}
);
layerId = "A1A0948C-E637-4A65-8CCC-05505AD98C44";
shapes = (
{
closed = 1;
nodes = (
(28,-8,o),
(28,260,o),
(28,674,qs),
(28,1086,o),
(28,1356,o),
(86,1356,qs),
(144,1356,o),
(144,1084,o),
(144,674,qs),
(144,260,o),
(144,-8,o),
(86,-8,qs)
);
},
{
closed = 1;
nodes = (
(122,14,o),
(122,266,o),
(122,674,qs),
(122,1080,o),
(122,1334,o),
(86,1334,qs),
(50,1334,o),
(50,1080,o),
(50,674,qs),
(50,266,o),
(50,14,o),
(86,14,qs)
);
}
);
width = 174;
},
{
anchors = (
{
name = bottom;
pos = (368,0);
},
{
name = center;
pos = (368,675);
},
{
name = ogonek;
pos = (668,63);
},
{
name = top;
pos = (368,1350);
},
{
name = topleft;
pos = (20,1350);
},
{
name = topright;
pos = (716,1180);
}
);
layerId = "BA0CA162-2A9B-49EE-921D-3B4346C7D39F";
shapes = (
{
closed = 1;
nodes = (
(12,-8,o),
(12,366,o),
(12,676,qs),
(12,986,o),
(12,1362,o),
(368,1362,qs),
(724,1362,o),
(724,986,o),
(724,676,qs),
(724,366,o),
(724,-8,o),
(368,-8,qs)
);
},
{
closed = 1;
nodes = (
(380,246,o),
(380,294,o),
(380,676,qs),
(380,1068,o),
(380,1108,o),
(368,1108,qs),
(356,1108,o),
(356,1068,o),
(356,676,qs),
(356,294,o),
(356,246,o),
(368,246,qs)
);
}
);
width = 736;
},
{
anchors = (
{
name = bottom;
pos = (1130,0);
},
{
name = center;
pos = (1130,675);
},
{
name = ogonek;
pos = (1764,102);
},
{
name = top;
pos = (1130,1350);
},
{
name = topleft;
pos = (50,1350);
},
{
name = topright;
pos = (1746,1232);
}
);
layerId = "C75D3228-2D13-4E9D-9829-45195F4951D0";
shapes = (
{
closed = 1;
nodes = (
(662,-16,o),
(80,334,o),
(80,674,qs),
(80,1014,o),
(662,1362,o),
(1126,1362,qs),
(1590,1362,o),
(2172,1014,o),
(2172,674,qs),
(2172,334,o),
(1590,-16,o),
(1126,-16,qs)
);
},
{
closed = 1;
nodes = (
(1342,346,o),
(1606,512,o),
(1606,674,qs),
(1606,836,o),
(1342,1000,o),
(1126,1000,qs),
(910,1000,o),
(646,836,o),
(646,674,qs),
(646,512,o),
(910,346,o),
(1126,346,qs)
);
}
);
width = 2259;
},
{
anchors = (
{
name = bottom;
pos = (1060,0);
},
{
name = center;
pos = (1064,675);
},
{
name = ogonek;
pos = (1649,129);
},
{
name = top;
pos = (1060,1350);
},
{
name = topleft;
pos = (118,1350);
},
{
name = topright;
pos = (1648,1224);
}
);
layerId = "71977205-6510-4B11-BB00-17BACA883C8F";
shapes = (
{
closed = 1;
nodes = (
(683,-8,o),
(142,331,o),
(142,676,qs),
(142,1021,o),
(682,1363,o),
(1060,1363,qs),
(1438,1363,o),
(1979,1022,o),
(1979,676,qs),
(1979,331,o),
(1438,-8,o),
(1060,-8,qs)
);
},
{
closed = 1;
nodes = (
(1432,14,o),
(1955,344,o),
(1955,676,qs),
(1955,1009,o),
(1432,1341,o),
(1060,1341,qs),
(689,1341,o),
(166,1009,o),
(166,676,qs),
(166,344,o),
(689,14,o),
(1060,14,qs)
);
}
);
width = 2173;
}
);
unicode = 79;
},
{
color = 3;
glyphname = Oslash;
kernLeft = O;
kernRight = O;
lastChange = "2023-03-03 14:59:49 +0000";
layers = (
{
anchors = (
{
name = bottom;
pos = (91,0);
},
{
name = top;
pos = (91,1350);
}
);
layerId = "A1A0948C-E637-4A65-8CCC-05505AD98C44";
shapes = (
{
closed = 1;
nodes = (
(136,1348,l),
(158,1348,l),
(36,0,l),
(14,0,l)
);
},
{
ref = O;
}
);
width = 182;
},
{
anchors = (
{
name = bottom;
pos = (368,0);
},
{
name = top;
pos = (368,1350);
}
);
layerId = "BA0CA162-2A9B-49EE-921D-3B4346C7D39F";
shapes = (
{
closed = 1;
nodes = (
(666,1348,l),
(744,1348,l),
(72,0,l),
(-8,0,l)
);
},
{
ref = O;
}
);
width = 736;
},
{
anchors = (
{
name = bottom;
pos = (1099,0);
},
{
name = top;
pos = (1099,1350);
}
);
layerId = "C75D3228-2D13-4E9D-9829-45195F4951D0";
shapes = (
{
closed = 1;
nodes = (
(1780,1348,l),
(2158,1348,l),
(418,0,l),
(38,0,l)
);
},
{
ref = O;
}
);
width = 2198;
},
{
anchors = (
{
name = bottom;
pos = (1028,0);
},
{
name = top;
pos = (1028,1350);
}
);
layerId = "71977205-6510-4B11-BB00-17BACA883C8F";
shapes = (
{
closed = 1;
nodes = (
(1735,1348,l),
(1764,1348,l),
(216,0,l),
(180,0,l)
);
},
{
ref = O;
}
);
width = 1810;
}
);
unicode = 216;
},
{
color = 6;
glyphname = P;
kernLeft = H;
kernRight = P;
lastChange = "2023-03-03 14:59:49 +0000";
layers = (
{
anchors = (
{
name = bottom;
pos = (85,0);
},
{
name = top;
pos = (85,1350);
}
);
layerId = "A1A0948C-E637-4A65-8CCC-05505AD98C44";
shapes = (
{
closed = 1;
nodes = (
(28,1350,l),
(72,1350,ls),
(132,1350,o),
(132,1056,o),
(132,868,qs),
(132,680,o),
(132,388,o),
(72,388,qs),
(50,388,l),
(50,0,l),
(28,0,l)
);
},
{
closed = 1;
nodes = (
(68,410,ls),
(110,410,o),
(110,680,o),
(110,868,qs),
(110,1056,o),
(110,1328,o),
(68,1328,qs),
(50,1328,l),
(50,410,l)
);
}
);
width = 170;
},
{
anchors = (
{
name = bottom;
pos = (372,0);
},
{
name = top;
pos = (372,1350);
}
);
layerId = "BA0CA162-2A9B-49EE-921D-3B4346C7D39F";
shapes = (
{
closed = 1;
nodes = (
(12,1350,l),
(500,1350,ls),
(732,1350,o),
(732,1010,o),
(732,852,qs),
(732,692,o),
(732,352,o),
(500,352,qs),
(360,352,l),
(360,0,l),
(12,0,l)
);
},
{
closed = 1;
nodes = (
(366,606,ls),
(384,606,o),
(384,696,o),
(384,852,qs),
(384,1006,o),
(384,1096,o),
(366,1096,qs),
(360,1096,l),
(360,606,l)
);
}
);
width = 744;
},
{
anchors = (
{
name = bottom;
pos = (1044,0);
},
{
name = top;
pos = (1044,1350);
}
);
layerId = "C75D3228-2D13-4E9D-9829-45195F4951D0";
shapes = (
{
closed = 1;
nodes = (
(140,1350,l),
(1326,1350,ls),
(1652,1350,o),
(1978,1094,o),
(1978,830,qs),
(1978,564,o),
(1652,310,o),
(1326,310,qs),
(706,310,l),
(706,0,l),
(140,0,l)
);
},
{
closed = 1;
nodes = (
(1188,672,ls),
(1302,672,o),
(1420,740,o),
(1420,830,qs),
(1420,918,o),
(1302,988,o),
(1188,988,qs),
(706,988,l),
(706,672,l)
);
}
);
width = 2065;
},
{
anchors = (
{
name = bottom;
pos = (877,0);
},
{
name = top;
pos = (877,1350);
}
);
layerId = "71977205-6510-4B11-BB00-17BACA883C8F";
shapes = (
{
closed = 1;
nodes = (
(150,1350,l),
(961,1350,ls),
(1269,1350,o),
(1570,1135,o),
(1570,921,qs),
(1570,707,o),
(1270,492,o),
(961,492,qs),
(172,492,l),
(172,0,l),
(150,0,l)
);
},
{
closed = 1;
nodes = (
(950,514,ls),
(1265,514,o),
(1546,721,o),
(1546,921,qs),
(1546,1120,o),
(1266,1328,o),
(950,1328,qs),
(172,1328,l),
(172,514,l)
);
}
);
width = 1770;
}
);
metricLeft = H;
unicode = 80;
},
{
color = 6;
glyphname = Thorn;
kernLeft = H;
kernRight = Thorn;
lastChange = "2023-03-03 14:59:49 +0000";
layers = (
{
anchors = (
{
name = bottom;
pos = (105,0);
},
{
name = top;
pos = (105,1350);
}
);
layerId = "A1A0948C-E637-4A65-8CCC-05505AD98C44";
shapes = (
{
closed = 1;
nodes = (
(28,1350,l),
(50,1350,l),
(50,1132,l),
(94,1132,l),
(144,1132,o),
(172,1042,o),
(172,882,cs),
(172,478,ls),
(172,310,o),
(146,228,o),
(94,228,c),
(50,228,l),
(50,0,l),
(28,0,l)
);
},
{
closed = 1;
nodes = (
(80,250,l),
(132,250,o),
(150,314,o),
(150,498,cs),
(150,862,ls),
(150,1038,o),
(130,1108,o),
(80,1108,c),
(50,1108,l),
(50,250,l)
);
}
);
width = 210;
},
{
anchors = (
{
name = bottom;
pos = (373,0);
},
{
name = top;
pos = (373,1350);
}
);
layerId = "BA0CA162-2A9B-49EE-921D-3B4346C7D39F";
shapes = (
{
closed = 1;
nodes = (
(12,1350,l),
(358,1350,l),
(358,1132,l),
(514,1132,l),
(666,1132,o),
(734,1050,o),
(734,862,cs),
(734,498,ls),
(734,304,o),
(672,228,o),
(514,228,c),
(358,228,l),
(358,0,l),
(12,0,l)
);
},
{
closed = 1;
nodes = (
(368,450,l),
(386,450,o),
(388,468,o),
(388,538,cs),
(388,838,ls),
(388,892,o),
(388,908,o),
(368,908,c),
(358,908,l),
(358,450,l)
);
}
);
width = 746;
},
{
anchors = (
{
name = bottom;
pos = (1023,0);
},
{
name = top;
pos = (1023,1350);
}
);
layerId = "C75D3228-2D13-4E9D-9829-45195F4951D0";
shapes = (
{
closed = 1;
nodes = (
(108,1350,l),
(666,1350,l),
(666,1132,l),
(1498,1132,l),
(1782,1132,o),
(1920,1012,o),
(1920,786,cs),
(1920,578,ls),
(1920,322,o),
(1804,228,o),
(1498,228,cs),
(666,228,l),
(666,0,l),
(108,0,l)
);
},
{
closed = 1;
nodes = (
(1296,588,l),
(1350,588,o),
(1360,624,o),
(1360,646,cs),
(1360,712,ls),
(1360,736,o),
(1348,772,o),
(1296,772,c),
(666,772,l),
(666,588,l)
);
}
);
width = 2045;
},
{
anchors = (
{
name = bottom;
pos = (836,0);
},
{
name = top;
pos = (836,1350);
}
);
layerId = "71977205-6510-4B11-BB00-17BACA883C8F";
shapes = (
{
closed = 1;
nodes = (
(194,1350,l),
(216,1350,l),
(216,1132,l),
(1012,1132,l),
(1363,1132,o),
(1461,950,o),
(1461,746,cs),
(1461,607,ls),
(1461,412,o),
(1359,228,o),
(1012,228,c),
(216,228,l),
(216,0,l),
(194,0,l)
);
},
{
closed = 1;
nodes = (
(1014,250,l),
(1333,250,o),
(1439,422,o),
(1439,615,cs),
(1439,738,ls),
(1439,941,o),
(1343,1108,o),
(1014,1108,c),
(216,1108,l),
(216,250,l)
);
}
);
width = 1672;
}
);
unicode = 222;
},
{
color = 6;
glyphname = Q;
kernLeft = O;
kernRight = O;
lastChange = "2023-03-03 14:59:49 +0000";
layers = (
{
anchors = (
{
name = bottom;
pos = (97,0);
},
{
name = center;
pos = (91,675);
},
{
name = ogonek;
pos = (92,0);
},
{
name = top;
pos = (97,1350);
},
{
name = topleft;
pos = (20,1350);
},
{
name = topright;
pos = (142,1216);
}
);
layerId = "A1A0948C-E637-4A65-8CCC-05505AD98C44";
shapes = (
{
closed = 1;
nodes = (
(88,8,l),
(104,22,l),
(180,-84,l),
(164,-96,l)
);
},
{
closed = 1;
nodes = (
(28,-8,o),
(28,240,o),
(28,674,qs),
(28,1106,o),
(28,1356,o),
(86,1356,qs),
(144,1356,o),
(144,1104,o),
(144,674,qs),
(144,240,o),
(144,-8,o),
(86,-8,qs)
);
},
{
closed = 1;
nodes = (
(122,14,o),
(122,246,o),
(122,674,qs),
(122,1100,o),
(122,1334,o),
(86,1334,qs),
(50,1334,o),
(50,1100,o),
(50,674,qs),
(50,246,o),
(50,14,o),
(86,14,qs)
);
}
);
width = 210;
},
{
anchors = (
{
name = bottom;
pos = (373,0);
},
{
name = center;
pos = (368,675);
},
{
name = ogonek;
pos = (389,0);
},
{
name = top;
pos = (373,1350);
},
{
name = topleft;
pos = (20,1350);
},
{
name = topright;
pos = (716,1180);
}
);
layerId = "BA0CA162-2A9B-49EE-921D-3B4346C7D39F";
shapes = (
{
closed = 1;
nodes = (
(324,132,l),
(570,232,l),
(716,-114,l),
(474,-218,l)
);
},
{
closed = 1;
nodes = (
(12,-8,o),
(12,316,o),
(12,676,qs),
(12,1036,o),
(12,1362,o),
(368,1362,qs),
(724,1362,o),
(724,1036,o),
(724,676,qs),
(724,316,o),
(724,-8,o),
(368,-8,qs)
);
},
{
closed = 1;
nodes = (
(380,246,o),
(380,294,o),
(380,676,qs),
(380,1068,o),
(380,1108,o),
(368,1108,qs),
(356,1108,o),
(356,1068,o),
(356,676,qs),
(356,294,o),
(356,246,o),
(368,246,qs)
);
}
);
width = 736;
},
{
anchors = (
{
name = bottom;
pos = (1109,0);
},
{
name = center;
pos = (1130,675);
},
{
name = ogonek;
pos = (1152,0);
},
{
name = top;
pos = (1109,1350);
},
{
name = topleft;
pos = (50,1350);
},
{
name = topright;
pos = (1746,1232);
}
);
layerId = "C75D3228-2D13-4E9D-9829-45195F4951D0";
shapes = (
{
closed = 1;
nodes = (
(1294,114,l),
(1720,322,l),
(2130,-150,l),
(1730,-390,l)
);
},
{
closed = 1;
nodes = (
(662,-16,o),
(80,334,o),
(80,674,qs),
(80,1014,o),
(662,1362,o),
(1126,1362,qs),
(1590,1362,o),
(2172,1014,o),
(2172,674,qs),
(2172,334,o),
(1590,-16,o),
(1126,-16,qs)
);
},
{
closed = 1;
nodes = (
(1342,346,o),
(1606,512,o),
(1606,674,qs),
(1606,836,o),
(1342,1000,o),
(1126,1000,qs),
(910,1000,o),
(646,836,o),
(646,674,qs),
(646,512,o),
(910,346,o),
(1126,346,qs)
);
}
);
width = 2259;
},
{
anchors = (
{
name = bottom;
pos = (1026,0);
},
{
name = center;
pos = (1064,675);
},
{
name = ogonek;
pos = (1080,0);
},
{
name = top;
pos = (1026,1350);
},
{
name = topleft;
pos = (118,1350);
},
{
name = topright;
pos = (1648,1224);
}
);
layerId = "71977205-6510-4B11-BB00-17BACA883C8F";
shapes = (
{
closed = 1;
nodes = (
(1657,141,l),
(1675,158,l),
(1955,-192,l),
(1934,-209,l)
);
},
{
closed = 1;
nodes = (
(663,-8,o),
(142,341,o),
(142,676,qs),
(142,1011,o),
(662,1363,o),
(1060,1363,qs),
(1458,1363,o),
(1979,1012,o),
(1979,676,qs),
(1979,341,o),
(1458,-8,o),
(1060,-8,qs)
);
},
{
closed = 1;
nodes = (
(1452,14,o),
(1955,354,o),
(1955,676,qs),
(1955,999,o),
(1452,1341,o),
(1060,1341,qs),
(669,1341,o),
(166,999,o),
(166,676,qs),
(166,354,o),
(669,14,o),
(1060,14,qs)
);
}
);
width = 2173;
}
);
metricLeft = O;
metricRight = O;
unicode = 81;
},
{
color = 6;
glyphname = R;
kernLeft = H;
kernRight = R;
lastChange = "2023-03-03 14:59:49 +0000";
layers = (
{
anchors = (
{
name = bottom;
pos = (89,0);
},
{
name = top;
pos = (89,1350);
}
);
layerId = "A1A0948C-E637-4A65-8CCC-05505AD98C44";
shapes = (
{
closed = 1;
nodes = (
(28,1350,l),
(68,1350,ls),
(134,1350,o),
(134,1124,o),
(134,990,qs),
(134,856,o),
(134,632,o),
(68,632,qs),
(50,632,l),
(50,0,l),
(28,0,l)
);
},
{
closed = 1;
nodes = (
(86,638,l),
(108,660,l),
(140,0,l),
(118,0,l)
);
},
{
closed = 1;
nodes = (
(68,654,ls),
(112,654,o),
(112,856,o),
(112,990,qs),
(112,1124,o),
(112,1328,o),
(68,1328,qs),
(50,1328,l),
(50,654,l)
);
}
);
width = 172;
},
{
anchors = (
{
name = bottom;
pos = (375,0);
},
{
name = top;
pos = (375,1350);
}
);
layerId = "BA0CA162-2A9B-49EE-921D-3B4346C7D39F";
shapes = (
{
closed = 1;
nodes = (
(12,1350,l),
(510,1350,ls),
(736,1350,o),
(736,1056,o),
(736,944,qs),
(736,836,o),
(736,580,o),
(512,580,qs),
(362,580,l),
(362,0,l),
(12,0,l)
);
},
{
closed = 1;
nodes = (
(369,612,l),
(697,642,l),
(751,0,l),
(401,0,l)
);
},
{
closed = 1;
nodes = (
(366,794,ls),
(386,794,o),
(386,868,o),
(386,944,qs),
(386,1020,o),
(386,1096,o),
(366,1096,qs),
(362,1096,l),
(362,794,l)
);
}
);
width = 751;
},
{
anchors = (
{
name = bottom;
pos = (1050,0);
},
{
name = top;
pos = (1050,1350);
}
);
layerId = "C75D3228-2D13-4E9D-9829-45195F4951D0";
shapes = (
{
closed = 1;
nodes = (
(140,1350,l),
(1392,1350,ls),
(1664,1350,o),
(1994,1132,o),
(1994,888,qs),
(1994,646,o),
(1644,424,o),
(1352,424,qs),
(706,424,l),
(706,0,l),
(140,0,l)
);
},
{
closed = 1;
nodes = (
(834,630,l),
(1410,630,l),
(2046,0,l),
(1406,0,l)
);
},
{
closed = 1;
nodes = (
(1230,764,ls),
(1334,764,o),
(1428,816,o),
(1428,876,qs),
(1428,934,o),
(1334,988,o),
(1230,988,qs),
(706,988,l),
(706,764,l)
);
}
);
width = 2146;
},
{
anchors = (
{
name = bottom;
pos = (863,0);
},
{
name = top;
pos = (863,1350);
}
);
layerId = "71977205-6510-4B11-BB00-17BACA883C8F";
shapes = (
{
closed = 1;
nodes = (
(150,1350,l),
(1117,1350,ls),
(1369,1350,o),
(1604,1166,o),
(1604,1000,qs),
(1604,834,o),
(1369,647,o),
(1117,647,qs),
(172,647,l),
(172,0,l),
(150,0,l)
);
},
{
closed = 1;
nodes = (
(1105,657,l),
(1133,657,l),
(1589,0,l),
(1561,0,l)
);
},
{
closed = 1;
nodes = (
(1115,669,ls),
(1363,669,o),
(1580,843,o),
(1580,1000,qs),
(1580,1157,o),
(1362,1328,o),
(1115,1328,qs),
(172,1328,l),
(172,669,l)
);
}
);
width = 1804;
}
);
metricLeft = H;
unicode = 82;
},
{
color = 6;
glyphname = S;
kernLeft = S;
kernRight = S;
lastChange = "2023-03-03 14:59:49 +0000";
layers = (
{
anchors = (
{
name = bottom;
pos = (88,0);
},
{
name = top;
pos = (88,1350);
}
);
layerId = "A1A0948C-E637-4A65-8CCC-05505AD98C44";
shapes = (
{
closed = 1;
nodes = (
(24,-12,o),
(24,194,o),
(24,554,q),
(46,554,l),
(46,194,o),
(46,10,o),
(82,10,qs),
(120,10,o),
(120,194,o),
(120,300,qs),
(120,474,o),
(120,629,o),
(78,670,qs),
(26,720,o),
(26,880,o),
(26,1040,qs),
(26,1138,o),
(26,1356,o),
(84,1356,qs),
(142,1356,o),
(142,1136,o),
(142,796,q),
(120,796,l),
(120,1136,o),
(120,1334,o),
(84,1334,qs),
(48,1334,o),
(48,1136,o),
(48,1040,qs),
(48,892,o),
(48,732,o),
(88,692,qs),
(142,638,o),
(142,480,o),
(142,300,qs),
(142,194,o),
(142,-12,o),
(82,-12,qs)
);
}
);
width = 176;
},
{
anchors = (
{
name = bottom;
pos = (374,0);
},
{
name = top;
pos = (374,1350);
}
);
layerId = "BA0CA162-2A9B-49EE-921D-3B4346C7D39F";
shapes = (
{
closed = 1;
nodes = (
(12,-8,o),
(12,308,o),
(12,468,q),
(360,468,l),
(360,280,o),
(360,244,o),
(372,244,qs),
(384,244,o),
(384,280,o),
(384,356,qs),
(384,440,o),
(364,496,o),
(288,532,qs),
(94,624,o),
(12,762,o),
(12,924,qs),
(12,1046,o),
(12,1362,o),
(374,1362,q),
(732,1362,o),
(732,1030,o),
(732,890,q),
(384,890,l),
(384,1074,o),
(384,1110,o),
(372,1110,qs),
(360,1110,o),
(360,1074,o),
(360,1006,qs),
(360,896,o),
(384,852,o),
(472,810,qs),
(652,724,o),
(736,604,o),
(736,442,qs),
(736,320,o),
(736,-8,o),
(372,-8,qs)
);
}
);
width = 748;
},
{
anchors = (
{
name = bottom;
pos = (1099,0);
},
{
name = top;
pos = (1099,1350);
}
);
layerId = "C75D3228-2D13-4E9D-9829-45195F4951D0";
shapes = (
{
closed = 1;
nodes = (
(638,-8,o),
(94,226,o),
(94,482,q),
(660,482,l),
(660,422,o),
(920,352,o),
(1088,352,qs),
(1254,352,o),
(1514,390,o),
(1514,426,qs),
(1514,468,o),
(1138,492,o),
(876,508,qs),
(456,534,o),
(96,703,o),
(96,896,qs),
(96,1144,o),
(646,1362,o),
(1074,1362,qs),
(1504,1362,o),
(2060,1126,o),
(2060,874,q),
(1494,874,l),
(1494,934,o),
(1220,1002,o),
(1066,1002,qs),
(890,1002,o),
(630,955,o),
(630,920,qs),
(630,884,o),
(1016,855,o),
(1260,840,qs),
(1716,812,o),
(2060,652,o),
(2060,470,qs),
(2060,208,o),
(1526,-8,o),
(1094,-8,qs)
);
}
);
width = 2198;
},
{
anchors = (
{
name = bottom;
pos = (897,0);
},
{
name = top;
pos = (897,1350);
}
);
layerId = "71977205-6510-4B11-BB00-17BACA883C8F";
shapes = (
{
closed = 1;
nodes = (
(504,-7,o),
(115,215,o),
(115,483,q),
(140,483,l),
(140,231,o),
(517,15,o),
(893,15,qs),
(1263,15,o),
(1652,176,o),
(1652,332,qs),
(1652,481,o),
(1235,600,o),
(883,675,qs),
(529,750,o),
(115,885,o),
(115,1049,qs),
(115,1215,o),
(526,1363,o),
(895,1363,q),
(1287,1363,o),
(1676,1152,o),
(1676,893,q),
(1652,893,l),
(1652,1145,o),
(1267,1341,o),
(895,1341,qs),
(530,1341,o),
(139,1197,o),
(139,1049,qs),
(139,899,o),
(550,768,o),
(898,695,qs),
(1255,620,o),
(1676,495,o),
(1676,332,qs),
(1676,159,o),
(1269,-7,o),
(893,-7,qs)
);
}
);
width = 1891;
}
);
unicode = 83;
},
{
color = 6;
glyphname = Germandbls;
kernLeft = H;
kernRight = S;
lastChange = "2023-03-03 14:59:49 +0000";
layers = (
{
anchors = (
{
name = bottom;
pos = (106,0);
},
{
name = top;
pos = (106,1350);
}
);
layerId = "A1A0948C-E637-4A65-8CCC-05505AD98C44";
shapes = (
{
closed = 1;
nodes = (
(28,1350,l),
(174,1350,l),
(174,1330,l),
(96,776,l),
(146,698,o),
(174,536,o),
(174,338,cs),
(174,86,o),
(136,0,o),
(76,0,c),
(76,22,l),
(124,22,o),
(152,106,o),
(152,334,cs),
(152,542,o),
(128,680,o),
(76,762,c),
(76,782,l),
(152,1330,l),
(50,1330,l),
(50,0,l),
(28,0,l)
);
}
);
width = 208;
},
{
anchors = (
{
name = bottom;
pos = (399,0);
},
{
name = top;
pos = (399,1350);
}
);
layerId = "BA0CA162-2A9B-49EE-921D-3B4346C7D39F";
shapes = (
{
closed = 1;
nodes = (
(12,1350,l),
(786,1350,l),
(786,1128,l),
(692,726,l),
(770,668,o),
(786,545,o),
(786,418,cs),
(786,163,o),
(746,0,o),
(388,0,c),
(388,254,l),
(404,254,o),
(430,286,o),
(430,402,cs),
(430,506,o),
(404,560,o),
(386,576,c),
(386,830,l),
(440,1096,l),
(362,1096,l),
(362,0,l),
(12,0,l)
);
}
);
width = 798;
},
{
anchors = (
{
name = bottom;
pos = (1023,0);
},
{
name = top;
pos = (1023,1350);
}
);
layerId = "C75D3228-2D13-4E9D-9829-45195F4951D0";
shapes = (
{
closed = 1;
nodes = (
(140,1350,l),
(1786,1350,l),
(1786,988,l),
(1362,756,l),
(1712,756,o),
(1906,676,o),
(1906,418,cs),
(1906,136,o),
(1738,0,o),
(888,0,c),
(888,344,l),
(1234,344,o),
(1332,356,o),
(1332,462,cs),
(1332,564,o),
(1108,566,o),
(888,566,c),
(888,850,l),
(1106,966,l),
(700,966,l),
(700,0,l),
(140,0,l)
);
}
);
width = 2044;
},
{
anchors = (
{
name = bottom;
pos = (873,0);
},
{
name = top;
pos = (873,1350);
}
);
layerId = "71977205-6510-4B11-BB00-17BACA883C8F";
shapes = (
{
closed = 1;
nodes = (
(150,1350,l),
(1416,1350,l),
(1416,1330,l),
(519,781,l),
(1295,792,o),
(1506,721,o),
(1506,384,cs),
(1506,86,o),
(1277,-46,o),
(490,0,c),
(490,22,l),
(1265,-24,o),
(1484,102,o),
(1484,382,cs),
(1484,704,o),
(1286,774,o),
(490,762,c),
(490,787,l),
(1379,1330,l),
(172,1330,l),
(172,0,l),
(150,0,l)
);
}
);
width = 1721;
}
);
metricLeft = H;
metricRight = S;
unicode = 7838;
},
{
color = 6;
glyphname = T;
kernLeft = T;
kernRight = T;
lastChange = "2023-03-03 14:59:49 +0000";
layers = (
{
anchors = (
{
name = bottom;
pos = (73,0);
},
{
name = center;
pos = (79,675);
},
{
name = top;
pos = (79,1350);
}
);
layerId = "A1A0948C-E637-4A65-8CCC-05505AD98C44";
shapes = (
{
closed = 1;
nodes = (
(62,1328,l),
(16,1328,l),
(16,1350,l),
(132,1350,l),
(132,1328,l),
(84,1328,l),
(84,0,l),
(62,0,l)
);
}
);
width = 148;
},
{
anchors = (
{
name = bottom;
pos = (310,0);
},
{
name = center;
pos = (310,675);
},
{
name = top;
pos = (310,1350);
}
);
layerId = "BA0CA162-2A9B-49EE-921D-3B4346C7D39F";
shapes = (
{
closed = 1;
nodes = (
(136,1096,l),
(12,1096,l),
(12,1350,l),
(608,1350,l),
(608,1096,l),
(484,1096,l),
(484,0,l),
(136,0,l)
);
}
);
width = 620;
},
{
anchors = (
{
name = bottom;
pos = (1069,0);
},
{
name = center;
pos = (1069,675);
},
{
name = top;
pos = (1069,1350);
}
);
layerId = "C75D3228-2D13-4E9D-9829-45195F4951D0";
shapes = (
{
closed = 1;
nodes = (
(786,988,l),
(126,988,l),
(126,1350,l),
(2010,1350,l),
(2010,988,l),
(1352,988,l),
(1352,0,l),
(786,0,l)
);
}
);
width = 2137;
},
{
anchors = (
{
name = bottom;
pos = (939,0);
},
{
name = center;
pos = (942,675);
},
{
name = top;
pos = (942,1350);
}
);
layerId = "71977205-6510-4B11-BB00-17BACA883C8F";
shapes = (
{
closed = 1;
nodes = (
(930,1328,l),
(116,1328,l),
(116,1350,l),
(1762,1350,l),
(1762,1328,l),
(952,1328,l),
(952,0,l),
(930,0,l)
);
}
);
width = 1902;
}
);
unicode = 84;
},
{
color = 3;
glyphname = Tbar;
kernLeft = T;
kernRight = T;
lastChange = "2023-03-03 14:59:49 +0000";
layers = (
{
layerId = "A1A0948C-E637-4A65-8CCC-05505AD98C44";
shapes = (
{
closed = 1;
nodes = (
(20,988,l),
(130,988,l),
(130,966,l),
(20,966,l)
);
},
{
ref = T;
}
);
width = 148;
},
{
layerId = "BA0CA162-2A9B-49EE-921D-3B4346C7D39F";
shapes = (
{
closed = 1;
nodes = (
(30,920,l),
(580,920,l),
(580,696,l),
(30,696,l)
);
},
{
ref = T;
}
);
width = 620;
},
{
layerId = "C75D3228-2D13-4E9D-9829-45195F4951D0";
shapes = (
{
closed = 1;
nodes = (
(302,804,l),
(1870,804,l),
(1870,500,l),
(302,500,l)
);
},
{
ref = T;
}
);
width = 2137;
},
{
layerId = "71977205-6510-4B11-BB00-17BACA883C8F";
shapes = (
{
closed = 1;
nodes = (
(239,829,l),
(1628,829,l),
(1628,807,l),
(239,807,l)
);
},
{
ref = T;
}
);
width = 1902;
}
);
metricLeft = T;
metricRight = T;
unicode = 358;
},
{
color = 6;
glyphname = U;
kernLeft = U;
kernRight = U;
lastChange = "2023-03-03 14:59:49 +0000";
layers = (
{
anchors = (
{
name = bottom;
pos = (95,0);
},
{
name = ogonek;
pos = (97,0);
},
{
name = top;
pos = (95,1350);
},
{
name = topright;
pos = (147,1302);
}
);
layerId = "A1A0948C-E637-4A65-8CCC-05505AD98C44";
shapes = (
{
closed = 1;
nodes = (
(60,-12,o),
(32,52,o),
(32,156,qs),
(32,1350,l),
(54,1350,l),
(54,160,ls),
(54,60,o),
(72,10,o),
(90,10,qs),
(108,10,o),
(126,60,o),
(126,160,qs),
(126,1350,l),
(148,1350,l),
(148,156,ls),
(148,52,o),
(120,-12,o),
(90,-12,qs)
);
}
);
width = 190;
},
{
anchors = (
{
name = bottom;
pos = (372,0);
},
{
name = ogonek;
pos = (377,0);
},
{
name = top;
pos = (372,1350);
},
{
name = topright;
pos = (730,1252);
}
);
layerId = "BA0CA162-2A9B-49EE-921D-3B4346C7D39F";
shapes = (
{
closed = 1;
nodes = (
(174,-8,o),
(12,120,o),
(12,264,qs),
(12,1350,l),
(360,1350,l),
(360,312,ls),
(360,280,o),
(362,246,o),
(372,246,qs),
(382,246,o),
(384,280,o),
(384,312,qs),
(384,1350,l),
(732,1350,l),
(732,264,ls),
(732,120,o),
(570,-8,o),
(372,-8,qs)
);
}
);
width = 744;
},
{
anchors = (
{
name = bottom;
pos = (1137,0);
},
{
name = ogonek;
pos = (1122,0);
},
{
name = top;
pos = (1137,1350);
},
{
name = topright;
pos = (2111,1193);
}
);
layerId = "C75D3228-2D13-4E9D-9829-45195F4951D0";
shapes = (
{
closed = 1;
nodes = (
(630,-8,o),
(130,306,o),
(130,682,qs),
(130,1350,l),
(696,1350,l),
(696,726,ls),
(696,528,o),
(890,354,o),
(1122,354,qs),
(1354,354,o),
(1548,526,o),
(1548,726,qs),
(1548,1350,l),
(2114,1350,l),
(2114,682,ls),
(2114,306,o),
(1614,-8,o),
(1122,-8,qs)
);
}
);
width = 2273;
},
{
anchors = (
{
name = bottom;
pos = (998,0);
},
{
name = ogonek;
pos = (996,0);
},
{
name = top;
pos = (998,1350);
},
{
name = topright;
pos = (1787,1192);
}
);
layerId = "71977205-6510-4B11-BB00-17BACA883C8F";
shapes = (
{
closed = 1;
nodes = (
(627,-7,o),
(205,289,o),
(205,612,qs),
(205,1348,l),
(227,1348,l),
(227,627,ls),
(227,309,o),
(627,15,o),
(997,15,qs),
(1367,15,o),
(1767,309,o),
(1767,627,qs),
(1767,1348,l),
(1789,1348,l),
(1789,612,ls),
(1789,289,o),
(1367,-7,o),
(997,-7,qs)
);
}
);
width = 2070;
}
);
unicode = 85;
},
{
color = 6;
glyphname = V;
kernLeft = V;
kernRight = V;
lastChange = "2023-03-03 14:59:49 +0000";
layers = (
{
anchors = (
{
name = bottom;
pos = (92,0);
},
{
name = top;
pos = (92,1350);
}
);
layerId = "A1A0948C-E637-4A65-8CCC-05505AD98C44";
shapes = (
{
closed = 1;
nodes = (
(12,1350,l),
(34,1350,l),
(83,22,l),
(85,22,l),
(134,1350,l),
(156,1350,l),
(103,0,l),
(65,0,l)
);
}
);
width = 174;
},
{
anchors = (
{
name = bottom;
pos = (386,0);
},
{
name = top;
pos = (386,1350);
}
);
layerId = "BA0CA162-2A9B-49EE-921D-3B4346C7D39F";
shapes = (
{
closed = 1;
nodes = (
(10,1350,l),
(366,1350,l),
(384,250,l),
(388,250,l),
(408,1350,l),
(762,1350,l),
(662,0,l),
(110,0,l)
);
}
);
width = 772;
},
{
anchors = (
{
name = bottom;
pos = (1116,0);
},
{
name = top;
pos = (1116,1350);
}
);
layerId = "C75D3228-2D13-4E9D-9829-45195F4951D0";
shapes = (
{
closed = 1;
nodes = (
(80,1350,l),
(652,1350,l),
(1111,388,l),
(1113,388,l),
(1568,1350,l),
(2140,1350,l),
(1456,0,l),
(766,0,l)
);
}
);
width = 2232;
},
{
anchors = (
{
name = bottom;
pos = (931,0);
},
{
name = top;
pos = (931,1350);
}
);
layerId = "71977205-6510-4B11-BB00-17BACA883C8F";
shapes = (
{
closed = 1;
nodes = (
(107,1350,l),
(134,1350,l),
(932,22,l),
(933,22,l),
(1734,1350,l),
(1760,1350,l),
(947,0,l),
(916,0,l)
);
}
);
width = 1934;
}
);
unicode = 86;
},
{
color = 6;
glyphname = V.ss01;
kernLeft = V;
kernRight = V;
lastChange = "2023-03-03 14:59:49 +0000";
layers = (
{
anchors = (
{
name = bottom;
pos = (92,0);
},
{
name = top;
pos = (92,1350);
}
);
layerId = "A1A0948C-E637-4A65-8CCC-05505AD98C44";
shapes = (
{
closed = 1;
nodes = (
(12,924,l),
(12,1350,l),
(34,1350,l),
(34,924,l),
(80,22,l),
(88,22,l),
(134,924,l),
(134,1350,l),
(156,1350,l),
(156,924,l),
(106,0,l),
(62,0,l)
);
}
);
width = 174;
},
{
anchors = (
{
name = bottom;
pos = (388,0);
},
{
name = top;
pos = (388,1350);
}
);
layerId = "BA0CA162-2A9B-49EE-921D-3B4346C7D39F";
shapes = (
{
closed = 1;
nodes = (
(12,751,l),
(12,1350,l),
(368,1350,l),
(368,857,l),
(384,250,l),
(392,250,l),
(410,857,l),
(410,1350,l),
(764,1350,l),
(764,751,l),
(674,0,l),
(102,0,l)
);
}
);
width = 776;
},
{
anchors = (
{
name = bottom;
pos = (934,0);
},
{
name = top;
pos = (933,1350);
}
);
layerId = "71977205-6510-4B11-BB00-17BACA883C8F";
shapes = (
{
closed = 1;
nodes = (
(107,727,l),
(107,1350,l),
(129,1350,l),
(129,739,l),
(932,22,l),
(933,22,l),
(1738,739,l),
(1738,1350,l),
(1760,1350,l),
(1760,727,l),
(946,0,l),
(917,0,l)
);
}
);
width = 1934;
},
{
anchors = (
{
name = bottom;
pos = (1116,0);
},
{
name = top;
pos = (1116,1350);
}
);
layerId = "C75D3228-2D13-4E9D-9829-45195F4951D0";
shapes = (
{
closed = 1;
nodes = (
(80,725,l),
(80,1350,l),
(646,1350,l),
(646,815,l),
(1112,324,l),
(1114,324,l),
(1574,815,l),
(1574,1350,l),
(2140,1350,l),
(2140,725,l),
(1456,0,l),
(766,0,l)
);
}
);
width = 2232;
}
);
},
{
color = 6;
glyphname = W;
kernLeft = W;
kernRight = W;
lastChange = "2023-03-03 14:59:49 +0000";
layers = (
{
anchors = (
{
name = bottom;
pos = (163,0);
},
{
name = top;
pos = (163,1350);
}
);
layerId = "A1A0948C-E637-4A65-8CCC-05505AD98C44";
shapes = (
{
closed = 1;
nodes = (
(28,1350,l),
(50,1350,l),
(84,20,l),
(88,20,l),
(136,1350,l),
(180,1350,l),
(226,20,l),
(230,20,l),
(266,1350,l),
(288,1350,l),
(250,0,l),
(206,0,l),
(160,1328,l),
(156,1328,l),
(108,0,l),
(64,0,l)
);
}
);
width = 326;
},
{
anchors = (
{
name = bottom;
pos = (609,0);
},
{
name = top;
pos = (609,1350);
}
);
layerId = "BA0CA162-2A9B-49EE-921D-3B4346C7D39F";
shapes = (
{
closed = 1;
nodes = (
(8,1350,l),
(366,1350,l),
(366,254,l),
(370,254,l),
(430,1350,l),
(788,1350,l),
(848,254,l),
(852,254,l),
(852,1350,l),
(1210,1350,l),
(1144,0,l),
(638,0,l),
(612,1086,l),
(608,1086,l),
(580,0,l),
(74,0,l)
);
}
);
width = 1218;
},
{
anchors = (
{
name = bottom;
pos = (1610,0);
},
{
name = top;
pos = (1610,1350);
}
);
layerId = "C75D3228-2D13-4E9D-9829-45195F4951D0";
shapes = (
{
closed = 1;
nodes = (
(52,1350,l),
(678,1350,l),
(900,407,l),
(902,407,l),
(1172,1350,l),
(2002,1350,l),
(2273,404,l),
(2275,404,l),
(2514,1350,l),
(3140,1350,l),
(2730,0,l),
(1844,0,l),
(1588,997,l),
(1586,997,l),
(1326,0,l),
(444,0,l)
);
}
);
width = 3220;
},
{
anchors = (
{
name = bottom;
pos = (1375,0);
},
{
name = top;
pos = (1375,1350);
}
);
layerId = "71977205-6510-4B11-BB00-17BACA883C8F";
shapes = (
{
closed = 1;
nodes = (
(129,1350,l),
(156,1350,l),
(686,25,l),
(687,25,l),
(1334,1350,l),
(1367,1350,l),
(2018,25,l),
(2019,25,l),
(2546,1350,l),
(2573,1350,l),
(2034,0,l),
(2003,0,l),
(1352,1328,l),
(1350,1328,l),
(701,0,l),
(670,0,l)
);
}
);
width = 2750;
}
);
unicode = 87;
},
{
color = 6;
glyphname = X;
kernLeft = X;
kernRight = X;
lastChange = "2023-03-03 14:59:49 +0000";
layers = (
{
anchors = (
{
name = bottom;
pos = (95,0);
},
{
name = top;
pos = (95,1350);
}
);
layerId = "A1A0948C-E637-4A65-8CCC-05505AD98C44";
shapes = (
{
closed = 1;
nodes = (
(69,668,l),
(20,1350,l),
(42,1350,l),
(90,680,l),
(140,1350,l),
(162,1350,l),
(111,668,l),
(164,0,l),
(142,0,l),
(90,656,l),
(38,0,l),
(16,0,l)
);
}
);
width = 190;
},
{
anchors = (
{
name = bottom;
pos = (404,0);
},
{
name = top;
pos = (404,1350);
}
);
layerId = "BA0CA162-2A9B-49EE-921D-3B4346C7D39F";
shapes = (
{
closed = 1;
nodes = (
(104,668,l),
(10,1350,l),
(374,1350,l),
(404,814,l),
(434,1350,l),
(798,1350,l),
(704,668,l),
(804,0,l),
(440,0,l),
(404,522,l),
(368,0,l),
(4,0,l)
);
}
);
width = 808;
},
{
anchors = (
{
name = bottom;
pos = (1102,0);
},
{
name = top;
pos = (1102,1350);
}
);
layerId = "C75D3228-2D13-4E9D-9829-45195F4951D0";
shapes = (
{
closed = 1;
nodes = (
(722,668,l),
(20,1350,l),
(704,1350,l),
(1102,906,l),
(1502,1350,l),
(2184,1350,l),
(1478,668,l),
(2204,0,l),
(1522,0,l),
(1102,430,l),
(684,0,l),
(0,0,l)
);
}
);
width = 2204;
},
{
anchors = (
{
name = bottom;
pos = (954,0);
},
{
name = top;
pos = (954,1350);
}
);
layerId = "71977205-6510-4B11-BB00-17BACA883C8F";
shapes = (
{
closed = 1;
nodes = (
(885,668,l),
(114,1350,l),
(150,1350,l),
(909,675,l),
(1668,1350,l),
(1704,1350,l),
(933,668,l),
(1726,0,l),
(1690,0,l),
(909,661,l),
(128,0,l),
(92,0,l)
);
}
);
width = 1908;
}
);
unicode = 88;
},
{
color = 6;
glyphname = Y;
kernLeft = Y;
kernRight = Y;
lastChange = "2023-03-08 13:53:13 +0000";
layers = (
{
anchors = (
{
name = bottom;
pos = (77,0);
},
{
name = top;
pos = (82,1350);
},
{
name = topleft;
pos = (10,1350);
}
);
layerId = "A1A0948C-E637-4A65-8CCC-05505AD98C44";
shapes = (
{
closed = 1;
nodes = (
(66,508,l),
(13,1350,l),
(35,1350,l),
(77,551,l),
(78,551,l),
(119,1350,l),
(141,1350,l),
(88,508,l),
(88,0,l),
(66,0,l)
);
}
);
width = 160;
},
{
anchors = (
{
name = bottom;
pos = (398,0);
},
{
name = top;
pos = (398,1350);
},
{
name = topleft;
pos = (20,1350);
}
);
layerId = "BA0CA162-2A9B-49EE-921D-3B4346C7D39F";
shapes = (
{
closed = 1;
nodes = (
(226,413,l),
(3,1350,l),
(355,1350,l),
(398,802,l),
(402,802,l),
(443,1350,l),
(795,1350,l),
(574,413,l),
(574,0,l),
(226,0,l)
);
}
);
width = 796;
},
{
anchors = (
{
name = bottom;
pos = (1143,0);
},
{
name = top;
pos = (1143,1350);
},
{
name = topleft;
pos = (20,1350);
}
);
layerId = "C75D3228-2D13-4E9D-9829-45195F4951D0";
shapes = (
{
closed = 1;
nodes = (
(864,541,l),
(2,1350,l),
(638,1350,l),
(1146,858,l),
(1148,858,l),
(1652,1350,l),
(2288,1350,l),
(1428,541,l),
(1428,0,l),
(864,0,l)
);
}
);
width = 2285;
},
{
anchors = (
{
name = bottom;
pos = (952,0);
},
{
name = top;
pos = (953,1350);
},
{
name = topleft;
pos = (0,1350);
}
);
layerId = "71977205-6510-4B11-BB00-17BACA883C8F";
shapes = (
{
closed = 1;
nodes = (
(940,631,l),
(120,1350,l),
(152,1350,l),
(950,650,l),
(952,650,l),
(1750,1350,l),
(1782,1350,l),
(962,630,l),
(962,0,l),
(940,0,l)
);
}
);
width = 1962;
}
);
note = Y;
unicode = 89;
},
{
color = 6;
glyphname = Z;
kernLeft = Z;
kernRight = Z;
lastChange = "2023-03-03 14:59:49 +0000";
layers = (
{
anchors = (
{
name = bottom;
pos = (74,0);
},
{
name = center;
pos = (74,675);
},
{
name = top;
pos = (74,1350);
}
);
layerId = "A1A0948C-E637-4A65-8CCC-05505AD98C44";
shapes = (
{
closed = 1;
nodes = (
(28,20,l),
(82,1328,l),
(28,1328,l),
(28,1350,l),
(104,1350,l),
(104,1330,l),
(50,22,l),
(110,22,l),
(110,0,l),
(28,0,l)
);
}
);
width = 148;
},
{
anchors = (
{
name = bottom;
pos = (254,0);
},
{
name = center;
pos = (254,675);
},
{
name = top;
pos = (254,1350);
}
);
layerId = "BA0CA162-2A9B-49EE-921D-3B4346C7D39F";
shapes = (
{
closed = 1;
nodes = (
(12,254,l),
(178,1100,l),
(26,1100,l),
(26,1350,l),
(494,1350,l),
(494,1100,l),
(330,250,l),
(496,250,l),
(496,0,l),
(12,0,l)
);
}
);
width = 508;
},
{
anchors = (
{
name = bottom;
pos = (998,0);
},
{
name = center;
pos = (998,675);
},
{
name = top;
pos = (998,1350);
}
);
layerId = "C75D3228-2D13-4E9D-9829-45195F4951D0";
shapes = (
{
closed = 1;
nodes = (
(98,380,l),
(1138,990,l),
(114,990,l),
(114,1350,l),
(1824,1350,l),
(1824,984,l),
(784,364,l),
(1842,364,l),
(1842,0,l),
(98,0,l)
);
}
);
width = 1995;
},
{
anchors = (
{
name = bottom;
pos = (916,0);
},
{
name = center;
pos = (916,675);
},
{
name = top;
pos = (916,1350);
}
);
layerId = "71977205-6510-4B11-BB00-17BACA883C8F";
shapes = (
{
closed = 1;
nodes = (
(125,32,l),
(1522,1326,l),
(139,1326,l),
(139,1350,l),
(1554,1350,l),
(1554,1323,l),
(157,24,l),
(1636,24,l),
(1636,0,l),
(125,0,l)
);
}
);
width = 1833;
}
);
unicode = 90;
},
{
color = 6;
glyphname = a;
kernLeft = a;
kernRight = n;
lastChange = "2023-03-03 14:59:49 +0000";
layers = (
{
anchors = (
{
name = bottom;
pos = (100,0);
},
{
name = ogonek;
pos = (156,0);
},
{
name = top;
pos = (101,1200);
}
);
layerId = "A1A0948C-E637-4A65-8CCC-05505AD98C44";
shapes = (
{
closed = 1;
nodes = (
(41,-6,o),
(36,44,o),
(36,340,cs),
(36,632,o),
(41,686,o),
(106,686,cs),
(134,686,l),
(134,770,ls),
(134,1092,o),
(132,1190,o),
(97,1190,cs),
(62,1190,o),
(58,1092,o),
(58,769,c),
(36,769,l),
(36,1121,o),
(40,1212,o),
(97,1212,cs),
(154,1212,o),
(156,1121,o),
(156,770,cs),
(156,0,l),
(136,0,l),
(135,39,l),
(128,16,o),
(114,-6,o),
(90,-6,cs)
);
},
{
closed = 1;
nodes = (
(115,16,o),
(129,60,o),
(134,81,c),
(134,664,l),
(110,664,ls),
(66,664,o),
(58,613,o),
(58,340,cs),
(58,68,o),
(66,16,o),
(92,16,cs)
);
}
);
width = 200;
},
{
anchors = (
{
name = bottom;
pos = (383,0);
},
{
name = ogonek;
pos = (749,0);
},
{
name = top;
pos = (392,1200);
}
);
layerId = "BA0CA162-2A9B-49EE-921D-3B4346C7D39F";
shapes = (
{
closed = 1;
nodes = (
(90,-10,o),
(11,35,o),
(11,360,cs),
(11,651,o),
(54,722,o),
(214,722,cs),
(399,722,l),
(399,774,ls),
(399,934,o),
(398,955,o),
(386,955,cs),
(374,955,o),
(371,935,o),
(371,774,c),
(11,774,l),
(11,1139,o),
(139,1211,o),
(387,1211,cs),
(635,1211,o),
(749,1141,o),
(749,780,cs),
(749,0,l),
(495,0,l),
(454,81,l),
(441,41,o),
(365,-10,o),
(271,-10,cs)
);
},
{
closed = 1;
nodes = (
(390,244,o),
(396,249,o),
(399,259,c),
(399,513,l),
(392,513,ls),
(378,513,o),
(366,508,o),
(366,380,cs),
(366,258,o),
(372,244,o),
(385,244,cs)
);
}
);
width = 762;
},
{
anchors = (
{
name = bottom;
pos = (1075,0);
},
{
name = ogonek;
pos = (1980,0);
},
{
name = top;
pos = (1026,1172);
}
);
layerId = "C75D3228-2D13-4E9D-9829-45195F4951D0";
shapes = (
{
closed = 1;
nodes = (
(361,-20,o),
(88,122,o),
(88,362,cs),
(88,600,o),
(362,726,o),
(882,726,cs),
(1422,726,l),
(1422,728,ls),
(1422,797,o),
(1277,840,o),
(1041,840,cs),
(880,840,o),
(702,804,o),
(640,758,c),
(118,1009,l),
(255,1102,o),
(688,1184,o),
(1036,1184,cs),
(1646,1184,o),
(1980,1003,o),
(1980,673,cs),
(1980,0,l),
(1484,0,l),
(1445,165,l),
(1355,55,o),
(1103,-20,o),
(825,-20,cs)
);
},
{
closed = 1;
nodes = (
(1114,298,o),
(1324,364,o),
(1408,452,c),
(1408,454,l),
(918,454,ls),
(728,454,o),
(648,431,o),
(648,377,cs),
(648,327,o),
(748,298,o),
(918,298,cs)
);
}
);
width = 2150;
},
{
anchors = (
{
name = bottom;
pos = (863,0);
},
{
name = ogonek;
pos = (1548,0);
},
{
name = top;
pos = (850,1169);
}
);
layerId = "71977205-6510-4B11-BB00-17BACA883C8F";
shapes = (
{
closed = 1;
nodes = (
(442,-11,o),
(142,64,o),
(142,333,cs),
(142,595,o),
(444,665,o),
(744,665,cs),
(1526,665,l),
(1526,773,ls),
(1526,1013,o),
(1253,1155,o),
(850,1155,cs),
(480,1155,o),
(234,1033,o),
(184,830,c),
(159,830,l),
(209,1048,o),
(473,1177,o),
(850,1177,cs),
(1264,1177,o),
(1548,1026,o),
(1548,777,cs),
(1548,0,l),
(1526,0,l),
(1526,301,l),
(1490,198,o),
(1274,-11,o),
(771,-11,cs)
);
},
{
closed = 1;
nodes = (
(1232,11,o),
(1468,185,o),
(1526,346,c),
(1526,643,l),
(745,643,ls),
(468,643,o),
(166,582,o),
(166,333,cs),
(166,80,o),
(456,11,o),
(771,11,cs)
);
}
);
width = 1771;
}
);
unicode = 97;
},
{
color = 6;
glyphname = a.ss01;
kernLeft = o;
kernRight = l;
lastChange = "2023-03-03 14:59:49 +0000";
layers = (
{
anchors = (
{
name = bottom;
pos = (103,0);
},
{
name = ogonek;
pos = (152,1);
},
{
name = top;
pos = (98,1200);
}
);
layerId = "A1A0948C-E637-4A65-8CCC-05505AD98C44";
shapes = (
{
closed = 1;
nodes = (
(140,1095,l),
(140,1200,l),
(162,1200,l),
(162,0,l),
(140,0,l)
);
},
{
closed = 1;
nodes = (
(34,-6,o),
(34,238,o),
(34,602,qs),
(34,968,o),
(34,1212,o),
(82,1212,qs),
(115,1212,o),
(148,1106,o),
(148,1056,q),
(140,1024,l),
(140,1068,o),
(105,1190,o),
(84,1190,qs),
(56,1190,o),
(56,960,o),
(56,602,qs),
(56,246,o),
(56,16,o),
(84,16,qs),
(105,16,o),
(140,138,o),
(140,182,q),
(149,140,l),
(149,90,o),
(115,-6,o),
(82,-6,qs)
);
}
);
width = 206;
},
{
anchors = (
{
name = bottom;
pos = (1053,0);
},
{
name = ogonek;
pos = (1546,0);
},
{
name = top;
pos = (1060,1172);
}
);
layerId = "C75D3228-2D13-4E9D-9829-45195F4951D0";
shapes = (
{
closed = 1;
nodes = (
(1430,1029,l),
(1552,1172,l),
(1996,1172,l),
(1996,0,l),
(1430,0,l)
);
},
{
closed = 1;
nodes = (
(524,-10,o),
(80,280,o),
(80,590,qs),
(80,900,o),
(524,1182,o),
(848,1182,qs),
(1187,1182,o),
(1666,935,o),
(1666,870,q),
(1434,630,l),
(1434,690,o),
(1175,820,o),
(1018,820,qs),
(842,820,o),
(650,693,o),
(650,586,qs),
(650,479,o),
(842,352,o),
(1018,352,qs),
(1175,352,o),
(1434,482,o),
(1434,542,q),
(1646,342,l),
(1646,277,o),
(1187,-10,o),
(848,-10,qs)
);
}
);
width = 2196;
},
{
anchors = (
{
name = bottom;
pos = (369,0);
},
{
name = ogonek;
pos = (615,0);
},
{
name = top;
pos = (369,1200);
}
);
layerId = "BA0CA162-2A9B-49EE-921D-3B4346C7D39F";
shapes = (
{
closed = 1;
nodes = (
(382,1043,l),
(473,1200,l),
(726,1200,l),
(726,0,l),
(382,0,l)
);
},
{
closed = 1;
nodes = (
(12,-5,o),
(12,386,o),
(12,602,qs),
(12,818,o),
(12,1207,o),
(218,1207,qs),
(336,1207,o),
(552,1057,o),
(552,857,q),
(382,739,l),
(382,865,o),
(382,955,o),
(368,955,qs),
(354,955,o),
(354,865,o),
(354,602,qs),
(354,334,o),
(354,244,o),
(368,244,qs),
(382,244,o),
(382,334,o),
(382,464,q),
(512,352,l),
(512,152,o),
(336,-5,o),
(218,-5,qs)
);
}
);
width = 738;
},
{
anchors = (
{
name = bottom;
pos = (897,0);
},
{
name = ogonek;
pos = (1541,0);
},
{
name = top;
pos = (875,1168);
}
);
layerId = "71977205-6510-4B11-BB00-17BACA883C8F";
shapes = (
{
closed = 1;
nodes = (
(1530,792,l),
(1530,1168,l),
(1552,1168,l),
(1552,0,l),
(1530,0,l)
);
},
{
closed = 1;
nodes = (
(533,-10,o),
(121,286,o),
(121,586,qs),
(121,886,o),
(533,1182,o),
(837,1182,qs),
(1143,1182,o),
(1536,902,o),
(1536,780,q),
(1530,703,l),
(1530,879,o),
(1131,1160,o),
(837,1160,qs),
(543,1160,o),
(145,876,o),
(145,586,qs),
(145,296,o),
(543,12,o),
(837,12,qs),
(1131,12,o),
(1530,293,o),
(1530,469,q),
(1536,392,l),
(1536,270,o),
(1143,-10,o),
(837,-10,qs)
);
}
);
width = 1752;
}
);
metricLeft = d;
metricRight = d;
},
{
color = 3;
glyphname = ae;
kernLeft = a;
kernRight = e;
lastChange = "2023-03-03 14:59:49 +0000";
layers = (
{
anchors = (
{
name = bottom;
pos = (151,0);
},
{
name = top;
pos = (146,1200);
}
);
layerId = "A1A0948C-E637-4A65-8CCC-05505AD98C44";
shapes = (
{
closed = 1;
nodes = (
(136,104,l),
(134,140,l),
(134,800,ls),
(134,986,o),
(134,1188,o),
(96,1188,qs),
(58,1188,o),
(58,986,o),
(58,740,q),
(36,740,l),
(36,992,o),
(36,1210,o),
(96,1210,qs),
(156,1210,o),
(156,992,o),
(156,806,qs),
(156,96,l)
);
},
{
closed = 1;
nodes = (
(36,-6,o),
(36,152,o),
(36,276,qs),
(36,468,o),
(36,616,o),
(112,616,qs),
(132,616,o),
(146,616,q),
(146,594,l),
(119,594,o),
(103,594,qs),
(59,594,o),
(58,476,o),
(58,276,qs),
(58,152,o),
(60,16,o),
(86,16,qs),
(108,16,o),
(134,78,o),
(134,192,q),
(154,192,l),
(154,76,o),
(120,-6,o),
(86,-6,qs)
);
},
{
alignment = -1;
pos = (100,0);
ref = e;
}
);
width = 300;
},
{
anchors = (
{
name = bottom;
pos = (568,0);
},
{
name = top;
pos = (568,1200);
}
);
layerId = "BA0CA162-2A9B-49EE-921D-3B4346C7D39F";
shapes = (
{
closed = 1;
nodes = (
(467,182,l),
(401,182,l),
(401,789,ls),
(401,921,o),
(401,985,o),
(387,985,qs),
(373,985,o),
(373,919,o),
(373,720,q),
(23,720,l),
(23,919,o),
(23,1211,o),
(387,1211,qs),
(749,1211,o),
(749,919,o),
(749,775,qs),
(749,567,l)
);
},
{
closed = 1;
nodes = (
(145,-10,o),
(11,130,o),
(11,338,qs),
(11,552,o),
(133,672,o),
(257,672,qs),
(333,672,o),
(409,672,q),
(409,442,l),
(407,442,o),
(395,442,qs),
(373,442,o),
(373,390,o),
(373,324,qs),
(373,278,o),
(373,214,o),
(387,214,qs),
(401,214,o),
(401,278,o),
(401,450,q),
(607,314,l),
(609,148,o),
(495,-10,o),
(261,-10,qs)
);
},
{
alignment = -1;
pos = (389,0);
ref = e;
}
);
width = 1137;
},
{
anchors = (
{
name = bottom;
pos = (1713,0);
},
{
name = top;
pos = (1727,1172);
}
);
layerId = "C75D3228-2D13-4E9D-9829-45195F4951D0";
shapes = (
{
closed = 1;
nodes = (
(1502,286,l),
(1432,336,l),
(1432,688,ls),
(1432,757,o),
(1226,838,o),
(1064,838,qs),
(922,838,o),
(739,802,o),
(674,760,q),
(161,1014,l),
(278,1073,o),
(729,1182,o),
(1058,1182,qs),
(1392,1182,o),
(1914,940,o),
(1914,624,qs),
(1914,286,l)
);
},
{
closed = 1;
nodes = (
(510,-19,o),
(88,188,o),
(88,362,qs),
(88,568,o),
(535,716,o),
(844,716,qs),
(1076,716,o),
(1456,716,q),
(1456,442,l),
(1194,442,o),
(1018,442,qs),
(818,442,o),
(664,406,o),
(664,374,qs),
(664,344,o),
(789,298,o),
(998,298,qs),
(1206,298,o),
(1437,408,o),
(1437,475,q),
(1727,340,l),
(1693,162,o),
(1176,-19,o),
(830,-19,qs)
);
},
{
alignment = -1;
pos = (1344,0);
ref = e;
}
);
width = 3490;
},
{
anchors = (
{
name = bottom;
pos = (1497,0);
},
{
name = top;
pos = (1505,1172);
}
);
layerId = "71977205-6510-4B11-BB00-17BACA883C8F";
shapes = (
{
closed = 1;
nodes = (
(1457,595,l),
(1457,610,l),
(1457,656,ls),
(1457,906,o),
(1121,1156,o),
(839,1156,qs),
(525,1156,o),
(173,929,o),
(173,791,q),
(147,791,l),
(147,942,o),
(515,1178,o),
(839,1178,qs),
(1131,1178,o),
(1479,917,o),
(1479,669,qs),
(1479,596,l)
);
},
{
closed = 1;
nodes = (
(439,-11,o),
(142,160,o),
(142,311,qs),
(142,455,o),
(435,603,o),
(786,603,qs),
(1069,603,o),
(1462,603,q),
(1462,581,l),
(1059,581,o),
(788,581,qs),
(458,581,o),
(166,449,o),
(166,311,qs),
(166,174,o),
(446,11,o),
(742,11,qs),
(1060,11,o),
(1457,263,o),
(1457,582,q),
(1479,582,l),
(1479,248,o),
(1068,-11,o),
(742,-11,qs)
);
},
{
alignment = -1;
pos = (1328,0);
ref = e;
}
);
width = 3159;
}
);
metricLeft = a;
metricRight = e;
unicode = 230;
},
{
color = 6;
glyphname = b;
kernLeft = h;
kernRight = o;
lastChange = "2023-03-03 14:59:49 +0000";
layers = (
{
anchors = (
{
name = bottom;
pos = (101,0);
},
{
name = top;
pos = (101,1570);
}
);
layerId = "A1A0948C-E637-4A65-8CCC-05505AD98C44";
shapes = (
{
closed = 1;
nodes = (
(32,1570,l),
(54,1570,l),
(54,52,l),
(52,0,l),
(32,0,l)
);
},
{
closed = 1;
nodes = (
(79,-6,o),
(48,100,o),
(48,150,q),
(54,182,l),
(54,138,o),
(89,16,o),
(110,16,qs),
(138,16,o),
(138,246,o),
(138,602,qs),
(138,960,o),
(138,1190,o),
(110,1190,qs),
(89,1190,o),
(54,1068,o),
(54,1024,q),
(48,1056,l),
(48,1106,o),
(79,1212,o),
(112,1212,qs),
(160,1212,o),
(160,968,o),
(160,602,qs),
(160,238,o),
(160,-6,o),
(112,-6,qs)
);
}
);
width = 200;
},
{
anchors = (
{
name = bottom;
pos = (369,0);
},
{
name = top;
pos = (443,1552);
}
);
layerId = "BA0CA162-2A9B-49EE-921D-3B4346C7D39F";
shapes = (
{
closed = 1;
nodes = (
(12,1570,l),
(356,1570,l),
(356,168,l),
(296,0,l),
(12,0,l)
);
},
{
closed = 1;
nodes = (
(402,-5,o),
(186,142,o),
(186,342,q),
(356,464,l),
(356,330,o),
(356,244,o),
(370,244,qs),
(384,244,o),
(384,330,o),
(384,602,qs),
(384,865,o),
(384,955,o),
(370,955,qs),
(356,955,o),
(356,865,o),
(356,739,q),
(186,857,l),
(186,1057,o),
(402,1207,o),
(520,1207,qs),
(726,1207,o),
(726,818,o),
(726,602,qs),
(726,386,o),
(726,-5,o),
(520,-5,qs)
);
}
);
width = 738;
},
{
anchors = (
{
name = bottom;
pos = (1184,0);
},
{
name = top;
pos = (1187,1570);
}
);
layerId = "C75D3228-2D13-4E9D-9829-45195F4951D0";
shapes = (
{
closed = 1;
nodes = (
(135,1570,l),
(695,1570,l),
(695,156,l),
(675,0,l),
(135,0,l)
);
},
{
closed = 1;
nodes = (
(940,-10,o),
(461,237,o),
(461,302,q),
(693,542,l),
(693,482,o),
(952,352,o),
(1109,352,qs),
(1285,352,o),
(1477,479,o),
(1477,586,qs),
(1477,693,o),
(1285,820,o),
(1109,820,qs),
(952,820,o),
(693,690,o),
(693,630,q),
(461,870,l),
(461,935,o),
(940,1182,o),
(1279,1182,qs),
(1603,1182,o),
(2047,900,o),
(2047,590,qs),
(2047,280,o),
(1603,-10,o),
(1279,-10,qs)
);
}
);
width = 2157;
},
{
anchors = (
{
name = bottom;
pos = (917,0);
},
{
name = top;
pos = (916,1570);
}
);
layerId = "71977205-6510-4B11-BB00-17BACA883C8F";
shapes = (
{
closed = 1;
nodes = (
(210,1570,l),
(232,1570,l),
(232,370,l),
(232,0,l),
(210,0,l)
);
},
{
closed = 1;
nodes = (
(628,-10,o),
(225,270,o),
(225,392,q),
(231,469,l),
(231,293,o),
(640,12,o),
(934,12,qs),
(1228,12,o),
(1616,306,o),
(1616,586,qs),
(1616,866,o),
(1228,1160,o),
(934,1160,qs),
(640,1160,o),
(231,879,o),
(231,703,q),
(225,780,l),
(225,902,o),
(628,1182,o),
(934,1182,qs),
(1238,1182,o),
(1640,876,o),
(1640,586,qs),
(1640,296,o),
(1238,-10,o),
(934,-10,qs)
);
}
);
width = 1840;
}
);
metricLeft = h;
metricRight = o;
unicode = 98;
},
{
color = 6;
glyphname = c;
kernLeft = o;
kernRight = c;
lastChange = "2023-03-03 14:59:49 +0000";
layers = (
{
anchors = (
{
name = bottom;
pos = (99,0);
},
{
name = top;
pos = (94,1200);
}
);
layerId = "A1A0948C-E637-4A65-8CCC-05505AD98C44";
shapes = (
{
closed = 1;
nodes = (
(34,-6,o),
(34,323,o),
(34,601,qs),
(34,943,o),
(34,1212,o),
(94,1212,qs),
(154,1212,o),
(154,943,o),
(154,737,q),
(132,737,l),
(132,937,o),
(132,1190,o),
(94,1190,qs),
(56,1190,o),
(56,937,o),
(56,601,qs),
(56,329,o),
(56,16,o),
(94,16,qs),
(132,16,o),
(132,329,o),
(132,465,q),
(154,465,l),
(154,323,o),
(154,-6,o),
(94,-6,qs)
);
}
);
width = 198;
},
{
anchors = (
{
name = bottom;
pos = (375,0);
},
{
name = top;
pos = (375,1200);
}
);
layerId = "BA0CA162-2A9B-49EE-921D-3B4346C7D39F";
shapes = (
{
closed = 1;
nodes = (
(12,-10,o),
(12,336,o),
(12,596,qs),
(12,856,o),
(12,1211,o),
(372,1211,qs),
(736,1211,o),
(736,852,o),
(736,642,q),
(386,642,l),
(386,865,o),
(386,955,o),
(372,955,qs),
(358,955,o),
(358,865,o),
(358,596,qs),
(358,334,o),
(358,244,o),
(372,244,qs),
(386,244,o),
(386,334,o),
(386,550,q),
(736,550,l),
(736,350,o),
(736,-10,o),
(372,-10,qs)
);
}
);
width = 750;
},
{
anchors = (
{
name = bottom;
pos = (1019,0);
},
{
name = top;
pos = (1019,1172);
}
);
layerId = "C75D3228-2D13-4E9D-9829-45195F4951D0";
shapes = (
{
closed = 1;
nodes = (
(620,-16,o),
(62,272,o),
(62,582,qs),
(62,892,o),
(620,1182,o),
(1026,1182,qs),
(1328,1182,o),
(1818,1030,o),
(1868,982,q),
(1418,698,l),
(1398,725,o),
(1180,820,o),
(1026,820,qs),
(876,820,o),
(636,700,o),
(636,582,qs),
(636,464,o),
(876,344,o),
(1026,344,qs),
(1180,344,o),
(1398,439,o),
(1418,466,q),
(1868,170,l),
(1818,122,o),
(1328,-16,o),
(1026,-16,qs)
);
}
);
width = 1978;
},
{
anchors = (
{
name = bottom;
pos = (892,0);
},
{
name = top;
pos = (860,1168);
}
);
layerId = "71977205-6510-4B11-BB00-17BACA883C8F";
shapes = (
{
closed = 1;
nodes = (
(531,-11,o),
(94,275,o),
(94,584,qs),
(94,883,o),
(531,1177,o),
(860,1177,qs),
(1180,1177,o),
(1553,935,o),
(1553,789,q),
(1529,789,l),
(1529,920,o),
(1171,1155,o),
(860,1155,qs),
(534,1155,o),
(118,865,o),
(118,584,qs),
(118,293,o),
(539,11,o),
(860,11,qs),
(1170,11,o),
(1529,236,o),
(1529,379,q),
(1553,379,l),
(1553,223,o),
(1178,-11,o),
(860,-11,qs)
);
}
);
width = 1783;
}
);
unicode = 99;
},
{
color = 6;
glyphname = d;
kernLeft = o;
kernRight = l;
lastChange = "2023-03-03 14:59:49 +0000";
layers = (
{
anchors = (
{
name = bottom;
pos = (103,0);
},
{
name = center;
pos = (150,1462);
},
{
name = top;
pos = (86,1345);
},
{
name = topright;
pos = (194,1570);
}
);
layerId = "A1A0948C-E637-4A65-8CCC-05505AD98C44";
shapes = (
{
closed = 1;
nodes = (
(140,72,l),
(140,1570,l),
(162,1570,l),
(162,0,l),
(142,0,l)
);
},
{
closed = 1;
nodes = (
(34,-6,o),
(34,238,o),
(34,602,qs),
(34,968,o),
(34,1212,o),
(82,1212,qs),
(115,1212,o),
(146,1106,o),
(146,1056,q),
(140,1024,l),
(140,1068,o),
(105,1190,o),
(84,1190,qs),
(56,1190,o),
(56,960,o),
(56,602,qs),
(56,246,o),
(56,16,o),
(84,16,qs),
(105,16,o),
(140,138,o),
(140,182,q),
(146,150,l),
(146,100,o),
(115,-6,o),
(82,-6,qs)
);
}
);
width = 206;
},
{
anchors = (
{
name = bottom;
pos = (369,0);
},
{
name = center;
pos = (526,1382);
},
{
name = top;
pos = (210,1431);
},
{
name = topright;
pos = (739,1570);
}
);
layerId = "BA0CA162-2A9B-49EE-921D-3B4346C7D39F";
shapes = (
{
closed = 1;
nodes = (
(382,168,l),
(382,1570,l),
(726,1570,l),
(726,0,l),
(442,0,l)
);
},
{
closed = 1;
nodes = (
(12,-5,o),
(12,386,o),
(12,602,qs),
(12,818,o),
(12,1207,o),
(218,1207,qs),
(336,1207,o),
(552,1057,o),
(552,857,q),
(382,739,l),
(382,865,o),
(382,955,o),
(368,955,qs),
(354,955,o),
(354,865,o),
(354,602,qs),
(354,334,o),
(354,244,o),
(368,244,qs),
(382,244,o),
(382,334,o),
(382,464,q),
(552,342,l),
(552,142,o),
(336,-5,o),
(218,-5,qs)
);
}
);
width = 738;
},
{
anchors = (
{
name = bottom;
pos = (1094,0);
},
{
name = center;
pos = (1613,1356);
},
{
name = top;
pos = (870,1172);
},
{
name = topright;
pos = (2089,1570);
}
);
layerId = "C75D3228-2D13-4E9D-9829-45195F4951D0";
shapes = (
{
closed = 1;
nodes = (
(1432,156,l),
(1432,1570,l),
(1988,1570,l),
(1988,0,l),
(1432,0,l)
);
},
{
closed = 1;
nodes = (
(524,-10,o),
(80,280,o),
(80,590,qs),
(80,900,o),
(524,1182,o),
(848,1182,qs),
(1187,1182,o),
(1666,935,o),
(1666,870,q),
(1434,630,l),
(1434,690,o),
(1175,820,o),
(1018,820,qs),
(842,820,o),
(650,693,o),
(650,586,qs),
(650,479,o),
(842,352,o),
(1018,352,qs),
(1175,352,o),
(1434,482,o),
(1434,542,q),
(1666,302,l),
(1666,237,o),
(1187,-10,o),
(848,-10,qs)
);
}
);
width = 2188;
},
{
anchors = (
{
name = bottom;
pos = (956,0);
},
{
name = center;
pos = (1336,1381);
},
{
name = top;
pos = (859,1167);
},
{
name = topright;
pos = (1818,1570);
}
);
layerId = "71977205-6510-4B11-BB00-17BACA883C8F";
shapes = (
{
closed = 1;
nodes = (
(1529,366,l),
(1529,1570,l),
(1551,1570,l),
(1551,0,l),
(1529,0,l)
);
},
{
closed = 1;
nodes = (
(533,-10,o),
(121,286,o),
(121,586,qs),
(121,886,o),
(533,1182,o),
(837,1182,qs),
(1143,1182,o),
(1536,902,o),
(1536,780,q),
(1530,703,l),
(1530,879,o),
(1131,1160,o),
(837,1160,qs),
(543,1160,o),
(145,876,o),
(145,586,qs),
(145,296,o),
(543,12,o),
(837,12,qs),
(1131,12,o),
(1530,293,o),
(1530,469,q),
(1536,392,l),
(1536,270,o),
(1143,-10,o),
(837,-10,qs)
);
}
);
width = 1751;
}
);
metricLeft = o;
unicode = 100;
},
{
color = 6;
glyphname = eth;
kernLeft = o;
kernRight = o;
lastChange = "2023-03-03 14:59:49 +0000";
layers = (
{
layerId = "A1A0948C-E637-4A65-8CCC-05505AD98C44";
shapes = (
{
closed = 1;
nodes = (
(34,-6,o),
(34,248,o),
(34,596,qs),
(34,944,o),
(34,1205,o),
(88,1205,qs),
(142,1205,o),
(142,944,o),
(142,596,qs),
(142,248,o),
(142,-6,o),
(88,-6,qs)
);
},
{
closed = 1;
nodes = (
(120,16,o),
(120,254,o),
(120,596,qs),
(120,938,o),
(120,1183,o),
(88,1183,qs),
(56,1183,o),
(56,938,o),
(56,596,qs),
(56,254,o),
(56,16,o),
(88,16,qs)
);
},
{
closed = 1;
nodes = (
(124,868,l),
(124,1479,o),
(104,1494,o),
(48,1532,c),
(58,1552,l),
(114,1518,o),
(142,1492,o),
(142,1056,cs),
(142,992,o),
(142,938,o),
(142,868,c)
);
},
{
closed = 1;
nodes = (
(48,1404,l),
(136,1546,l),
(152,1536,l),
(64,1390,l)
);
}
);
width = 192;
},
{
layerId = "BA0CA162-2A9B-49EE-921D-3B4346C7D39F";
shapes = (
{
closed = 1;
nodes = (
(12,-10,o),
(12,375,o),
(12,601,qs),
(12,827,o),
(12,1211,o),
(370,1211,qs),
(728,1211,o),
(728,827,o),
(728,601,qs),
(728,375,o),
(728,-10,o),
(370,-10,qs)
);
},
{
closed = 1;
nodes = (
(384,244,o),
(384,339,o),
(384,601,qs),
(384,863,o),
(384,957,o),
(370,957,qs),
(356,957,o),
(356,863,o),
(356,601,qs),
(356,339,o),
(356,244,o),
(370,244,qs)
);
},
{
closed = 1;
nodes = (
(420,856,l),
(420,1222,o),
(374,1361,o),
(128,1361,c),
(190,1585,l),
(442,1569,o),
(728,1401,o),
(728,988,cs),
(728,920,o),
(728,774,o),
(728,686,c)
);
},
{
closed = 1;
nodes = (
(190,1289,l),
(364,1619,l),
(508,1575,l),
(328,1241,l)
);
}
);
width = 738;
},
{
layerId = "C75D3228-2D13-4E9D-9829-45195F4951D0";
shapes = (
{
closed = 1;
nodes = (
(642,-10,o),
(80,286,o),
(80,592,qs),
(80,898,o),
(602,1181,o),
(1028,1181,qs),
(1342,1181,o),
(2054,799,o),
(2054,602,qs),
(2054,286,o),
(1494,-10,o),
(1068,-10,qs)
);
},
{
closed = 1;
nodes = (
(1268,352,o),
(1496,488,o),
(1496,592,qs),
(1496,696,o),
(1268,839,o),
(1068,839,qs),
(868,839,o),
(638,696,o),
(638,592,qs),
(638,488,o),
(868,352,o),
(1068,352,qs)
);
},
{
closed = 1;
nodes = (
(1549,788,l),
(1549,1196,o),
(1209,1303,o),
(436,1303,c),
(554,1597,l),
(1116,1597,o),
(1405,1509,o),
(1679,1352,cs),
(1933,1206,o),
(2054,902,o),
(2054,602,c)
);
},
{
closed = 1;
nodes = (
(712,1213,l),
(956,1677,l),
(1280,1633,l),
(1060,1185,l)
);
}
);
width = 2164;
},
{
layerId = "71977205-6510-4B11-BB00-17BACA883C8F";
shapes = (
{
closed = 1;
nodes = (
(531,-11,o),
(156,315,o),
(156,584,qs),
(156,853,o),
(531,1177,o),
(861,1177,qs),
(1191,1177,o),
(1566,863,o),
(1566,584,qs),
(1566,305,o),
(1191,-11,o),
(861,-11,qs)
);
},
{
closed = 1;
nodes = (
(1183,11,o),
(1542,320,o),
(1542,584,qs),
(1542,848,o),
(1183,1155,o),
(861,1155,qs),
(539,1155,o),
(180,838,o),
(180,584,qs),
(180,330,o),
(539,11,o),
(861,11,qs)
);
},
{
closed = 1;
nodes = (
(1544,584,l),
(1544,1247,o),
(1083,1492,o),
(554,1498,c),
(557,1518,l),
(1045,1510,o),
(1285,1319,o),
(1413,1142,cs),
(1523,989,o),
(1566,776,o),
(1566,584,c)
);
},
{
closed = 1;
nodes = (
(762,1361,l),
(858,1576,l),
(879,1569,l),
(783,1351,l)
);
}
);
width = 1835;
}
);
unicode = 240;
},
{
color = 3;
glyphname = dcaron;
kernLeft = o;
kernRight = l;
lastChange = "2023-03-03 14:59:49 +0000";
layers = (
{
layerId = "A1A0948C-E637-4A65-8CCC-05505AD98C44";
shapes = (
{
closed = 1;
nodes = (
(218,1570,l),
(240,1570,l),
(231,1400,l),
(213,1400,l)
);
},
{
ref = d;
}
);
width = 240;
},
{
layerId = "BA0CA162-2A9B-49EE-921D-3B4346C7D39F";
shapes = (
{
closed = 1;
nodes = (
(816,1570,l),
(1038,1570,l),
(996,1230,l),
(776,1230,l)
);
},
{
ref = d;
}
);
width = 1038;
},
{
layerId = "C75D3228-2D13-4E9D-9829-45195F4951D0";
shapes = (
{
closed = 1;
nodes = (
(2182,1570,l),
(2536,1570,l),
(2402,1100,l),
(2086,1100,l)
);
},
{
ref = d;
}
);
width = 2536;
},
{
layerId = "71977205-6510-4B11-BB00-17BACA883C8F";
shapes = (
{
closed = 1;
nodes = (
(1683,1570,l),
(1717,1570,l),
(1668,1307,l),
(1640,1307,l)
);
},
{
ref = d;
}
);
width = 1707;
}
);
metricLeft = d;
unicode = 271;
},
{
color = 3;
glyphname = dcroat;
kernLeft = o;
kernRight = l;
lastChange = "2023-03-03 14:59:49 +0000";
layers = (
{
layerId = "A1A0948C-E637-4A65-8CCC-05505AD98C44";
shapes = (
{
closed = 1;
nodes = (
(41,1441,l),
(207,1441,l),
(207,1419,l),
(41,1419,l)
);
},
{
ref = d;
}
);
width = 206;
},
{
layerId = "BA0CA162-2A9B-49EE-921D-3B4346C7D39F";
shapes = (
{
closed = 1;
nodes = (
(248,1487,l),
(768,1487,l),
(768,1303,l),
(248,1303,l)
);
},
{
ref = d;
}
);
width = 738;
},
{
layerId = "C75D3228-2D13-4E9D-9829-45195F4951D0";
shapes = (
{
closed = 1;
nodes = (
(848,1470,l),
(2190,1470,l),
(2190,1232,l),
(848,1232,l)
);
},
{
ref = d;
}
);
width = 2190;
},
{
layerId = "71977205-6510-4B11-BB00-17BACA883C8F";
shapes = (
{
closed = 1;
nodes = (
(1014,1399,l),
(1751,1399,l),
(1751,1377,l),
(1014,1377,l)
);
},
{
ref = d;
}
);
width = 1751;
}
);
unicode = 273;
},
{
color = 6;
glyphname = e;
kernLeft = o;
kernRight = o;
lastChange = "2023-03-03 14:59:49 +0000";
layers = (
{
anchors = (
{
name = bottom;
pos = (100,0);
},
{
name = ogonek;
pos = (134,25);
},
{
name = top;
pos = (96,1200);
}
);
layerId = "A1A0948C-E637-4A65-8CCC-05505AD98C44";
shapes = (
{
closed = 1;
nodes = (
(34,-6,o),
(34,328,o),
(34,602,qs),
(34,945,o),
(34,1211,o),
(96,1211,qs),
(158,1211,o),
(158,955,o),
(158,602,q),
(158,598,o),
(158,592,q),
(48,592,l),
(48,615,l),
(144,615,l),
(136,604,l),
(136,941,o),
(136,1189,o),
(96,1189,qs),
(56,1189,o),
(56,941,o),
(56,604,qs),
(56,332,o),
(56,16,o),
(92,16,q),
(92,-6,l)
);
},
{
closed = 1;
nodes = (
(111,16,o),
(132,86,o),
(136,323,o),
(136,460,q),
(158,460,l),
(158,310,o),
(151,72,o),
(124,-6,o),
(92,-6,q),
(92,16,l)
);
}
);
width = 200;
},
{
anchors = (
{
name = bottom;
pos = (376,0);
},
{
name = ogonek;
pos = (655,69);
},
{
name = top;
pos = (376,1200);
}
);
layerId = "BA0CA162-2A9B-49EE-921D-3B4346C7D39F";
shapes = (
{
closed = 1;
nodes = (
(12,-10,o),
(12,356,o),
(12,606,qs),
(12,856,o),
(12,1212,o),
(374,1212,qs),
(736,1212,o),
(736,856,o),
(736,606,qs),
(736,542,o),
(736,486,q),
(332,486,l),
(332,710,l),
(408,710,l),
(388,682,l),
(388,866,o),
(388,956,o),
(374,956,qs),
(360,956,o),
(360,866,o),
(360,606,qs),
(360,330,o),
(360,244,o),
(372,244,q),
(372,-10,l)
);
},
{
closed = 1;
nodes = (
(380,244,o),
(386,274,o),
(388,361,o),
(388,425,q),
(736,425,l),
(736,237,o),
(686,78,o),
(536,-10,o),
(372,-10,q),
(372,244,l)
);
}
);
width = 748;
},
{
anchors = (
{
name = bottom;
pos = (1073,0);
},
{
name = ogonek;
pos = (1684,44);
},
{
name = top;
pos = (1058,1172);
}
);
layerId = "C75D3228-2D13-4E9D-9829-45195F4951D0";
shapes = (
{
closed = 1;
nodes = (
(664,-16,o),
(80,276,o),
(80,576,qs),
(80,876,o),
(660,1184,o),
(1058,1184,qs),
(1478,1184,o),
(2034,859,o),
(2034,576,qs),
(2034,492,o),
(2016,434,q),
(556,434,l),
(556,748,l),
(1494,748,l),
(1488,702,l),
(1488,758,o),
(1254,864,o),
(1060,864,qs),
(866,864,o),
(604,726,o),
(604,576,qs),
(604,434,o),
(874,307,o),
(1078,307,q),
(1078,-16,l)
);
},
{
closed = 1;
nodes = (
(1200,307,o),
(1338,325,o),
(1432,347,o),
(1482,370,q),
(1939,137,l),
(1887,100,o),
(1601,19,o),
(1318,-16,o),
(1078,-16,q),
(1078,307,l)
);
}
);
width = 2146;
},
{
anchors = (
{
name = bottom;
pos = (874,0);
},
{
name = ogonek;
pos = (1342,80);
},
{
name = top;
pos = (878,1168);
}
);
layerId = "71977205-6510-4B11-BB00-17BACA883C8F";
shapes = (
{
closed = 1;
nodes = (
(544,-11,o),
(130,285,o),
(130,593,qs),
(130,888,o),
(567,1178,o),
(878,1178,qs),
(1200,1178,o),
(1614,889,o),
(1614,604,qs),
(1614,593,o),
(1614,580,q),
(142,580,l),
(142,603,l),
(1600,603,l),
(1589,592,l),
(1589,879,o),
(1191,1156,o),
(878,1156,qs),
(573,1156,o),
(154,873,o),
(154,592,qs),
(154,302,o),
(548,11,o),
(878,11,q),
(878,-11,l)
);
},
{
closed = 1;
nodes = (
(1065,11,o),
(1387,107,o),
(1558,274,o),
(1578,375,q),
(1602,375,l),
(1582,268,o),
(1406,91,o),
(1074,-11,o),
(878,-11,q),
(878,11,l)
);
}
);
width = 1831;
}
);
unicode = 101;
},
{
color = 6;
glyphname = schwa;
kernLeft = schwa;
kernRight = schwa;
lastChange = "2023-03-03 14:59:49 +0000";
layers = (
{
anchors = (
{
name = bottom;
pos = (104,0);
},
{
name = ogonek;
pos = (66,1175);
},
{
name = top;
pos = (100,1200);
}
);
layerId = "A1A0948C-E637-4A65-8CCC-05505AD98C44";
shapes = (
{
closed = 1;
nodes = (
(166,1206,o),
(166,872,o),
(166,598,qs),
(166,255,o),
(166,-11,o),
(104,-11,qs),
(42,-11,o),
(42,245,o),
(42,598,q),
(42,602,o),
(42,608,q),
(152,608,l),
(152,585,l),
(56,585,l),
(64,596,l),
(64,259,o),
(64,11,o),
(104,11,qs),
(144,11,o),
(144,259,o),
(144,596,qs),
(144,868,o),
(144,1184,o),
(108,1184,q),
(108,1206,l)
);
},
{
closed = 1;
nodes = (
(89,1184,o),
(68,1114,o),
(64,877,o),
(64,740,q),
(42,740,l),
(42,890,o),
(49,1128,o),
(76,1206,o),
(108,1206,q),
(108,1184,l)
);
}
);
width = 200;
},
{
anchors = (
{
name = bottom;
pos = (372,0);
},
{
name = ogonek;
pos = (93,1131);
},
{
name = top;
pos = (372,1200);
}
);
layerId = "BA0CA162-2A9B-49EE-921D-3B4346C7D39F";
shapes = (
{
closed = 1;
nodes = (
(736,1210,o),
(736,844,o),
(736,594,qs),
(736,344,o),
(736,-12,o),
(374,-12,qs),
(12,-12,o),
(12,344,o),
(12,594,qs),
(12,658,o),
(12,714,q),
(416,714,l),
(416,490,l),
(340,490,l),
(360,518,l),
(360,334,o),
(360,244,o),
(374,244,qs),
(388,244,o),
(388,334,o),
(388,594,qs),
(388,870,o),
(388,956,o),
(376,956,q),
(376,1210,l)
);
},
{
closed = 1;
nodes = (
(368,956,o),
(362,926,o),
(360,839,o),
(360,775,q),
(12,775,l),
(12,963,o),
(62,1122,o),
(212,1210,o),
(376,1210,q),
(376,956,l)
);
}
);
width = 748;
},
{
anchors = (
{
name = bottom;
pos = (953,4);
},
{
name = ogonek;
pos = (489,1092);
},
{
name = top;
pos = (957,1172);
}
);
layerId = "71977205-6510-4B11-BB00-17BACA883C8F";
shapes = (
{
closed = 1;
nodes = (
(1287,1183,o),
(1701,887,o),
(1701,579,qs),
(1701,284,o),
(1264,-6,o),
(953,-6,qs),
(631,-6,o),
(217,283,o),
(217,568,qs),
(217,579,o),
(217,592,q),
(1689,592,l),
(1689,569,l),
(231,569,l),
(242,580,l),
(242,293,o),
(640,16,o),
(953,16,qs),
(1258,16,o),
(1677,299,o),
(1677,580,qs),
(1677,870,o),
(1283,1161,o),
(953,1161,q),
(953,1183,l)
);
},
{
closed = 1;
nodes = (
(766,1161,o),
(444,1065,o),
(273,898,o),
(253,797,q),
(229,797,l),
(249,904,o),
(425,1081,o),
(757,1183,o),
(953,1183,q),
(953,1161,l)
);
}
);
width = 1831;
},
{
anchors = (
{
name = bottom;
pos = (1088,0);
},
{
name = ogonek;
pos = (462,1128);
},
{
name = top;
pos = (1073,1172);
}
);
layerId = "C75D3228-2D13-4E9D-9829-45195F4951D0";
shapes = (
{
closed = 1;
nodes = (
(1482,1188,o),
(2066,896,o),
(2066,596,qs),
(2066,296,o),
(1486,-12,o),
(1088,-12,qs),
(668,-12,o),
(112,313,o),
(112,596,qs),
(112,680,o),
(130,738,q),
(1590,738,l),
(1590,424,l),
(652,424,l),
(658,470,l),
(658,414,o),
(892,308,o),
(1086,308,qs),
(1280,308,o),
(1542,446,o),
(1542,596,qs),
(1542,738,o),
(1272,865,o),
(1068,865,q),
(1068,1188,l)
);
},
{
closed = 1;
nodes = (
(946,865,o),
(808,847,o),
(714,825,o),
(664,802,q),
(207,1035,l),
(259,1072,o),
(545,1153,o),
(828,1188,o),
(1068,1188,q),
(1068,865,l)
);
}
);
width = 2146;
}
);
unicode = 601;
},
{
color = 6;
glyphname = f;
kernLeft = f;
kernRight = f;
lastChange = "2023-03-03 14:59:49 +0000";
layers = (
{
anchors = (
{
name = bottom;
pos = (67,0);
},
{
name = top;
pos = (78,1570);
}
);
layerId = "A1A0948C-E637-4A65-8CCC-05505AD98C44";
shapes = (
{
closed = 1;
nodes = (
(56,1178,l),
(8,1178,l),
(8,1200,l),
(56,1200,l),
(56,1437,ls),
(56,1499,o),
(96,1570,o),
(134,1570,qs),
(138,1570,l),
(138,1548,l),
(134,1548,ls),
(108,1548,o),
(78,1498,o),
(78,1435,qs),
(78,1200,l),
(138,1200,l),
(138,1178,l),
(78,1178,l),
(78,0,l),
(56,0,l)
);
}
);
width = 156;
},
{
anchors = (
{
name = bottom;
pos = (289,0);
},
{
name = top;
pos = (290,1570);
}
);
layerId = "BA0CA162-2A9B-49EE-921D-3B4346C7D39F";
shapes = (
{
closed = 1;
nodes = (
(106,950,l),
(12,950,l),
(12,1200,l),
(106,1200,l),
(106,1224,ls),
(106,1378,o),
(300,1570,o),
(484,1570,qs),
(566,1570,l),
(566,1320,l),
(544,1320,ls),
(496,1320,o),
(450,1274,o),
(450,1222,qs),
(450,1200,l),
(566,1200,l),
(566,950,l),
(450,950,l),
(450,0,l),
(106,0,l)
);
}
);
width = 578;
},
{
anchors = (
{
name = bottom;
pos = (836,0);
},
{
name = top;
pos = (836,1580);
}
);
layerId = "C75D3228-2D13-4E9D-9829-45195F4951D0";
shapes = (
{
closed = 1;
nodes = (
(420,810,l),
(28,810,l),
(28,1172,l),
(420,1172,l),
(420,1173,l),
(420,1425,o),
(937,1590,o),
(1456,1590,qs),
(1468,1590,l),
(1468,1252,l),
(1420,1252,ls),
(1144,1252,o),
(978,1227,o),
(978,1173,q),
(978,1172,l),
(1468,1172,l),
(1468,810,l),
(978,810,l),
(978,0,l),
(420,0,l)
);
}
);
width = 1598;
},
{
anchors = (
{
name = bottom;
pos = (786,0);
},
{
name = top;
pos = (745,1570);
}
);
layerId = "71977205-6510-4B11-BB00-17BACA883C8F";
shapes = (
{
closed = 1;
nodes = (
(502,1146,l),
(67,1146,l),
(67,1168,l),
(502,1168,l),
(502,1170,l),
(502,1424,o),
(922,1582,o),
(1192,1582,qs),
(1240,1582,l),
(1240,1560,l),
(1187,1560,ls),
(926,1560,o),
(524,1414,o),
(524,1170,q),
(524,1168,l),
(1191,1168,l),
(1191,1146,l),
(524,1146,l),
(524,0,l),
(502,0,l)
);
}
);
width = 1430;
}
);
unicode = 102;
},
{
color = 6;
glyphname = g;
kernLeft = o;
kernRight = u;
lastChange = "2023-03-03 14:59:49 +0000";
layers = (
{
anchors = (
{
name = bottom;
pos = (98,-458);
},
{
name = top;
pos = (105,1200);
}
);
layerId = "A1A0948C-E637-4A65-8CCC-05505AD98C44";
shapes = (
{
closed = 1;
nodes = (
(62,-458,o),
(34,-346,o),
(34,-127,q),
(56,-127,l),
(56,-260,o),
(62,-391,o),
(82,-438,o),
(98,-438,qs),
(121,-438,o),
(140,-327,o),
(140,-126,qs),
(140,1086,l),
(140,1200,l),
(162,1200,l),
(162,-128,ls),
(162,-273,o),
(147,-415,o),
(121,-458,o),
(98,-458,qs)
);
},
{
closed = 1;
nodes = (
(34,-6,o),
(34,238,o),
(34,602,qs),
(34,968,o),
(34,1212,o),
(82,1212,qs),
(115,1212,o),
(146,1106,o),
(146,1056,q),
(140,1024,l),
(140,1068,o),
(105,1190,o),
(84,1190,qs),
(56,1190,o),
(56,960,o),
(56,602,qs),
(56,246,o),
(56,16,o),
(84,16,qs),
(105,16,o),
(140,138,o),
(140,182,q),
(149,150,l),
(149,88,o),
(115,-6,o),
(82,-6,qs)
);
}
);
width = 196;
},
{
anchors = (
{
name = bottom;
pos = (366,-460);
},
{
name = top;
pos = (369,1200);
}
);
layerId = "BA0CA162-2A9B-49EE-921D-3B4346C7D39F";
shapes = (
{
closed = 1;
nodes = (
(206,-460,o),
(20,-279,o),
(20,-56,q),
(354,-56,l),
(354,-111,o),
(355,-189,o),
(361,-216,o),
(368,-216,qs),
(376,-216,o),
(382,-187,o),
(382,26,qs),
(382,1024,l),
(473,1200,l),
(728,1200,l),
(728,28,ls),
(728,-170,o),
(648,-382,o),
(493,-460,o),
(366,-460,qs)
);
},
{
closed = 1;
nodes = (
(12,-5,o),
(12,386,o),
(12,602,qs),
(12,818,o),
(12,1207,o),
(218,1207,qs),
(336,1207,o),
(552,1037,o),
(552,837,q),
(382,739,l),
(382,865,o),
(382,955,o),
(368,955,qs),
(354,955,o),
(354,865,o),
(354,602,qs),
(354,334,o),
(354,244,o),
(368,244,qs),
(382,244,o),
(382,334,o),
(382,464,q),
(552,342,l),
(552,142,o),
(336,-5,o),
(218,-5,qs)
);
}
);
width = 740;
},
{
anchors = (
{
name = bottom;
pos = (1018,-460);
},
{
name = top;
pos = (1066,1172);
}
);
layerId = "C75D3228-2D13-4E9D-9829-45195F4951D0";
shapes = (
{
closed = 1;
nodes = (
(713,-487,o),
(179,-280,o),
(128,-30,q),
(674,-30,l),
(684,-71,o),
(787,-132,o),
(950,-163,o),
(1046,-163,qs),
(1215,-163,o),
(1434,-59,o),
(1434,57,qs),
(1434,896,l),
(1592,1172,l),
(1994,1172,l),
(1994,151,ls),
(1994,-92,o),
(1692,-371,o),
(1313,-487,o),
(1018,-487,q)
);
},
{
closed = 1;
nodes = (
(534,-10,o),
(80,280,o),
(80,590,qs),
(80,900,o),
(524,1182,o),
(848,1182,qs),
(1187,1182,o),
(1666,935,o),
(1666,870,q),
(1434,630,l),
(1434,690,o),
(1175,820,o),
(1018,820,qs),
(842,820,o),
(650,693,o),
(650,586,qs),
(650,479,o),
(842,352,o),
(1018,352,qs),
(1175,352,o),
(1434,482,o),
(1434,542,q),
(1666,302,l),
(1666,237,o),
(1197,-10,o),
(858,-10,qs)
);
}
);
width = 2194;
},
{
anchors = (
{
name = bottom;
pos = (841,-458);
},
{
name = top;
pos = (866,1168);
}
);
layerId = "71977205-6510-4B11-BB00-17BACA883C8F";
shapes = (
{
closed = 1;
nodes = (
(551,-458,o),
(186,-247,o),
(170,-68,q),
(196,-68,l),
(213,-191,o),
(378,-348,o),
(666,-438,o),
(851,-438,qs),
(1160,-438,o),
(1529,-151,o),
(1529,118,qs),
(1529,774,l),
(1529,1168,l),
(1551,1168,l),
(1551,116,ls),
(1551,-76,o),
(1370,-334,o),
(1054,-458,o),
(851,-458,qs)
);
},
{
closed = 1;
nodes = (
(533,-10,o),
(121,286,o),
(121,586,qs),
(121,886,o),
(533,1182,o),
(837,1182,qs),
(1143,1182,o),
(1536,902,o),
(1536,780,q),
(1530,703,l),
(1530,879,o),
(1131,1160,o),
(837,1160,qs),
(543,1160,o),
(145,876,o),
(145,586,qs),
(145,296,o),
(543,12,o),
(837,12,qs),
(1131,12,o),
(1530,293,o),
(1530,469,q),
(1536,392,l),
(1536,270,o),
(1143,-10,o),
(837,-10,qs)
);
}
);
width = 1811;
}
);
metricLeft = o;
unicode = 103;
},
{
color = 6;
glyphname = gcommaaccent;
kernLeft = g;
kernRight = g;
lastChange = "2023-03-03 14:59:49 +0000";
layers = (
{
anchors = (
{
name = bottom;
pos = (98,-458);
},
{
name = top;
pos = (105.344,1422.29);
}
);
layerId = "A1A0948C-E637-4A65-8CCC-05505AD98C44";
shapes = (
{
closed = 1;
nodes = (
(62,-458,o),
(34,-346,o),
(34,-127,q),
(56,-127,l),
(56,-260,o),
(62,-391,o),
(82,-438,o),
(98,-438,qs),
(121,-438,o),
(140,-327,o),
(140,-126,qs),
(140,1086,l),
(140,1200,l),
(162,1200,l),
(162,-128,ls),
(162,-273,o),
(147,-415,o),
(121,-458,o),
(98,-458,qs)
);
},
{
closed = 1;
nodes = (
(34,-6,o),
(34,238,o),
(34,602,qs),
(34,968,o),
(34,1212,o),
(82,1212,qs),
(115,1212,o),
(146,1106,o),
(146,1056,q),
(140,1024,l),
(140,1068,o),
(105,1190,o),
(84,1190,qs),
(56,1190,o),
(56,960,o),
(56,602,qs),
(56,246,o),
(56,16,o),
(84,16,qs),
(105,16,o),
(140,138,o),
(140,182,q),
(149,150,l),
(149,88,o),
(115,-6,o),
(82,-6,qs)
);
},
{
closed = 1;
nodes = (
(130,1422,l),
(151,1422,l),
(85,1250,l),
(49,1250,l)
);
}
);
width = 196;
},
{
anchors = (
{
name = bottom;
pos = (366,-460);
},
{
name = top;
pos = (369.455,1468.969);
}
);
layerId = "BA0CA162-2A9B-49EE-921D-3B4346C7D39F";
shapes = (
{
closed = 1;
nodes = (
(206,-460,o),
(20,-279,o),
(20,-56,q),
(354,-56,l),
(354,-111,o),
(355,-189,o),
(361,-216,o),
(368,-216,qs),
(376,-216,o),
(382,-187,o),
(382,26,qs),
(382,1024,l),
(473,1200,l),
(728,1200,l),
(728,28,ls),
(728,-170,o),
(648,-382,o),
(493,-460,o),
(366,-460,qs)
);
},
{
closed = 1;
nodes = (
(12,-5,o),
(12,386,o),
(12,602,qs),
(12,818,o),
(12,1207,o),
(218,1207,qs),
(336,1207,o),
(552,1037,o),
(552,837,q),
(382,739,l),
(382,865,o),
(382,955,o),
(368,955,qs),
(354,955,o),
(354,865,o),
(354,602,qs),
(354,334,o),
(354,244,o),
(368,244,qs),
(382,244,o),
(382,334,o),
(382,464,q),
(552,342,l),
(552,142,o),
(336,-5,o),
(218,-5,qs)
);
},
{
closed = 1;
nodes = (
(370,1469,l),
(459,1469,l),
(443,1266,l),
(287,1266,l)
);
}
);
width = 740;
},
{
anchors = (
{
name = bottom;
pos = (1018,-460);
},
{
name = top;
pos = (1065.744,1550.996);
}
);
layerId = "C75D3228-2D13-4E9D-9829-45195F4951D0";
shapes = (
{
closed = 1;
nodes = (
(713,-487,o),
(179,-280,o),
(128,-30,q),
(674,-30,l),
(684,-71,o),
(787,-132,o),
(950,-163,o),
(1046,-163,qs),
(1215,-163,o),
(1434,-59,o),
(1434,57,qs),
(1434,896,l),
(1592,1172,l),
(1994,1172,l),
(1994,151,ls),
(1994,-92,o),
(1692,-371,o),
(1313,-487,o),
(1018,-487,q)
);
},
{
closed = 1;
nodes = (
(534,-10,o),
(80,280,o),
(80,590,qs),
(80,900,o),
(524,1182,o),
(848,1182,qs),
(1187,1182,o),
(1666,935,o),
(1666,870,q),
(1434,630,l),
(1434,690,o),
(1175,820,o),
(1018,820,qs),
(842,820,o),
(650,693,o),
(650,586,qs),
(650,479,o),
(842,352,o),
(1018,352,qs),
(1175,352,o),
(1434,482,o),
(1434,542,q),
(1666,302,l),
(1666,237,o),
(1197,-10,o),
(858,-10,qs)
);
},
{
closed = 1;
nodes = (
(1086,1560,l),
(1236,1560,l),
(1168,1280,l),
(940,1280,l)
);
}
);
width = 2194;
},
{
anchors = (
{
name = bottom;
pos = (841,-458);
},
{
name = top;
pos = (866.409,1430.92);
}
);
layerId = "71977205-6510-4B11-BB00-17BACA883C8F";
shapes = (
{
closed = 1;
nodes = (
(551,-458,o),
(186,-247,o),
(170,-68,q),
(196,-68,l),
(213,-191,o),
(378,-348,o),
(666,-438,o),
(851,-438,qs),
(1160,-438,o),
(1529,-151,o),
(1529,118,qs),
(1529,774,l),
(1529,1168,l),
(1551,1168,l),
(1551,116,ls),
(1551,-76,o),
(1370,-334,o),
(1054,-458,o),
(851,-458,qs)
);
},
{
closed = 1;
nodes = (
(533,-10,o),
(121,286,o),
(121,586,qs),
(121,886,o),
(533,1182,o),
(837,1182,qs),
(1143,1182,o),
(1536,902,o),
(1536,780,q),
(1530,703,l),
(1530,879,o),
(1131,1160,o),
(837,1160,qs),
(543,1160,o),
(145,876,o),
(145,586,qs),
(145,296,o),
(543,12,o),
(837,12,qs),
(1131,12,o),
(1530,293,o),
(1530,469,q),
(1536,392,l),
(1536,270,o),
(1143,-10,o),
(837,-10,qs)
);
},
{
closed = 1;
nodes = (
(941,1486,l),
(961,1486,l),
(851,1190,l),
(815,1190,l)
);
}
);
width = 1811;
}
);
unicode = 291;
},
{
color = 6;
glyphname = h;
kernLeft = h;
kernRight = n;
lastChange = "2023-03-03 14:59:49 +0000";
layers = (
{
anchors = (
{
name = bottom;
pos = (101,0);
},
{
name = center;
pos = (39,1462);
},
{
name = top;
pos = (101,1531);
}
);
layerId = "A1A0948C-E637-4A65-8CCC-05505AD98C44";
shapes = (
{
closed = 1;
nodes = (
(32,1570,l),
(54,1570,l),
(54,0,l),
(32,0,l)
);
},
{
closed = 1;
nodes = (
(138,842,ls),
(138,1011,o),
(138,1190,o),
(110,1190,qs),
(89,1190,o),
(54,1068,o),
(54,1024,q),
(48,1056,l),
(48,1106,o),
(79,1212,o),
(112,1212,qs),
(160,1212,o),
(160,1015,o),
(160,832,qs),
(160,0,l),
(138,0,l)
);
}
);
width = 192;
},
{
anchors = (
{
name = bottom;
pos = (369,0);
},
{
name = center;
pos = (181,1382);
},
{
name = top;
pos = (413,1570);
}
);
layerId = "BA0CA162-2A9B-49EE-921D-3B4346C7D39F";
shapes = (
{
closed = 1;
nodes = (
(12,1570,l),
(356,1570,l),
(356,0,l),
(12,0,l)
);
},
{
closed = 1;
nodes = (
(384,637,ls),
(384,863,o),
(384,953,o),
(370,953,qs),
(356,953,o),
(356,863,o),
(356,753,q),
(186,761,l),
(186,972,o),
(384,1207,o),
(532,1207,q),
(726,1207,o),
(726,841,o),
(726,641,qs),
(726,0,l),
(384,0,l)
);
}
);
width = 738;
},
{
anchors = (
{
name = bottom;
pos = (1051,0);
},
{
name = center;
pos = (637,1356);
},
{
name = top;
pos = (1259,1423);
}
);
layerId = "C75D3228-2D13-4E9D-9829-45195F4951D0";
shapes = (
{
closed = 1;
nodes = (
(135,1570,l),
(695,1570,l),
(695,0,l),
(135,0,l)
);
},
{
closed = 1;
nodes = (
(1375,534,ls),
(1375,689,o),
(1229,821,o),
(1087,821,qs),
(927,821,o),
(679,596,o),
(679,439,q),
(409,605,l),
(409,727,o),
(877,1183,o),
(1271,1183,qs),
(1574,1183,o),
(1935,900,o),
(1935,577,qs),
(1935,0,l),
(1375,0,l)
);
}
);
width = 2135;
},
{
anchors = (
{
name = bottom;
pos = (909,0);
},
{
name = center;
pos = (425,1381);
},
{
name = top;
pos = (845,1448);
}
);
layerId = "71977205-6510-4B11-BB00-17BACA883C8F";
shapes = (
{
closed = 1;
nodes = (
(210,1570,l),
(232,1570,l),
(232,0,l),
(210,0,l)
);
},
{
closed = 1;
nodes = (
(1510,642,ls),
(1510,909,o),
(1172,1162,o),
(882,1162,qs),
(596,1162,o),
(232,875,o),
(232,629,q),
(220,690,l),
(220,899,o),
(593,1184,o),
(882,1184,qs),
(1184,1184,o),
(1532,918,o),
(1532,644,qs),
(1532,0,l),
(1510,0,l)
);
}
);
width = 1752;
}
);
metricRight = n;
unicode = 104;
},
{
color = 3;
glyphname = hbar;
kernLeft = h;
kernRight = n;
lastChange = "2023-03-03 14:59:49 +0000";
layers = (
{
layerId = "A1A0948C-E637-4A65-8CCC-05505AD98C44";
shapes = (
{
closed = 1;
nodes = (
(0,1441,l),
(166,1441,l),
(166,1419,l),
(0,1419,l)
);
},
{
ref = h;
}
);
width = 194;
},
{
layerId = "BA0CA162-2A9B-49EE-921D-3B4346C7D39F";
shapes = (
{
closed = 1;
nodes = (
(-30,1487,l),
(490,1487,l),
(490,1303,l),
(-30,1303,l)
);
},
{
ref = h;
}
);
width = 738;
},
{
layerId = "C75D3228-2D13-4E9D-9829-45195F4951D0";
shapes = (
{
closed = 1;
nodes = (
(0,1470,l),
(1342,1470,l),
(1342,1232,l),
(0,1232,l)
);
},
{
ref = h;
}
);
width = 2105;
},
{
layerId = "71977205-6510-4B11-BB00-17BACA883C8F";
shapes = (
{
closed = 1;
nodes = (
(0,1399,l),
(737,1399,l),
(737,1377,l),
(0,1377,l)
);
},
{
pos = (-11,0);
ref = h;
}
);
width = 1546;
}
);
unicode = 295;
},
{
color = 6;
glyphname = i;
kernLeft = i;
kernRight = i;
lastChange = "2023-03-03 14:59:49 +0000";
layers = (
{
anchors = (
{
name = bottom;
pos = (56,0);
}
);
layerId = "A1A0948C-E637-4A65-8CCC-05505AD98C44";
shapes = (
{
closed = 1;
nodes = (
(44,1200,l),
(66,1200,l),
(66,0,l),
(44,0,l)
);
},
{
closed = 1;
nodes = (
(66,1440,l),
(66,1348,l),
(44,1348,l),
(44,1440,l)
);
}
);
width = 120;
},
{
anchors = (
{
name = bottom;
pos = (189,0);
}
);
layerId = "BA0CA162-2A9B-49EE-921D-3B4346C7D39F";
shapes = (
{
closed = 1;
nodes = (
(16,1200,l),
(362,1200,l),
(362,0,l),
(16,0,l)
);
},
{
closed = 1;
nodes = (
(362,1570,l),
(362,1320,l),
(16,1320,l),
(16,1570,l)
);
}
);
width = 378;
},
{
anchors = (
{
name = bottom;
pos = (494,0);
}
);
layerId = "C75D3228-2D13-4E9D-9829-45195F4951D0";
shapes = (
{
closed = 1;
nodes = (
(176,1172,l),
(736,1172,l),
(736,0,l),
(176,0,l)
);
},
{
closed = 1;
nodes = (
(736,1570,l),
(736,1252,l),
(176,1252,l),
(176,1570,l)
);
}
);
width = 947;
},
{
anchors = (
{
name = bottom;
pos = (278,0);
}
);
layerId = "71977205-6510-4B11-BB00-17BACA883C8F";
shapes = (
{
closed = 1;
nodes = (
(266,1172,l),
(288,1172,l),
(288,0,l),
(266,0,l)
);
},
{
closed = 1;
nodes = (
(288,1492,l),
(288,1377,l),
(266,1377,l),
(266,1492,l)
);
}
);
width = 606;
}
);
unicode = 105;
},
{
color = 6;
glyphname = idotless;
kernLeft = idotless;
kernRight = idotless;
lastChange = "2023-03-03 14:59:49 +0000";
layers = (
{
anchors = (
{
name = bottom;
pos = (45,0);
},
{
name = ogonek;
pos = (56,0);
},
{
name = top;
pos = (45,1200);
}
);
layerId = "A1A0948C-E637-4A65-8CCC-05505AD98C44";
shapes = (
{
closed = 1;
nodes = (
(34,1200,l),
(56,1200,l),
(56,0,l),
(34,0,l)
);
}
);
width = 100;
},
{
anchors = (
{
name = bottom;
pos = (187,0);
},
{
name = ogonek;
pos = (362,0);
},
{
name = top;
pos = (187,1200);
}
);
layerId = "BA0CA162-2A9B-49EE-921D-3B4346C7D39F";
shapes = (
{
closed = 1;
nodes = (
(12,1200,l),
(362,1200,l),
(362,0,l),
(12,0,l)
);
}
);
width = 374;
},
{
anchors = (
{
name = bottom;
pos = (437,0);
},
{
name = ogonek;
pos = (716,0);
},
{
name = top;
pos = (437,1172);
}
);
layerId = "C75D3228-2D13-4E9D-9829-45195F4951D0";
shapes = (
{
closed = 1;
nodes = (
(158,1172,l),
(716,1172,l),
(716,0,l),
(158,0,l)
);
}
);
width = 920;
},
{
anchors = (
{
name = bottom;
pos = (216,0);
},
{
name = ogonek;
pos = (226,0);
},
{
name = top;
pos = (215,1168);
}
);
layerId = "71977205-6510-4B11-BB00-17BACA883C8F";
shapes = (
{
closed = 1;
nodes = (
(204,1172,l),
(226,1172,l),
(226,0,l),
(204,0,l)
);
}
);
width = 521;
}
);
unicode = 305;
},
{
color = 3;
glyphname = imacron;
kernLeft = idotless;
kernRight = idotless;
lastChange = "2023-03-03 14:59:49 +0000";
layers = (
{
layerId = "A1A0948C-E637-4A65-8CCC-05505AD98C44";
shapes = (
{
closed = 1;
nodes = (
(-2,1289,l),
(92,1289,l),
(92,1269,l),
(-2,1269,l)
);
},
{
ref = idotless;
}
);
width = 100;
},
{
layerId = "BA0CA162-2A9B-49EE-921D-3B4346C7D39F";
shapes = (
{
closed = 1;
nodes = (
(-1,1377,l),
(375,1377,l),
(375,1253,l),
(-1,1253,l)
);
},
{
ref = idotless;
}
);
width = 374;
},
{
layerId = "C75D3228-2D13-4E9D-9829-45195F4951D0";
shapes = (
{
closed = 1;
nodes = (
(35,1490,l),
(839,1490,l),
(839,1292,l),
(35,1292,l)
);
},
{
ref = idotless;
}
);
width = 920;
},
{
layerId = "71977205-6510-4B11-BB00-17BACA883C8F";
shapes = (
{
closed = 1;
nodes = (
(22,1334,l),
(408,1334,l),
(408,1314,l),
(22,1314,l)
);
},
{
ref = idotless;
}
);
width = 521;
}
);
unicode = 299;
},
{
color = 3;
glyphname = iogonek;
kernLeft = i;
kernRight = i;
lastChange = "2023-03-03 14:59:49 +0000";
layers = (
{
layerId = "A1A0948C-E637-4A65-8CCC-05505AD98C44";
shapes = (
{
closed = 1;
nodes = (
(56,1440,l),
(56,1348,l),
(34,1348,l),
(34,1440,l)
);
},
{
ref = idotless;
},
{
pos = (-24,0);
ref = ogonekcomb;
}
);
width = 100;
},
{
layerId = "BA0CA162-2A9B-49EE-921D-3B4346C7D39F";
shapes = (
{
closed = 1;
nodes = (
(362,1570,l),
(362,1320,l),
(16,1320,l),
(16,1570,l)
);
},
{
ref = idotless;
},
{
pos = (90,0);
ref = ogonekcomb;
}
);
width = 374;
},
{
layerId = "C75D3228-2D13-4E9D-9829-45195F4951D0";
shapes = (
{
closed = 1;
nodes = (
(720,1570,l),
(720,1252,l),
(160,1252,l),
(160,1570,l)
);
},
{
ref = idotless;
},
{
pos = (-42,0);
ref = ogonekcomb;
}
);
width = 920;
},
{
layerId = "71977205-6510-4B11-BB00-17BACA883C8F";
shapes = (
{
closed = 1;
nodes = (
(224,1492,l),
(224,1377,l),
(202,1377,l),
(202,1492,l)
);
},
{
ref = idotless;
},
{
pos = (-324,0);
ref = ogonekcomb;
}
);
width = 521;
}
);
unicode = 303;
},
{
color = 6;
glyphname = j;
kernLeft = j;
kernRight = i;
lastChange = "2023-03-03 14:59:49 +0000";
layers = (
{
layerId = "A1A0948C-E637-4A65-8CCC-05505AD98C44";
shapes = (
{
closed = 1;
nodes = (
(-9,-436,l),
(27,-436,o),
(55,-350,o),
(55,-200,qs),
(55,1200,l),
(77,1200,l),
(77,-202,ls),
(77,-362,o),
(41,-458,o),
(-9,-458,q)
);
},
{
closed = 1;
nodes = (
(77,1440,l),
(77,1348,l),
(55,1348,l),
(55,1440,l)
);
}
);
width = 131;
},
{
layerId = "BA0CA162-2A9B-49EE-921D-3B4346C7D39F";
shapes = (
{
closed = 1;
nodes = (
(-56,-202,l),
(-18,-202,o),
(26,-136,o),
(26,-28,qs),
(26,1200,l),
(370,1200,l),
(370,2,ls),
(370,-286,o),
(148,-460,o),
(-56,-460,q)
);
},
{
closed = 1;
nodes = (
(372,1570,l),
(372,1320,l),
(26,1320,l),
(26,1570,l)
);
}
);
width = 388;
},
{
layerId = "C75D3228-2D13-4E9D-9829-45195F4951D0";
shapes = (
{
closed = 1;
nodes = (
(-211,-100,l),
(3,-100,o),
(233,8,o),
(233,200,qs),
(233,1172,l),
(791,1172,l),
(791,206,ls),
(791,-187,o),
(285,-460,o),
(-211,-460,q)
);
},
{
closed = 1;
nodes = (
(791,1570,l),
(791,1252,l),
(233,1252,l),
(233,1570,l)
);
}
);
width = 1002;
},
{
layerId = "71977205-6510-4B11-BB00-17BACA883C8F";
shapes = (
{
closed = 1;
nodes = (
(-246,-441,l),
(-6,-441,o),
(264,-227,o),
(264,-15,qs),
(264,1172,l),
(286,1172,l),
(286,-13,ls),
(286,-238,o),
(6,-460,o),
(-246,-460,q)
);
},
{
closed = 1;
nodes = (
(286,1492,l),
(286,1377,l),
(264,1377,l),
(264,1492,l)
);
}
);
width = 604;
}
);
metricRight = i;
unicode = 106;
},
{
color = 6;
glyphname = jdotless;
kernLeft = j;
kernRight = j;
lastChange = "2023-03-03 14:59:49 +0000";
layers = (
{
anchors = (
{
name = bottom;
pos = (67,-460);
},
{
name = top;
pos = (67,1200);
}
);
layerId = "A1A0948C-E637-4A65-8CCC-05505AD98C44";
shapes = (
{
closed = 1;
nodes = (
(-9,-436,l),
(27,-436,o),
(55,-350,o),
(55,-200,qs),
(55,1200,l),
(77,1200,l),
(77,-202,ls),
(77,-362,o),
(41,-458,o),
(-9,-458,q)
);
}
);
width = 131;
},
{
anchors = (
{
name = bottom;
pos = (197,-460);
},
{
name = top;
pos = (197,1200);
}
);
layerId = "BA0CA162-2A9B-49EE-921D-3B4346C7D39F";
shapes = (
{
closed = 1;
nodes = (
(-56,-202,l),
(-18,-202,o),
(26,-136,o),
(26,-28,qs),
(26,1200,l),
(370,1200,l),
(370,2,ls),
(370,-286,o),
(148,-460,o),
(-56,-460,q)
);
}
);
width = 386;
},
{
anchors = (
{
name = bottom;
pos = (283,-460);
},
{
name = top;
pos = (283,1172);
}
);
layerId = "71977205-6510-4B11-BB00-17BACA883C8F";
shapes = (
{
closed = 1;
nodes = (
(-246,-441,l),
(-6,-441,o),
(264,-227,o),
(264,-15,qs),
(264,1172,l),
(286,1172,l),
(286,-13,ls),
(286,-238,o),
(6,-460,o),
(-246,-460,q)
);
}
);
width = 604;
},
{
anchors = (
{
name = bottom;
pos = (502,-460);
},
{
name = top;
pos = (502,1172);
}
);
layerId = "C75D3228-2D13-4E9D-9829-45195F4951D0";
shapes = (
{
closed = 1;
nodes = (
(-211,-100,l),
(3,-100,o),
(233,8,o),
(233,200,qs),
(233,1172,l),
(791,1172,l),
(791,206,ls),
(791,-187,o),
(285,-460,o),
(-211,-460,q)
);
}
);
width = 1002;
}
);
metricLeft = j;
metricRight = j;
unicode = 567;
},
{
color = 6;
glyphname = k;
kernLeft = h;
kernRight = k;
lastChange = "2023-03-03 16:21:25 +0000";
layers = (
{
anchors = (
{
name = bottom;
pos = (108,0);
},
{
name = top;
pos = (108,1570);
}
);
layerId = "A1A0948C-E637-4A65-8CCC-05505AD98C44";
shapes = (
{
closed = 1;
nodes = (
(104,815,l),
(185,0,l),
(165,0,l),
(89,760,l)
);
},
{
closed = 1;
nodes = (
(32,1570,l),
(54,1570,l),
(54,579,l),
(47,595,l),
(153,1200,l),
(175,1200,l),
(101,786,l),
(94,745,l),
(54,520,l),
(54,0,l),
(32,0,l)
);
}
);
width = 193;
},
{
anchors = (
{
name = bottom;
pos = (400,0);
},
{
name = top;
pos = (400,1480);
}
);
layerId = "BA0CA162-2A9B-49EE-921D-3B4346C7D39F";
shapes = (
{
closed = 1;
nodes = (
(616,756,l),
(762,0,l),
(410,0,l),
(373,382,l)
);
},
{
closed = 1;
nodes = (
(12,1570,l),
(358,1570,l),
(358,717,l),
(326,721,l),
(427,1200,l),
(778,1200,l),
(614,725,l),
(382,381,l),
(358,329,l),
(358,0,l),
(12,0,l)
);
}
);
width = 782;
},
{
anchors = (
{
name = bottom;
pos = (1014,0);
},
{
name = top;
pos = (1014,1480);
}
);
layerId = "C75D3228-2D13-4E9D-9829-45195F4951D0";
shapes = (
{
closed = 1;
nodes = (
(1333,772,l),
(1933,0,l),
(1329,0,l),
(965,503,l)
);
},
{
closed = 1;
nodes = (
(135,1570,l),
(692,1570,l),
(692,541,l),
(487,645,l),
(1203,1172,l),
(1902,1172,l),
(1330,749,l),
(987,500,l),
(692,281,l),
(692,0,l),
(135,0,l)
);
}
);
width = 2003;
},
{
anchors = (
{
name = bottom;
pos = (858,0);
},
{
name = top;
pos = (809,1480);
}
);
layerId = "71977205-6510-4B11-BB00-17BACA883C8F";
shapes = (
{
closed = 1;
nodes = (
(678,725,l),
(1494,0,l),
(1460,0,l),
(658,713,l)
);
},
{
closed = 1;
nodes = (
(210,1570,l),
(232,1570,l),
(232,473,l),
(223,479,l),
(1419,1172,l),
(1466,1172,l),
(677,718,l),
(667,712,l),
(232,458,l),
(232,0,l),
(210,0,l)
);
}
);
width = 1654;
},
{
anchors = (
{
name = bottom;
pos = (483,0);
},
{
name = top;
pos = (459,1525);
}
);
associatedMasterId = "A1A0948C-E637-4A65-8CCC-05505AD98C44";
attr = {
coordinates = (
100,
22
);
};
layerId = "66DD6355-9CEE-468E-B802-1F2988E27751";
name = "3. Mar 23, 17:19";
shapes = (
{
closed = 1;
nodes = (
(391,770,l),
(840,0,l),
(810,0,l),
(373,749,l)
);
},
{
closed = 1;
nodes = (
(121,1570,l),
(143,1570,l),
(143,526,l),
(135,534,l),
(789,1186,l),
(821,1186,l),
(389,752,l),
(381,745,l),
(143,507,l),
(143,0,l),
(121,0,l)
);
}
);
width = 924;
}
);
metricLeft = h;
unicode = 107;
},
{
color = 6;
glyphname = kgreenlandic;
kernLeft = H;
kernRight = K;
lastChange = "2023-03-03 14:59:49 +0000";
layers = (
{
anchors = (
{
name = bottom;
pos = (99,0);
},
{
name = top;
pos = (87,1200);
}
);
layerId = "A1A0948C-E637-4A65-8CCC-05505AD98C44";
shapes = (
{
closed = 1;
nodes = (
(28,1200,l),
(50,1200,l),
(50,0,l),
(28,0,l)
);
},
{
closed = 1;
nodes = (
(138,1200,l),
(162,1200,l),
(71,601,l),
(49,601,l)
);
},
{
closed = 1;
nodes = (
(49,609,l),
(71,609,l),
(162,0,l),
(138,0,l)
);
}
);
width = 188;
},
{
anchors = (
{
name = bottom;
pos = (384,0);
},
{
name = top;
pos = (384,1200);
}
);
layerId = "BA0CA162-2A9B-49EE-921D-3B4346C7D39F";
shapes = (
{
closed = 1;
nodes = (
(12,1200,l),
(356,1200,l),
(356,0,l),
(12,0,l)
);
},
{
closed = 1;
nodes = (
(408,1200,l),
(756,1200,l),
(672,594,l),
(341,594,l)
);
},
{
closed = 1;
nodes = (
(341,602,l),
(672,602,l),
(756,0,l),
(408,0,l)
);
}
);
width = 768;
},
{
anchors = (
{
name = bottom;
pos = (841,0);
},
{
name = top;
pos = (841,1172);
}
);
layerId = "71977205-6510-4B11-BB00-17BACA883C8F";
shapes = (
{
closed = 1;
nodes = (
(203,1172,l),
(225,1172,l),
(225,0,l),
(203,0,l)
);
},
{
closed = 1;
nodes = (
(1481,1172,l),
(1529,1172,l),
(241,577,l),
(211,586,l)
);
},
{
closed = 1;
nodes = (
(211,580,l),
(241,589,l),
(1538,0,l),
(1490,0,l)
);
}
);
width = 1684;
},
{
anchors = (
{
name = bottom;
pos = (990,0);
},
{
name = top;
pos = (990,1172);
}
);
layerId = "C75D3228-2D13-4E9D-9829-45195F4951D0";
shapes = (
{
closed = 1;
nodes = (
(132,1172,l),
(696,1172,l),
(696,0,l),
(132,0,l)
);
},
{
closed = 1;
nodes = (
(1348,1172,l),
(2016,1172,l),
(1216,580,l),
(556,566,l)
);
},
{
closed = 1;
nodes = (
(556,602,l),
(1216,588,l),
(2016,0,l),
(1348,0,l)
);
}
);
width = 2040;
}
);
unicode = 312;
},
{
color = 6;
glyphname = l;
kernLeft = h;
kernRight = l;
lastChange = "2023-03-03 14:59:49 +0000";
layers = (
{
anchors = (
{
name = bottom;
pos = (61,0);
},
{
name = center;
pos = (61,740);
},
{
name = top;
pos = (56,1570);
},
{
name = topright;
pos = (99,1570);
}
);
layerId = "A1A0948C-E637-4A65-8CCC-05505AD98C44";
shapes = (
{
closed = 1;
nodes = (
(45,1570,l),
(67,1570,l),
(67,0,l),
(45,0,l)
);
}
);
width = 117;
},
{
anchors = (
{
name = bottom;
pos = (184,0);
},
{
name = center;
pos = (184,740);
},
{
name = top;
pos = (185,1570);
},
{
name = topright;
pos = (369,1570);
}
);
layerId = "BA0CA162-2A9B-49EE-921D-3B4346C7D39F";
shapes = (
{
closed = 1;
nodes = (
(12,1570,l),
(356,1570,l),
(356,0,l),
(12,0,l)
);
}
);
width = 368;
},
{
anchors = (
{
name = bottom;
pos = (470,0);
},
{
name = center;
pos = (470,740);
},
{
name = top;
pos = (470,1570);
},
{
name = topright;
pos = (920,1480);
}
);
layerId = "C75D3228-2D13-4E9D-9829-45195F4951D0";
shapes = (
{
closed = 1;
nodes = (
(190,1570,l),
(750,1570,l),
(750,0,l),
(190,0,l)
);
}
);
width = 960;
},
{
anchors = (
{
name = bottom;
pos = (253,0);
},
{
name = center;
pos = (253,740);
},
{
name = top;
pos = (254,1570);
},
{
name = topright;
pos = (516,1466);
}
);
layerId = "71977205-6510-4B11-BB00-17BACA883C8F";
shapes = (
{
closed = 1;
nodes = (
(242,1570,l),
(264,1570,l),
(264,0,l),
(242,0,l)
);
}
);
width = 520;
}
);
unicode = 108;
},
{
color = 3;
glyphname = lslash;
kernLeft = lslash;
kernRight = lslash;
lastChange = "2023-03-03 14:59:49 +0000";
layers = (
{
layerId = "A1A0948C-E637-4A65-8CCC-05505AD98C44";
shapes = (
{
closed = 1;
nodes = (
(0,550,l),
(152,882,l),
(152,838,l),
(0,506,l)
);
},
{
pos = (12,0);
ref = l;
}
);
width = 162;
},
{
layerId = "BA0CA162-2A9B-49EE-921D-3B4346C7D39F";
shapes = (
{
closed = 1;
nodes = (
(0,620,l),
(540,958,l),
(540,696,l),
(0,358,l)
);
},
{
pos = (74,0);
ref = l;
}
);
width = 540;
},
{
layerId = "C75D3228-2D13-4E9D-9829-45195F4951D0";
shapes = (
{
closed = 1;
nodes = (
(-20,668,l),
(862,1010,l),
(862,586,l),
(-20,244,l)
);
},
{
pos = (-30,0);
ref = l;
}
);
width = 842;
},
{
layerId = "71977205-6510-4B11-BB00-17BACA883C8F";
shapes = (
{
closed = 1;
nodes = (
(22,550,l),
(413,882,l),
(413,856,l),
(22,524,l)
);
},
{
pos = (-34,0);
ref = l;
}
);
width = 480;
}
);
unicode = 322;
},
{
color = 6;
glyphname = m;
kernLeft = n;
kernRight = n;
lastChange = "2023-03-03 14:59:49 +0000";
layers = (
{
anchors = (
{
name = bottom;
pos = (153,0);
},
{
name = top;
pos = (153,1200);
}
);
layerId = "A1A0948C-E637-4A65-8CCC-05505AD98C44";
shapes = (
{
closed = 1;
nodes = (
(32,1200,l),
(54,1200,l),
(54,1114,l),
(54,0,l),
(32,0,l)
);
},
{
closed = 1;
nodes = (
(138,954,ls),
(138,1039,o),
(138,1190,o),
(110,1190,qs),
(89,1190,o),
(54,1028,o),
(54,984,q),
(46,1016,l),
(46,1066,o),
(77,1212,o),
(112,1212,qs),
(160,1212,o),
(160,1043,o),
(160,944,qs),
(160,0,l),
(138,0,l)
);
},
{
closed = 1;
nodes = (
(244,954,ls),
(244,1039,o),
(244,1190,o),
(216,1190,qs),
(195,1190,o),
(160,1028,o),
(160,984,q),
(152,1016,l),
(152,1066,o),
(183,1212,o),
(218,1212,qs),
(266,1212,o),
(266,1043,o),
(266,944,qs),
(266,0,l),
(244,0,l)
);
}
);
width = 298;
},
{
anchors = (
{
name = bottom;
pos = (554,0);
},
{
name = top;
pos = (554,1200);
}
);
layerId = "BA0CA162-2A9B-49EE-921D-3B4346C7D39F";
shapes = (
{
closed = 1;
nodes = (
(12,1200,l),
(267,1200,l),
(356,1027,l),
(356,0,l),
(12,0,l)
);
},
{
closed = 1;
nodes = (
(384,677,ls),
(384,869,o),
(384,953,o),
(370,953,qs),
(356,953,o),
(356,868,o),
(356,677,q),
(222,794,l),
(222,949,o),
(384,1207,o),
(522,1207,q),
(726,1207,o),
(726,831,o),
(726,691,qs),
(726,0,l),
(384,0,l)
);
},
{
closed = 1;
nodes = (
(754,677,ls),
(754,869,o),
(754,953,o),
(740,953,qs),
(726,953,o),
(726,868,o),
(726,677,q),
(592,794,l),
(592,949,o),
(754,1207,o),
(892,1207,q),
(1096,1207,o),
(1096,831,o),
(1096,691,qs),
(1096,0,l),
(754,0,l)
);
}
);
width = 1108;
},
{
anchors = (
{
name = bottom;
pos = (1630,0);
},
{
name = top;
pos = (1630,1172);
}
);
layerId = "C75D3228-2D13-4E9D-9829-45195F4951D0";
shapes = (
{
closed = 1;
nodes = (
(135,1172,l),
(576,1172,l),
(695,1019,l),
(695,0,l),
(135,0,l)
);
},
{
closed = 1;
nodes = (
(1241,573,ls),
(1241,691,o),
(1119,821,o),
(1003,821,qs),
(873,821,o),
(688,649,o),
(688,543,q),
(343,601,l),
(343,775,o),
(857,1183,o),
(1157,1183,qs),
(1469,1183,o),
(1801,907,o),
(1801,637,qs),
(1801,0,l),
(1241,0,l)
);
},
{
closed = 1;
nodes = (
(2339,573,ls),
(2339,691,o),
(2227,821,o),
(2111,821,qs),
(1981,821,o),
(1796,649,o),
(1796,543,q),
(1451,601,l),
(1451,763,o),
(1965,1183,o),
(2265,1183,qs),
(2577,1183,o),
(2899,907,o),
(2899,637,qs),
(2899,0,l),
(2339,0,l)
);
}
);
width = 3099;
},
{
anchors = (
{
name = bottom;
pos = (1327,0);
},
{
name = top;
pos = (1338,1168);
}
);
layerId = "71977205-6510-4B11-BB00-17BACA883C8F";
shapes = (
{
closed = 1;
nodes = (
(210,1168,l),
(232,1168,l),
(232,810,l),
(232,0,l),
(210,0,l)
);
},
{
closed = 1;
nodes = (
(1319,592,ls),
(1319,881,o),
(1072,1158,o),
(809,1158,qs),
(545,1158,o),
(232,872,o),
(232,568,q),
(215,592,l),
(215,901,o),
(547,1180,o),
(810,1180,qs),
(1083,1180,o),
(1341,892,o),
(1341,594,qs),
(1341,0,l),
(1319,0,l)
);
},
{
closed = 1;
nodes = (
(2428,592,ls),
(2428,881,o),
(2181,1158,o),
(1918,1158,qs),
(1654,1158,o),
(1341,872,o),
(1341,568,q),
(1324,592,l),
(1324,901,o),
(1656,1180,o),
(1919,1180,qs),
(2191,1180,o),
(2450,893,o),
(2450,594,qs),
(2450,0,l),
(2428,0,l)
);
}
);
width = 2670;
}
);
metricLeft = n;
metricRight = n;
unicode = 109;
},
{
color = 6;
glyphname = n;
kernLeft = n;
kernRight = n;
lastChange = "2023-03-03 14:59:49 +0000";
layers = (
{
anchors = (
{
name = bottom;
pos = (100,0);
},
{
name = top;
pos = (100,1200);
}
);
layerId = "A1A0948C-E637-4A65-8CCC-05505AD98C44";
shapes = (
{
closed = 1;
nodes = (
(32,1200,l),
(54,1200,l),
(54,1098,l),
(54,0,l),
(32,0,l)
);
},
{
closed = 1;
nodes = (
(138,842,ls),
(138,1011,o),
(138,1190,o),
(110,1190,qs),
(89,1190,o),
(54,1068,o),
(54,1024,q),
(48,1056,l),
(48,1106,o),
(79,1212,o),
(112,1212,qs),
(160,1212,o),
(160,1015,o),
(160,832,qs),
(160,0,l),
(138,0,l)
);
}
);
width = 192;
},
{
anchors = (
{
name = bottom;
pos = (369,0);
},
{
name = top;
pos = (369,1200);
}
);
layerId = "BA0CA162-2A9B-49EE-921D-3B4346C7D39F";
shapes = (
{
closed = 1;
nodes = (
(12,1200,l),
(266,1200,l),
(356,1030,l),
(356,0,l),
(12,0,l)
);
},
{
closed = 1;
nodes = (
(384,637,ls),
(384,863,o),
(384,953,o),
(370,953,qs),
(356,953,o),
(356,863,o),
(356,753,q),
(186,761,l),
(186,972,o),
(384,1207,o),
(532,1207,q),
(726,1207,o),
(726,811,o),
(726,611,qs),
(726,0,l),
(384,0,l)
);
}
);
width = 738;
},
{
anchors = (
{
name = bottom;
pos = (1054,0);
},
{
name = top;
pos = (1054,1172);
}
);
layerId = "C75D3228-2D13-4E9D-9829-45195F4951D0";
shapes = (
{
closed = 1;
nodes = (
(135,1172,l),
(575,1172,l),
(693,990,l),
(693,0,l),
(135,0,l)
);
},
{
closed = 1;
nodes = (
(1359,534,ls),
(1359,689,o),
(1213,821,o),
(1071,821,qs),
(911,821,o),
(663,596,o),
(663,439,q),
(393,605,l),
(393,727,o),
(861,1183,o),
(1255,1183,qs),
(1558,1183,o),
(1919,900,o),
(1919,577,qs),
(1919,0,l),
(1359,0,l)
);
}
);
width = 2119;
},
{
anchors = (
{
name = bottom;
pos = (841,0);
},
{
name = top;
pos = (841,1168);
}
);
layerId = "71977205-6510-4B11-BB00-17BACA883C8F";
shapes = (
{
closed = 1;
nodes = (
(210,1168,l),
(232,1168,l),
(232,733,l),
(232,0,l),
(210,0,l)
);
},
{
closed = 1;
nodes = (
(1510,642,ls),
(1510,909,o),
(1192,1162,o),
(902,1162,qs),
(616,1162,o),
(232,875,o),
(232,629,q),
(220,690,l),
(220,899,o),
(613,1184,o),
(902,1184,qs),
(1204,1184,o),
(1532,918,o),
(1532,644,qs),
(1532,0,l),
(1510,0,l)
);
}
);
width = 1752;
}
);
metricLeft = h;
unicode = 110;
},
{
color = 3;
glyphname = eng;
kernLeft = n;
kernRight = j;
lastChange = "2023-03-03 14:59:49 +0000";
layers = (
{
layerId = "A1A0948C-E637-4A65-8CCC-05505AD98C44";
shapes = (
{
closed = 1;
nodes = (
(70,-378,l),
(136,-378,o),
(140,-182,o),
(140,0,c),
(162,0,l),
(162,-318,o),
(128,-400,o),
(70,-400,c)
);
},
{
ref = n;
}
);
width = 194;
},
{
layerId = "BA0CA162-2A9B-49EE-921D-3B4346C7D39F";
shapes = (
{
closed = 1;
nodes = (
(316,-178,l),
(380,-178,o),
(384,-112,o),
(384,0,c),
(726,0,l),
(726,-350,o),
(534,-400,o),
(316,-400,c)
);
},
{
ref = n;
}
);
width = 738;
},
{
layerId = "C75D3228-2D13-4E9D-9829-45195F4951D0";
shapes = (
{
closed = 1;
nodes = (
(971,-154,l),
(1159,-154,o),
(1359,-141,o),
(1359,0,c),
(1919,0,l),
(1919,-308,o),
(1629,-492,o),
(971,-492,c)
);
},
{
ref = n;
}
);
width = 2119;
},
{
layerId = "71977205-6510-4B11-BB00-17BACA883C8F";
shapes = (
{
closed = 1;
nodes = (
(876,-378,l),
(1285,-378,o),
(1510,-289,o),
(1510,0,c),
(1532,0,l),
(1532,-295,o),
(1323,-400,o),
(876,-400,c)
);
},
{
ref = n;
}
);
width = 1752;
}
);
metricLeft = n;
metricRight = n;
unicode = 331;
},
{
color = 6;
glyphname = o;
kernLeft = o;
kernRight = o;
lastChange = "2023-03-03 14:59:49 +0000";
layers = (
{
anchors = (
{
name = bottom;
pos = (101,0);
},
{
name = center;
pos = (101,596);
},
{
name = ogonek;
pos = (99,0);
},
{
name = top;
pos = (96,1200);
},
{
name = topright;
pos = (147,1109);
}
);
layerId = "A1A0948C-E637-4A65-8CCC-05505AD98C44";
shapes = (
{
closed = 1;
nodes = (
(34,-6,o),
(34,238,o),
(34,601,qs),
(34,964,o),
(34,1212,o),
(96,1212,qs),
(158,1212,o),
(158,964,o),
(158,601,qs),
(158,238,o),
(158,-6,o),
(96,-6,qs)
);
},
{
closed = 1;
nodes = (
(136,16,o),
(136,244,o),
(136,601,qs),
(136,958,o),
(136,1190,o),
(96,1190,qs),
(56,1190,o),
(56,958,o),
(56,601,qs),
(56,244,o),
(56,16,o),
(96,16,qs)
);
}
);
width = 198;
},
{
anchors = (
{
name = bottom;
pos = (370,0);
},
{
name = center;
pos = (370,536);
},
{
name = ogonek;
pos = (374,0);
},
{
name = top;
pos = (370,1200);
},
{
name = topright;
pos = (724,1038);
}
);
layerId = "BA0CA162-2A9B-49EE-921D-3B4346C7D39F";
shapes = (
{
closed = 1;
nodes = (
(12,-10,o),
(12,350,o),
(12,601,qs),
(12,853,o),
(12,1213,o),
(370,1213,qs),
(728,1213,o),
(728,853,o),
(728,601,qs),
(728,350,o),
(728,-10,o),
(370,-10,qs)
);
},
{
closed = 1;
nodes = (
(384,244,o),
(384,334,o),
(384,601,qs),
(384,869,o),
(384,959,o),
(370,959,qs),
(356,959,o),
(356,869,o),
(356,601,qs),
(356,334,o),
(356,244,o),
(370,244,qs)
);
}
);
width = 740;
},
{
anchors = (
{
name = bottom;
pos = (1082,0);
},
{
name = center;
pos = (1066,595);
},
{
name = ogonek;
pos = (1088,0);
},
{
name = top;
pos = (1067,1173);
},
{
name = topright;
pos = (1676,1071);
}
);
layerId = "C75D3228-2D13-4E9D-9829-45195F4951D0";
shapes = (
{
closed = 1;
nodes = (
(672,-10,o),
(80,290,o),
(80,596,qs),
(80,902,o),
(672,1186,o),
(1068,1186,qs),
(1464,1186,o),
(2054,902,o),
(2054,596,qs),
(2054,290,o),
(1464,-10,o),
(1068,-10,qs)
);
},
{
closed = 1;
nodes = (
(1248,342,o),
(1496,467,o),
(1496,591,qs),
(1496,715,o),
(1248,835,o),
(1068,835,qs),
(888,835,o),
(638,715,o),
(638,591,qs),
(638,467,o),
(888,342,o),
(1068,342,qs)
);
}
);
width = 2164;
},
{
anchors = (
{
name = bottom;
pos = (885,0);
},
{
name = center;
pos = (887,586);
},
{
name = ogonek;
pos = (883,-12);
},
{
name = top;
pos = (884,1172);
},
{
name = topright;
pos = (1391,1047);
}
);
layerId = "71977205-6510-4B11-BB00-17BACA883C8F";
shapes = (
{
closed = 1;
nodes = (
(576,-11,o),
(121,287,o),
(121,585,qs),
(121,884,o),
(576,1180,o),
(884,1180,qs),
(1191,1180,o),
(1646,884,o),
(1646,585,qs),
(1646,287,o),
(1191,-11,o),
(884,-11,qs)
);
},
{
closed = 1;
nodes = (
(1181,11,o),
(1622,300,o),
(1622,585,qs),
(1622,871,o),
(1181,1158,o),
(884,1158,qs),
(586,1158,o),
(145,871,o),
(145,585,qs),
(145,300,o),
(586,11,o),
(884,11,qs)
);
}
);
width = 1846;
}
);
unicode = 111;
},
{
color = 3;
glyphname = oslash;
kernLeft = o;
kernRight = o;
lastChange = "2023-03-03 14:59:49 +0000";
layers = (
{
anchors = (
{
name = top;
pos = (88,1200);
}
);
layerId = "A1A0948C-E637-4A65-8CCC-05505AD98C44";
shapes = (
{
closed = 1;
nodes = (
(134,1227,l),
(153,1223,l),
(23,-29,l),
(2,-25,l)
);
},
{
ref = o;
}
);
width = 182;
},
{
anchors = (
{
name = top;
pos = (370,1200);
}
);
layerId = "BA0CA162-2A9B-49EE-921D-3B4346C7D39F";
shapes = (
{
closed = 1;
nodes = (
(660,1255,l),
(761,1210,l),
(72,-53,l),
(-21,-3,l)
);
},
{
ref = o;
}
);
width = 740;
},
{
anchors = (
{
name = top;
pos = (1068,1186);
}
);
layerId = "C75D3228-2D13-4E9D-9829-45195F4951D0";
shapes = (
{
closed = 1;
nodes = (
(1940,1303,l),
(2131,1138,l),
(142,-125,l),
(-41,55,l)
);
},
{
ref = o;
}
);
width = 2164;
},
{
anchors = (
{
name = top;
pos = (884,1180);
}
);
layerId = "71977205-6510-4B11-BB00-17BACA883C8F";
shapes = (
{
closed = 1;
nodes = (
(1680,1199,l),
(1696,1182,l),
(91,-19,l),
(76,-2,l)
);
},
{
ref = o;
}
);
width = 1846;
}
);
unicode = 248;
},
{
color = 6;
glyphname = p;
kernLeft = p;
kernRight = o;
lastChange = "2023-03-03 14:59:49 +0000";
layers = (
{
anchors = (
{
name = bottom;
pos = (99,0);
},
{
name = top;
pos = (108,1200);
}
);
layerId = "A1A0948C-E637-4A65-8CCC-05505AD98C44";
shapes = (
{
closed = 1;
nodes = (
(32,1200,l),
(54,1200,l),
(54,1098,l),
(54,-440,l),
(32,-440,l)
);
},
{
closed = 1;
nodes = (
(79,-6,o),
(48,100,o),
(48,150,q),
(54,182,l),
(54,138,o),
(89,16,o),
(110,16,qs),
(138,16,o),
(138,246,o),
(138,602,qs),
(138,960,o),
(138,1190,o),
(110,1190,qs),
(89,1190,o),
(54,1068,o),
(54,1024,q),
(48,1056,l),
(48,1106,o),
(79,1212,o),
(112,1212,qs),
(160,1212,o),
(160,968,o),
(160,602,qs),
(160,238,o),
(160,-6,o),
(112,-6,qs)
);
}
);
width = 200;
},
{
anchors = (
{
name = bottom;
pos = (369,0);
},
{
name = top;
pos = (379,1200);
}
);
layerId = "BA0CA162-2A9B-49EE-921D-3B4346C7D39F";
shapes = (
{
closed = 1;
nodes = (
(12,1200,l),
(266,1200,l),
(356,1034,l),
(356,-440,l),
(12,-440,l)
);
},
{
closed = 1;
nodes = (
(402,-5,o),
(186,142,o),
(186,342,q),
(356,464,l),
(356,330,o),
(356,244,o),
(370,244,qs),
(384,244,o),
(384,330,o),
(384,602,qs),
(384,865,o),
(384,955,o),
(370,955,qs),
(356,955,o),
(356,865,o),
(356,739,q),
(186,857,l),
(186,1057,o),
(402,1207,o),
(520,1207,qs),
(726,1207,o),
(726,818,o),
(726,602,qs),
(726,386,o),
(726,-5,o),
(520,-5,qs)
);
}
);
width = 738;
},
{
anchors = (
{
name = bottom;
pos = (1156,0);
},
{
name = top;
pos = (1150,1172);
}
);
layerId = "C75D3228-2D13-4E9D-9829-45195F4951D0";
shapes = (
{
closed = 1;
nodes = (
(135,1172,l),
(575,1172,l),
(693,986,l),
(693,-450,l),
(135,-450,l)
);
},
{
closed = 1;
nodes = (
(940,-10,o),
(461,237,o),
(461,302,q),
(693,542,l),
(693,482,o),
(952,352,o),
(1109,352,qs),
(1285,352,o),
(1477,479,o),
(1477,586,qs),
(1477,693,o),
(1285,820,o),
(1109,820,qs),
(952,820,o),
(693,690,o),
(693,630,q),
(461,870,l),
(461,935,o),
(940,1182,o),
(1279,1182,qs),
(1603,1182,o),
(2047,900,o),
(2047,590,qs),
(2047,280,o),
(1603,-10,o),
(1279,-10,qs)
);
}
);
width = 2157;
},
{
anchors = (
{
name = bottom;
pos = (896,0);
},
{
name = top;
pos = (903,1168);
}
);
layerId = "71977205-6510-4B11-BB00-17BACA883C8F";
shapes = (
{
closed = 1;
nodes = (
(210,1168,l),
(232,1168,l),
(232,827,l),
(232,-440,l),
(210,-440,l)
);
},
{
closed = 1;
nodes = (
(628,-10,o),
(225,270,o),
(225,392,q),
(231,469,l),
(231,293,o),
(640,12,o),
(934,12,qs),
(1228,12,o),
(1616,306,o),
(1616,586,qs),
(1616,866,o),
(1228,1160,o),
(934,1160,qs),
(640,1160,o),
(231,879,o),
(231,703,q),
(225,780,l),
(225,902,o),
(628,1182,o),
(934,1182,qs),
(1238,1182,o),
(1640,876,o),
(1640,586,qs),
(1640,296,o),
(1238,-10,o),
(934,-10,qs)
);
}
);
width = 1840;
}
);
metricLeft = h;
metricRight = o;
unicode = 112;
},
{
color = 3;
glyphname = thorn;
kernLeft = h;
kernRight = o;
lastChange = "2023-03-03 14:59:49 +0000";
layers = (
{
anchors = (
{
name = bottom;
pos = (103,0);
},
{
name = top;
pos = (107,1200);
}
);
layerId = "A1A0948C-E637-4A65-8CCC-05505AD98C44";
shapes = (
{
closed = 1;
nodes = (
(34,992,l),
(56,992,l),
(56,-400,l),
(34,-400,l)
);
},
{
ref = b;
}
);
width = 200;
},
{
anchors = (
{
name = bottom;
pos = (369,0);
},
{
name = top;
pos = (369,1200);
}
);
layerId = "BA0CA162-2A9B-49EE-921D-3B4346C7D39F";
shapes = (
{
closed = 1;
nodes = (
(12,972,l),
(354,972,l),
(354,-400,l),
(12,-400,l)
);
},
{
ref = b;
}
);
width = 738;
},
{
anchors = (
{
name = bottom;
pos = (1024,0);
},
{
name = top;
pos = (1024,1072);
}
);
layerId = "C75D3228-2D13-4E9D-9829-45195F4951D0";
shapes = (
{
closed = 1;
nodes = (
(135,846,l),
(691,846,l),
(691,-400,l),
(135,-400,l)
);
},
{
pos = (9,0);
ref = b;
}
);
width = 2166;
},
{
anchors = (
{
name = bottom;
pos = (894,0);
},
{
name = top;
pos = (894,1053);
}
);
layerId = "71977205-6510-4B11-BB00-17BACA883C8F";
shapes = (
{
closed = 1;
nodes = (
(210,716,l),
(232,716,l),
(232,-400,l),
(210,-400,l)
);
},
{
pos = (20,0);
ref = b;
}
);
width = 1860;
}
);
metricLeft = p;
metricRight = p;
unicode = 254;
},
{
color = 6;
glyphname = q;
kernLeft = o;
kernRight = q;
lastChange = "2023-03-03 14:59:49 +0000";
layers = (
{
anchors = (
{
name = bottom;
pos = (103,0);
},
{
name = top;
pos = (103,1200);
}
);
layerId = "A1A0948C-E637-4A65-8CCC-05505AD98C44";
shapes = (
{
closed = 1;
nodes = (
(140,1098,l),
(140,1200,l),
(162,1200,l),
(162,-440,l),
(140,-440,l)
);
},
{
closed = 1;
nodes = (
(34,-6,o),
(34,238,o),
(34,602,qs),
(34,968,o),
(34,1212,o),
(82,1212,qs),
(115,1212,o),
(146,1106,o),
(146,1056,q),
(140,1024,l),
(140,1068,o),
(105,1190,o),
(84,1190,qs),
(56,1190,o),
(56,960,o),
(56,602,qs),
(56,246,o),
(56,16,o),
(84,16,qs),
(105,16,o),
(140,138,o),
(140,182,q),
(146,150,l),
(146,100,o),
(115,-6,o),
(82,-6,qs)
);
}
);
width = 206;
},
{
anchors = (
{
name = bottom;
pos = (369,0);
},
{
name = top;
pos = (369,1200);
}
);
layerId = "BA0CA162-2A9B-49EE-921D-3B4346C7D39F";
shapes = (
{
closed = 1;
nodes = (
(382,1034,l),
(470,1200,l),
(726,1200,l),
(726,-440,l),
(382,-440,l)
);
},
{
closed = 1;
nodes = (
(12,-5,o),
(12,386,o),
(12,602,qs),
(12,818,o),
(12,1207,o),
(218,1207,qs),
(336,1207,o),
(552,1057,o),
(552,857,q),
(382,739,l),
(382,865,o),
(382,955,o),
(368,955,qs),
(354,955,o),
(354,865,o),
(354,602,qs),
(354,334,o),
(354,244,o),
(368,244,qs),
(382,244,o),
(382,334,o),
(382,464,q),
(552,342,l),
(552,142,o),
(336,-5,o),
(218,-5,qs)
);
}
);
width = 740;
},
{
anchors = (
{
name = bottom;
pos = (1008,0);
},
{
name = top;
pos = (1018,1172);
}
);
layerId = "C75D3228-2D13-4E9D-9829-45195F4951D0";
shapes = (
{
closed = 1;
nodes = (
(1424,939,l),
(1542,1172,l),
(1982,1172,l),
(1982,-450,l),
(1424,-450,l)
);
},
{
closed = 1;
nodes = (
(524,-10,o),
(80,280,o),
(80,590,qs),
(80,900,o),
(524,1182,o),
(848,1182,qs),
(1187,1182,o),
(1666,935,o),
(1666,870,q),
(1434,630,l),
(1434,690,o),
(1175,820,o),
(1018,820,qs),
(842,820,o),
(650,693,o),
(650,586,qs),
(650,479,o),
(842,352,o),
(1018,352,qs),
(1175,352,o),
(1434,482,o),
(1434,542,q),
(1666,302,l),
(1666,237,o),
(1187,-10,o),
(848,-10,qs)
);
}
);
width = 2166;
},
{
anchors = (
{
name = bottom;
pos = (870,0);
},
{
name = top;
pos = (862,1168);
}
);
layerId = "71977205-6510-4B11-BB00-17BACA883C8F";
shapes = (
{
closed = 1;
nodes = (
(1529,820,l),
(1529,1168,l),
(1551,1168,l),
(1551,-440,l),
(1529,-440,l)
);
},
{
closed = 1;
nodes = (
(533,-10,o),
(121,286,o),
(121,586,qs),
(121,886,o),
(533,1182,o),
(837,1182,qs),
(1143,1182,o),
(1536,902,o),
(1536,780,q),
(1530,703,l),
(1530,879,o),
(1131,1160,o),
(837,1160,qs),
(543,1160,o),
(145,876,o),
(145,586,qs),
(145,296,o),
(543,12,o),
(837,12,qs),
(1131,12,o),
(1530,293,o),
(1530,469,q),
(1536,392,l),
(1536,270,o),
(1143,-10,o),
(837,-10,qs)
);
}
);
width = 1806;
}
);
metricLeft = o;
metricRight = u;
unicode = 113;
},
{
color = 6;
glyphname = r;
kernLeft = n;
kernRight = r;
lastChange = "2023-03-03 14:59:49 +0000";
layers = (
{
anchors = (
{
name = bottom;
pos = (96,0);
},
{
name = top;
pos = (108,1200);
}
);
layerId = "A1A0948C-E637-4A65-8CCC-05505AD98C44";
shapes = (
{
closed = 1;
nodes = (
(138,962,o),
(138,1190,o),
(111,1190,qs),
(89,1190,o),
(54,1068,o),
(54,1024,q),
(48,1056,l),
(48,1106,o),
(79,1212,o),
(111,1212,qs),
(160,1212,o),
(160,962,o),
(160,664,q),
(138,664,l)
);
},
{
closed = 1;
nodes = (
(32,1200,l),
(54,1200,l),
(54,1091,l),
(54,0,l),
(32,0,l)
);
}
);
width = 192;
},
{
anchors = (
{
name = bottom;
pos = (369,0);
},
{
name = top;
pos = (369,1200);
}
);
layerId = "BA0CA162-2A9B-49EE-921D-3B4346C7D39F";
shapes = (
{
closed = 1;
nodes = (
(384,866,o),
(384,956,o),
(370,956,qs),
(356,956,o),
(356,866,o),
(356,820,q),
(223,828,l),
(223,1058,o),
(414,1210,o),
(532,1210,qs),
(724,1210,o),
(726,884,o),
(726,592,q),
(384,592,l)
);
},
{
closed = 1;
nodes = (
(12,1200,l),
(266,1200,l),
(356,1034,l),
(356,0,l),
(12,0,l)
);
}
);
width = 738;
},
{
anchors = (
{
name = bottom;
pos = (1063,0);
},
{
name = top;
pos = (1103,1172);
}
);
layerId = "C75D3228-2D13-4E9D-9829-45195F4951D0";
shapes = (
{
closed = 1;
nodes = (
(1363,696,o),
(1187,820,o),
(1055,820,qs),
(899,820,o),
(689,657,o),
(689,539,q),
(477,718,l),
(477,850,o),
(885,1182,o),
(1239,1182,qs),
(1573,1182,o),
(1923,896,o),
(1923,556,q),
(1363,556,l)
);
},
{
closed = 1;
nodes = (
(135,1172,l),
(576,1172,l),
(693,968,l),
(693,0,l),
(135,0,l)
);
}
);
width = 2123;
},
{
anchors = (
{
name = bottom;
pos = (884,0);
},
{
name = top;
pos = (867,1168);
}
);
layerId = "71977205-6510-4B11-BB00-17BACA883C8F";
shapes = (
{
closed = 1;
nodes = (
(1386,927,o),
(1112,1156,o),
(852,1156,qs),
(552,1156,o),
(232,866,o),
(232,653,q),
(217,682,l),
(217,896,o),
(553,1178,o),
(854,1178,qs),
(1123,1178,o),
(1410,941,o),
(1410,685,q),
(1386,685,l)
);
},
{
closed = 1;
nodes = (
(210,1168,l),
(232,1168,l),
(232,755,l),
(232,0,l),
(210,0,l)
);
}
);
width = 1630;
}
);
metricLeft = n;
metricRight = n;
unicode = 114;
},
{
color = 6;
glyphname = s;
kernLeft = s;
kernRight = s;
lastChange = "2023-03-03 14:59:49 +0000";
layers = (
{
anchors = (
{
name = bottom;
pos = (106,0);
},
{
name = top;
pos = (99,1200);
}
);
layerId = "A1A0948C-E637-4A65-8CCC-05505AD98C44";
shapes = (
{
closed = 1;
nodes = (
(54,-6,o),
(40,144,o),
(40,450,q),
(64,450,l),
(64,168,o),
(72,16,o),
(106,16,qs),
(133,16,o),
(144,128,o),
(144,216,qs),
(144,403,o),
(124,543,o),
(90,595,qs),
(48,659,o),
(34,787,o),
(34,952,qs),
(34,1064,o),
(55,1212,o),
(100,1212,qs),
(152,1212,o),
(166,1022,o),
(166,754,q),
(142,754,l),
(142,998,o),
(134,1190,o),
(100,1190,qs),
(74,1190,o),
(58,1062,o),
(58,952,qs),
(58,800,o),
(70,673,o),
(106,619,qs),
(146,559,o),
(168,417,o),
(168,216,qs),
(168,120,o),
(149,-6,o),
(106,-6,qs)
);
}
);
width = 209;
},
{
anchors = (
{
name = bottom;
pos = (377,0);
},
{
name = top;
pos = (377,1200);
}
);
layerId = "BA0CA162-2A9B-49EE-921D-3B4346C7D39F";
shapes = (
{
closed = 1;
nodes = (
(178,-10,o),
(10,157,o),
(10,411,q),
(364,411,l),
(364,322,o),
(364,244,o),
(378,244,qs),
(392,244,o),
(392,298,o),
(392,350,qs),
(392,423,o),
(327,449,o),
(220,472,qs),
(98,498,o),
(10,669,o),
(10,847,qs),
(10,1042,o),
(174,1206,o),
(376,1206,qs),
(578,1206,o),
(744,1045,o),
(744,788,q),
(390,788,l),
(390,870,o),
(390,954,o),
(376,954,qs),
(362,954,o),
(362,900,o),
(362,852,qs),
(362,776,o),
(428,762,o),
(530,741,qs),
(637,719,o),
(744,556,o),
(744,391,qs),
(744,162,o),
(582,-10,o),
(380,-10,qs)
);
}
);
width = 754;
},
{
anchors = (
{
name = bottom;
pos = (1056,0);
},
{
name = top;
pos = (1066,1172);
}
);
layerId = "C75D3228-2D13-4E9D-9829-45195F4951D0";
shapes = (
{
closed = 1;
nodes = (
(808,-10,o),
(240,83,o),
(118,132,q),
(552,426,l),
(606,396,o),
(916,317,o),
(1126,317,qs),
(1266,317,o),
(1462,339,o),
(1462,366,qs),
(1462,393,o),
(1114,398,o),
(893,412,qs),
(572,432,o),
(136,613,o),
(136,813,qs),
(136,1007,o),
(666,1184,o),
(1002,1184,qs),
(1316,1184,o),
(1846,1096,o),
(1956,1042,q),
(1521,752,l),
(1467,782,o),
(1166,859,o),
(990,859,qs),
(832,859,o),
(672,837,o),
(672,810,qs),
(672,783,o),
(1001,762,o),
(1211,749,qs),
(1535,729,o),
(2000,595,o),
(2000,394,qs),
(2000,170,o),
(1501,-10,o),
(1110,-10,qs)
);
}
);
width = 2118;
},
{
anchors = (
{
name = bottom;
pos = (830,0);
},
{
name = top;
pos = (839,1167);
}
);
layerId = "71977205-6510-4B11-BB00-17BACA883C8F";
shapes = (
{
closed = 1;
nodes = (
(522,-11,o),
(157,186,o),
(137,344,q),
(161,344,l),
(181,196,o),
(537,11,o),
(841,11,qs),
(1174,11,o),
(1495,179,o),
(1495,305,qs),
(1495,434,o),
(1089,539,o),
(813,580,qs),
(551,619,o),
(161,734,o),
(161,879,qs),
(161,1018,o),
(501,1177,o),
(819,1177,qs),
(1141,1177,o),
(1492,1008,o),
(1512,869,q),
(1488,869,l),
(1468,998,o),
(1131,1155,o),
(819,1155,qs),
(505,1155,o),
(185,1002,o),
(185,879,qs),
(185,750,o),
(573,638,o),
(841,599,qs),
(1111,560,o),
(1519,450,o),
(1519,305,qs),
(1519,164,o),
(1179,-11,o),
(841,-11,qs)
);
}
);
width = 1722;
}
);
unicode = 115;
},
{
color = 6;
glyphname = germandbls;
kernLeft = h;
kernRight = s;
lastChange = "2023-03-03 14:59:49 +0000";
layers = (
{
anchors = (
{
name = bottom;
pos = (119,0);
},
{
name = top;
pos = (103,1460);
}
);
layerId = "A1A0948C-E637-4A65-8CCC-05505AD98C44";
shapes = (
{
closed = 1;
nodes = (
(28,1200,ls),
(28,1418,o),
(54,1460,o),
(103,1460,cs),
(148,1460,o),
(176,1418,o),
(176,1252,cs),
(176,1091,o),
(105,896,o),
(105,774,cs),
(105,650,o),
(174,503,o),
(174,295,cs),
(174,95,o),
(154,0,o),
(76,0,c),
(76,22,l),
(142,22,o),
(152,115,o),
(152,291,cs),
(152,494,o),
(83,637,o),
(83,772,cs),
(83,908,o),
(154,1102,o),
(154,1250,cs),
(154,1408,o),
(132,1440,o),
(103,1440,cs),
(74,1440,o),
(50,1407,o),
(50,1204,cs),
(50,0,l),
(28,0,l)
);
}
);
width = 217;
},
{
anchors = (
{
name = bottom;
pos = (430,0);
},
{
name = top;
pos = (416,1458);
}
);
layerId = "BA0CA162-2A9B-49EE-921D-3B4346C7D39F";
shapes = (
{
closed = 1;
nodes = (
(12,1012,ls),
(12,1292,o),
(123,1458,o),
(411,1458,cs),
(657,1458,o),
(816,1314,o),
(816,1104,cs),
(816,914,o),
(742,866,o),
(742,764,cs),
(742,662,o),
(836,588,o),
(836,380,cs),
(836,94,o),
(712,0,o),
(394,0,c),
(394,250,l),
(432,250,o),
(458,292,o),
(458,398,cs),
(458,516,o),
(388,606,o),
(388,764,cs),
(388,932,o),
(458,1011,o),
(458,1096,cs),
(458,1152,o),
(455,1206,o),
(411,1206,cs),
(371,1206,o),
(360,1157,o),
(360,1061,cs),
(360,0,l),
(12,0,l)
);
}
);
width = 846;
},
{
anchors = (
{
name = bottom;
pos = (1069,0);
},
{
name = top;
pos = (1064,1474);
}
);
layerId = "C75D3228-2D13-4E9D-9829-45195F4951D0";
shapes = (
{
closed = 1;
nodes = (
(140,806,ls),
(140,1132,o),
(370,1474,o),
(1064,1474,cs),
(1734,1474,o),
(1926,1209,o),
(1926,1028,cs),
(1926,856,o),
(1766,798,o),
(1766,734,cs),
(1766,670,o),
(2042,632,o),
(2042,426,cs),
(2042,138,o),
(1686,0,o),
(900,0,c),
(900,356,l),
(1352,356,o),
(1448,422,o),
(1448,490,cs),
(1448,560,o),
(1244,598,o),
(1244,730,cs),
(1244,854,o),
(1380,882,o),
(1380,978,cs),
(1380,1059,o),
(1295,1124,o),
(1076,1124,cs),
(772,1124,o),
(698,944,o),
(698,818,cs),
(698,0,l),
(140,0,l)
);
}
);
width = 2160;
},
{
anchors = (
{
name = bottom;
pos = (878,0);
},
{
name = top;
pos = (846,1494);
}
);
layerId = "71977205-6510-4B11-BB00-17BACA883C8F";
shapes = (
{
closed = 1;
nodes = (
(150,853,ls),
(150,1306,o),
(479,1494,o),
(846,1494,cs),
(1165,1494,o),
(1372,1373,o),
(1372,1175,cs),
(1372,958,o),
(1198,946,o),
(1198,862,cs),
(1198,770,o),
(1618,764,o),
(1618,434,cs),
(1618,80,o),
(1172,0,o),
(532,0,c),
(532,22,l),
(1169,22,o),
(1594,107,o),
(1594,433,cs),
(1594,751,o),
(1174,745,o),
(1174,862,cs),
(1174,966,o),
(1348,966,o),
(1348,1175,cs),
(1348,1350,o),
(1169,1472,o),
(846,1472,cs),
(491,1472,o),
(172,1295,o),
(172,837,cs),
(172,0,l),
(150,0,l)
);
}
);
width = 1821;
}
);
metricLeft = B;
metricRight = s;
unicode = 223;
},
{
color = 6;
glyphname = t;
kernLeft = t;
kernRight = t;
lastChange = "2023-03-03 14:59:49 +0000";
layers = (
{
anchors = (
{
name = bottom;
pos = (94,0);
},
{
name = center;
pos = (69,716);
},
{
name = top;
pos = (61,1443);
},
{
name = topright;
pos = (136,1443);
}
);
layerId = "A1A0948C-E637-4A65-8CCC-05505AD98C44";
shapes = (
{
closed = 1;
nodes = (
(67,-10,o),
(50,28,o),
(50,100,qs),
(50,1178,l),
(8,1178,l),
(8,1200,l),
(50,1200,l),
(50,1443,l),
(72,1443,l),
(72,1200,l),
(122,1200,l),
(122,1178,l),
(72,1178,l),
(72,118,ls),
(72,46,o),
(78,12,o),
(92,12,qs),
(102,12,o),
(114,22,q),
(114,0,l),
(102,-10,o),
(88,-10,qs)
);
}
);
width = 134;
},
{
anchors = (
{
name = bottom;
pos = (366,0);
},
{
name = center;
pos = (284,715);
},
{
name = top;
pos = (271,1444);
},
{
name = topright;
pos = (555,1444);
}
);
layerId = "BA0CA162-2A9B-49EE-921D-3B4346C7D39F";
shapes = (
{
closed = 1;
nodes = (
(232,-14,o),
(92,110,o),
(92,292,qs),
(92,946,l),
(12,946,l),
(12,1200,l),
(92,1200,l),
(92,1444,l),
(438,1444,l),
(438,1200,l),
(546,1200,l),
(546,946,l),
(438,946,l),
(438,350,ls),
(438,284,o),
(466,248,o),
(492,248,qs),
(528,248,o),
(546,256,q),
(546,4,l),
(454,-14,o),
(358,-14,qs)
);
}
);
width = 558;
},
{
anchors = (
{
name = bottom;
pos = (1032,0);
},
{
name = center;
pos = (783,567);
},
{
name = top;
pos = (755,1463);
},
{
name = topright;
pos = (1641,1464);
}
);
layerId = "C75D3228-2D13-4E9D-9829-45195F4951D0";
shapes = (
{
closed = 1;
nodes = (
(848,-20,o),
(474,154,o),
(474,350,qs),
(474,810,l),
(26,810,l),
(26,1172,l),
(474,1172,l),
(474,1473,l),
(1032,1473,l),
(1032,1172,l),
(1606,1172,l),
(1606,810,l),
(1032,810,l),
(1032,486,ls),
(1032,381,o),
(1153,318,o),
(1260,318,qs),
(1374,318,o),
(1500,364,q),
(1500,24,l),
(1304,-20,o),
(1084,-20,qs)
);
}
);
width = 1709;
},
{
anchors = (
{
name = bottom;
pos = (951,0);
},
{
name = center;
pos = (602,722);
},
{
name = top;
pos = (612,1455);
},
{
name = topright;
pos = (1482,1449);
}
);
layerId = "71977205-6510-4B11-BB00-17BACA883C8F";
shapes = (
{
closed = 1;
nodes = (
(807,-10,o),
(590,129,o),
(590,323,qs),
(590,1146,l),
(56,1146,l),
(56,1168,l),
(590,1168,l),
(590,1455,l),
(612,1455,l),
(612,1168,l),
(1417,1168,l),
(1417,1146,l),
(612,1146,l),
(612,330,ls),
(612,148,o),
(807,12,o),
(980,12,qs),
(1114,12,o),
(1236,42,q),
(1236,20,l),
(1112,-10,o),
(976,-10,q)
);
}
);
width = 1590;
}
);
unicode = 116;
},
{
color = 6;
glyphname = t.ss01;
kernLeft = t;
kernRight = t;
lastChange = "2023-03-03 14:59:49 +0000";
layers = (
{
anchors = (
{
name = bottom;
pos = (57,0);
},
{
name = center;
pos = (59,726);
},
{
name = top;
pos = (57,1458);
},
{
name = topright;
pos = (104,1458);
}
);
layerId = "A1A0948C-E637-4A65-8CCC-05505AD98C44";
shapes = (
{
closed = 1;
nodes = (
(46,1178,l),
(10,1178,l),
(10,1200,l),
(46,1200,l),
(46,1458,l),
(68,1458,l),
(68,1200,l),
(104,1200,l),
(104,1178,l),
(68,1178,l),
(68,0,l),
(46,0,l)
);
}
);
width = 114;
},
{
anchors = (
{
name = bottom;
pos = (302,0);
},
{
name = center;
pos = (302,720);
},
{
name = top;
pos = (302,1444);
},
{
name = topright;
pos = (584,1350);
}
);
layerId = "BA0CA162-2A9B-49EE-921D-3B4346C7D39F";
shapes = (
{
closed = 1;
nodes = (
(132,946,l),
(12,946,l),
(12,1200,l),
(132,1200,l),
(132,1444,l),
(476,1444,l),
(476,1200,l),
(592,1200,l),
(592,946,l),
(476,946,l),
(476,0,l),
(132,0,l)
);
}
);
width = 604;
},
{
anchors = (
{
name = bottom;
pos = (851,0);
},
{
name = center;
pos = (860,536);
},
{
name = top;
pos = (854,1470);
},
{
name = topright;
pos = (1742,1072);
}
);
layerId = "C75D3228-2D13-4E9D-9829-45195F4951D0";
shapes = (
{
closed = 1;
nodes = (
(574,850,l),
(26,850,l),
(26,1172,l),
(574,1172,l),
(574,1470,l),
(1134,1470,l),
(1134,1172,l),
(1682,1172,l),
(1682,850,l),
(1134,850,l),
(1134,0,l),
(574,0,l)
);
}
);
width = 1762;
},
{
anchors = (
{
name = bottom;
pos = (733,0);
},
{
name = center;
pos = (729,722);
},
{
name = top;
pos = (734,1443);
},
{
name = topright;
pos = (1417,1348);
}
);
layerId = "71977205-6510-4B11-BB00-17BACA883C8F";
shapes = (
{
closed = 1;
nodes = (
(722,1146,l),
(64,1146,l),
(64,1168,l),
(722,1168,l),
(722,1443,l),
(744,1443,l),
(744,1168,l),
(1400,1168,l),
(1400,1146,l),
(744,1146,l),
(744,0,l),
(722,0,l)
);
}
);
width = 1566;
}
);
},
{
color = 3;
glyphname = tbar;
kernRight = t;
lastChange = "2023-03-03 14:59:49 +0000";
layers = (
{
layerId = "A1A0948C-E637-4A65-8CCC-05505AD98C44";
shapes = (
{
closed = 1;
nodes = (
(12,726,l),
(112,726,l),
(112,704,l),
(12,704,l)
);
},
{
ref = t;
}
);
width = 134;
},
{
layerId = "BA0CA162-2A9B-49EE-921D-3B4346C7D39F";
shapes = (
{
closed = 1;
nodes = (
(12,708,l),
(538,708,l),
(538,476,l),
(12,476,l)
);
},
{
ref = t;
}
);
width = 558;
},
{
layerId = "C75D3228-2D13-4E9D-9829-45195F4951D0";
shapes = (
{
closed = 1;
nodes = (
(184,698,l),
(1322,698,l),
(1322,456,l),
(184,456,l)
);
},
{
ref = t;
}
);
width = 1709;
},
{
layerId = "71977205-6510-4B11-BB00-17BACA883C8F";
shapes = (
{
closed = 1;
nodes = (
(118,686,l),
(1087,686,l),
(1087,664,l),
(118,664,l)
);
},
{
ref = t;
}
);
width = 1590;
}
);
metricLeft = t;
metricRight = t;
unicode = 359;
},
{
color = 3;
glyphname = tcaron;
kernRight = t;
lastChange = "2023-03-03 14:59:49 +0000";
layers = (
{
layerId = "A1A0948C-E637-4A65-8CCC-05505AD98C44";
shapes = (
{
closed = 1;
nodes = (
(136,1440,l),
(156,1440,l),
(140,1300,l),
(126,1300,l)
);
},
{
ref = t;
}
);
width = 156;
},
{
layerId = "BA0CA162-2A9B-49EE-921D-3B4346C7D39F";
shapes = (
{
closed = 1;
nodes = (
(610,1445,l),
(792,1445,l),
(720,1187,l),
(560,1187,l)
);
},
{
ref = t;
}
);
width = 792;
},
{
layerId = "C75D3228-2D13-4E9D-9829-45195F4951D0";
shapes = (
{
closed = 1;
nodes = (
(1680,1477,l),
(1952,1477,l),
(1882,1132,l),
(1630,1132,l)
);
},
{
ref = t;
}
);
width = 1952;
},
{
layerId = "71977205-6510-4B11-BB00-17BACA883C8F";
shapes = (
{
closed = 1;
nodes = (
(1488,1436,l),
(1513,1436,l),
(1476,1223,l),
(1454,1223,l)
);
},
{
ref = t;
}
);
width = 1513;
}
);
unicode = 357;
},
{
color = 6;
glyphname = u;
kernLeft = u;
kernRight = u;
lastChange = "2023-03-03 14:59:49 +0000";
layers = (
{
anchors = (
{
name = bottom;
pos = (101,0);
},
{
name = ogonek;
pos = (162,0);
},
{
name = top;
pos = (99,1200);
},
{
name = topright;
pos = (161,1200);
}
);
layerId = "A1A0948C-E637-4A65-8CCC-05505AD98C44";
shapes = (
{
closed = 1;
nodes = (
(140,70,l),
(140,1200,l),
(162,1200,l),
(162,0,l),
(140,0,l)
);
},
{
closed = 1;
nodes = (
(56,358,ls),
(56,189,o),
(56,10,o),
(84,10,qs),
(105,10,o),
(140,133,o),
(140,177,q),
(149,144,l),
(149,94,o),
(115,-12,o),
(82,-12,qs),
(34,-12,o),
(34,185,o),
(34,368,qs),
(34,1200,l),
(56,1200,l)
);
}
);
width = 206;
},
{
anchors = (
{
name = bottom;
pos = (370,0);
},
{
name = ogonek;
pos = (728,0);
},
{
name = top;
pos = (370,1200);
},
{
name = topright;
pos = (726,1200);
}
);
layerId = "BA0CA162-2A9B-49EE-921D-3B4346C7D39F";
shapes = (
{
closed = 1;
nodes = (
(384,158,l),
(384,1200,l),
(728,1200,l),
(728,0,l),
(472,0,l)
);
},
{
closed = 1;
nodes = (
(356,563,ls),
(356,337,o),
(356,247,o),
(370,247,qs),
(384,247,o),
(384,337,o),
(384,447,q),
(554,439,l),
(554,228,o),
(366,-7,o),
(218,-7,q),
(14,-7,o),
(14,359,o),
(14,559,qs),
(14,1200,l),
(356,1200,l)
);
}
);
width = 742;
},
{
anchors = (
{
name = bottom;
pos = (1054,0);
},
{
name = ogonek;
pos = (1924,0);
},
{
name = top;
pos = (1044,1172);
},
{
name = topright;
pos = (1922,1172);
}
);
layerId = "C75D3228-2D13-4E9D-9829-45195F4951D0";
shapes = (
{
closed = 1;
nodes = (
(1366,201,l),
(1366,1172,l),
(1924,1172,l),
(1924,0,l),
(1489,0,l)
);
},
{
closed = 1;
nodes = (
(674,638,ls),
(674,483,o),
(810,351,o),
(952,351,qs),
(1112,351,o),
(1370,556,o),
(1370,713,q),
(1640,567,l),
(1640,445,o),
(1207,-11,o),
(768,-11,qs),
(465,-11,o),
(114,272,o),
(114,595,qs),
(114,1172,l),
(674,1172,l)
);
}
);
width = 2108;
},
{
anchors = (
{
name = bottom;
pos = (830,0);
},
{
name = ogonek;
pos = (1502,0);
},
{
name = top;
pos = (840,1168);
},
{
name = topright;
pos = (1484,1168);
}
);
layerId = "71977205-6510-4B11-BB00-17BACA883C8F";
shapes = (
{
closed = 1;
nodes = (
(1480,360,l),
(1480,1168,l),
(1502,1168,l),
(1502,0,l),
(1480,0,l)
);
},
{
closed = 1;
nodes = (
(202,530,ls),
(202,263,o),
(520,10,o),
(810,10,qs),
(1096,10,o),
(1480,297,o),
(1480,543,q),
(1492,482,l),
(1492,273,o),
(1099,-12,o),
(810,-12,qs),
(508,-12,o),
(180,254,o),
(180,528,qs),
(180,1172,l),
(202,1172,l)
);
}
);
width = 1757;
}
);
unicode = 117;
},
{
color = 6;
glyphname = v;
kernLeft = v;
kernRight = v;
lastChange = "2023-03-03 14:59:49 +0000";
layers = (
{
anchors = (
{
name = bottom;
pos = (92,0);
},
{
name = top;
pos = (88,1200);
}
);
layerId = "A1A0948C-E637-4A65-8CCC-05505AD98C44";
shapes = (
{
closed = 1;
nodes = (
(20,1200,l),
(43,1200,l),
(86,22,l),
(90,22,l),
(133,1200,l),
(154,1200,l),
(108,0,l),
(66,0,l)
);
}
);
width = 182;
},
{
anchors = (
{
name = bottom;
pos = (391,0);
},
{
name = top;
pos = (391,1200);
}
);
layerId = "BA0CA162-2A9B-49EE-921D-3B4346C7D39F";
shapes = (
{
closed = 1;
nodes = (
(6,1200,l),
(366,1200,l),
(389,244,l),
(393,244,l),
(416,1200,l),
(776,1200,l),
(662,0,l),
(120,0,l)
);
}
);
width = 782;
},
{
anchors = (
{
name = bottom;
pos = (978,0);
},
{
name = top;
pos = (980,1172);
}
);
layerId = "C75D3228-2D13-4E9D-9829-45195F4951D0";
shapes = (
{
closed = 1;
nodes = (
(12,1172,l),
(598,1172,l),
(979,356,l),
(980,356,l),
(1362,1172,l),
(1946,1172,l),
(1324,0,l),
(634,0,l)
);
}
);
width = 1999;
},
{
anchors = (
{
name = bottom;
pos = (847,0);
},
{
name = top;
pos = (847,1168);
}
);
layerId = "71977205-6510-4B11-BB00-17BACA883C8F";
shapes = (
{
closed = 1;
nodes = (
(119,1172,l),
(146,1172,l),
(845,27,l),
(847,27,l),
(1546,1172,l),
(1573,1172,l),
(858,0,l),
(834,0,l)
);
}
);
width = 1712;
}
);
unicode = 118;
},
{
color = 6;
glyphname = w;
kernLeft = w;
kernRight = w;
lastChange = "2023-03-03 14:59:49 +0000";
layers = (
{
anchors = (
{
name = bottom;
pos = (168,0);
},
{
name = top;
pos = (163,1200);
}
);
layerId = "A1A0948C-E637-4A65-8CCC-05505AD98C44";
shapes = (
{
closed = 1;
nodes = (
(31,1200,l),
(53,1200,l),
(89,23,l),
(91,23,l),
(145,1200,l),
(183,1200,l),
(235,23,l),
(237,23,l),
(273,1200,l),
(295,1200,l),
(256,0,l),
(216,0,l),
(164,1178,l),
(110,0,l),
(70,0,l)
);
}
);
width = 326;
},
{
anchors = (
{
name = bottom;
pos = (636,0);
},
{
name = top;
pos = (638,1200);
}
);
layerId = "BA0CA162-2A9B-49EE-921D-3B4346C7D39F";
shapes = (
{
closed = 1;
nodes = (
(2,1200,l),
(368,1200,l),
(367,254,l),
(371,254,l),
(450,1200,l),
(828,1200,l),
(901,254,l),
(905,254,l),
(896,1200,l),
(1270,1200,l),
(1150,0,l),
(691,0,l),
(638,844,l),
(582,0,l),
(120,0,l)
);
}
);
width = 1272;
},
{
anchors = (
{
name = bottom;
pos = (1485,0);
},
{
name = top;
pos = (1453,1172);
}
);
layerId = "C75D3228-2D13-4E9D-9829-45195F4951D0";
shapes = (
{
closed = 1;
nodes = (
(80,1172,l),
(648,1172,l),
(885,332,l),
(886,332,l),
(1202,1172,l),
(1718,1172,l),
(2032,339,l),
(2033,339,l),
(2266,1172,l),
(2824,1172,l),
(2412,0,l),
(1680,0,l),
(1455,624,l),
(1232,0,l),
(492,0,l)
);
}
);
width = 2924;
},
{
anchors = (
{
name = bottom;
pos = (1120,0);
},
{
name = top;
pos = (1117,1168);
}
);
layerId = "71977205-6510-4B11-BB00-17BACA883C8F";
shapes = (
{
closed = 1;
nodes = (
(134,1168,l),
(161,1168,l),
(593,20,l),
(594,20,l),
(1102,1168,l),
(1133,1168,l),
(1657,20,l),
(1658,20,l),
(2079,1168,l),
(2105,1168,l),
(1678,0,l),
(1636,0,l),
(1117,1148,l),
(614,0,l),
(572,0,l)
);
}
);
width = 2278;
}
);
unicode = 119;
},
{
color = 6;
glyphname = x;
kernLeft = x;
kernRight = x;
lastChange = "2023-03-03 14:59:49 +0000";
layers = (
{
anchors = (
{
name = bottom;
pos = (103,0);
},
{
name = top;
pos = (98,1200);
}
);
layerId = "A1A0948C-E637-4A65-8CCC-05505AD98C44";
shapes = (
{
closed = 1;
nodes = (
(79,600,l),
(27,1200,l),
(49,1200,l),
(98,617,l),
(147,1200,l),
(169,1200,l),
(117,600,l),
(170,0,l),
(148,0,l),
(98,583,l),
(48,0,l),
(26,0,l)
);
}
);
width = 206;
},
{
anchors = (
{
name = bottom;
pos = (392,0);
},
{
name = top;
pos = (392,1200);
}
);
layerId = "BA0CA162-2A9B-49EE-921D-3B4346C7D39F";
shapes = (
{
closed = 1;
nodes = (
(110,600,l),
(4,1200,l),
(364,1200,l),
(392,727,l),
(420,1200,l),
(780,1200,l),
(674,600,l),
(780,0,l),
(420,0,l),
(392,473,l),
(364,0,l),
(4,0,l)
);
}
);
width = 784;
},
{
anchors = (
{
name = bottom;
pos = (1045,0);
},
{
name = top;
pos = (1055,1172);
}
);
layerId = "C75D3228-2D13-4E9D-9829-45195F4951D0";
shapes = (
{
closed = 1;
nodes = (
(680,586,l),
(56,1172,l),
(716,1172,l),
(1058,822,l),
(1380,1172,l),
(2030,1172,l),
(1400,586,l),
(2036,0,l),
(1376,0,l),
(1018,350,l),
(682,0,l),
(32,0,l)
);
}
);
width = 2090;
},
{
anchors = (
{
name = bottom;
pos = (856,0);
},
{
name = top;
pos = (813,1168);
}
);
layerId = "71977205-6510-4B11-BB00-17BACA883C8F";
shapes = (
{
closed = 1;
nodes = (
(793,584,l),
(72,1168,l),
(108,1168,l),
(813,594,l),
(1519,1168,l),
(1555,1168,l),
(834,584,l),
(1585,0,l),
(1549,0,l),
(813,574,l),
(78,0,l),
(42,0,l)
);
}
);
width = 1673;
}
);
unicode = 120;
},
{
color = 6;
glyphname = y;
kernLeft = v;
kernRight = v;
lastChange = "2023-03-03 14:59:49 +0000";
layers = (
{
anchors = (
{
name = bottom;
pos = (142,-237);
},
{
name = top;
pos = (97,1200);
}
);
layerId = "A1A0948C-E637-4A65-8CCC-05505AD98C44";
shapes = (
{
closed = 1;
nodes = (
(30,1200,l),
(52,1200,l),
(89,28,l),
(91,28,l),
(142,1200,l),
(164,1200,l),
(112,0,l),
(68,0,l)
);
},
{
closed = 1;
nodes = (
(15,-436,l),
(51,-436,o),
(76,-277,o),
(90,0,q),
(112,0,l),
(98,-286,o),
(65,-458,o),
(15,-458,q)
);
}
);
width = 179;
},
{
anchors = (
{
name = bottom;
pos = (748,-242);
},
{
name = top;
pos = (751,1168);
}
);
layerId = "71977205-6510-4B11-BB00-17BACA883C8F";
shapes = (
{
closed = 1;
nodes = (
(65,1168,l),
(92,1168,l),
(759,27,l),
(760,27,l),
(1408,1168,l),
(1435,1168,l),
(771,0,l),
(748,0,l)
);
},
{
closed = 1;
nodes = (
(74,-433,l),
(278,-433,o),
(611,-235,o),
(748,0,q),
(771,0,l),
(630,-248,o),
(280,-455,o),
(74,-455,q)
);
}
);
width = 1551;
},
{
anchors = (
{
name = bottom;
pos = (737,-210);
},
{
name = top;
pos = (402,1200);
}
);
layerId = "BA0CA162-2A9B-49EE-921D-3B4346C7D39F";
shapes = (
{
closed = 1;
nodes = (
(2,1200,l),
(359,1200,l),
(409,276,l),
(411,276,l),
(455,1200,l),
(812,1200,l),
(705,0,l),
(119,0,l)
);
},
{
closed = 1;
nodes = (
(71,-202,l),
(227,-201,o),
(386,-125,o),
(397,0,q),
(705,0,l),
(679,-296,o),
(335,-460,o),
(71,-460,q)
);
}
);
width = 814;
},
{
anchors = (
{
name = bottom;
pos = (1328,-243);
},
{
name = top;
pos = (965,1172);
}
);
layerId = "C75D3228-2D13-4E9D-9829-45195F4951D0";
shapes = (
{
closed = 1;
nodes = (
(30,1172,l),
(616,1172,l),
(963,306,l),
(965,306,l),
(1312,1172,l),
(1898,1172,l),
(1360,0,l),
(568,0,l)
);
},
{
closed = 1;
nodes = (
(199,-132,l),
(519,-132,o),
(785,-97,o),
(834,2,q),
(1360,0,l),
(1219,-292,o),
(679,-480,o),
(199,-480,q)
);
}
);
width = 1970;
}
);
unicode = 121;
},
{
color = 6;
glyphname = z;
kernLeft = z;
kernRight = z;
lastChange = "2023-03-03 14:59:49 +0000";
layers = (
{
anchors = (
{
name = bottom;
pos = (87,0);
},
{
name = center;
pos = (87,604);
},
{
name = top;
pos = (92,1200);
}
);
layerId = "A1A0948C-E637-4A65-8CCC-05505AD98C44";
shapes = (
{
closed = 1;
nodes = (
(20,24,l),
(119,1174,l),
(119,1178,l),
(30,1178,l),
(30,1200,l),
(142,1200,l),
(142,1176,l),
(43,30,l),
(43,22,l),
(144,22,l),
(144,0,l),
(20,0,l)
);
}
);
width = 164;
},
{
anchors = (
{
name = bottom;
pos = (252,0);
},
{
name = center;
pos = (252,600);
},
{
name = top;
pos = (254,1200);
}
);
layerId = "BA0CA162-2A9B-49EE-921D-3B4346C7D39F";
shapes = (
{
closed = 1;
nodes = (
(12,236,l),
(152,948,l),
(152,950,l),
(20,950,l),
(20,1200,l),
(488,1200,l),
(488,964,l),
(351,252,l),
(351,250,l),
(492,250,l),
(492,0,l),
(12,0,l)
);
}
);
width = 504;
},
{
anchors = (
{
name = bottom;
pos = (940,0);
},
{
name = center;
pos = (940,586);
},
{
name = top;
pos = (930,1172);
}
);
layerId = "C75D3228-2D13-4E9D-9829-45195F4951D0";
shapes = (
{
closed = 1;
nodes = (
(130,364,l),
(1013,809,l),
(1013,810,l),
(120,810,l),
(120,1172,l),
(1724,1172,l),
(1724,810,l),
(872,363,l),
(872,362,l),
(1740,362,l),
(1740,0,l),
(130,0,l)
);
}
);
width = 1880;
},
{
anchors = (
{
name = bottom;
pos = (728,0);
},
{
name = center;
pos = (714,588);
},
{
name = top;
pos = (715,1168);
}
);
layerId = "71977205-6510-4B11-BB00-17BACA883C8F";
shapes = (
{
closed = 1;
nodes = (
(117,31,l),
(1267,1145,l),
(1267,1146,l),
(134,1146,l),
(134,1168,l),
(1290,1168,l),
(1290,1132,l),
(144,23,l),
(144,22,l),
(1311,22,l),
(1311,0,l),
(117,0,l)
);
}
);
width = 1506;
}
);
unicode = 122;
},
{
color = 6;
glyphname = ordfeminine;
kernLeft = ordfeminine;
kernRight = ordfeminine;
lastChange = "2023-03-03 14:59:49 +0000";
layers = (
{
layerId = "A1A0948C-E637-4A65-8CCC-05505AD98C44";
shapes = (
{
closed = 1;
nodes = (
(134,861,l),
(134,1123,ls),
(134,1228,o),
(134,1341,o),
(96,1341,qs),
(58,1341,o),
(58,1229,o),
(58,1133,q),
(36,1133,l),
(36,1230,o),
(36,1363,o),
(96,1363,qs),
(156,1363,o),
(156,1229,o),
(156,1121,qs),
(156,831,l),
(134,831,l)
);
},
{
closed = 1;
nodes = (
(58,827,o),
(36,885,o),
(36,940,qs),
(36,986,o),
(37,1085,o),
(86,1100,qs),
(106,1106,o),
(146,1107,q),
(146,1083,l),
(114,1083,o),
(92,1077,qs),
(58,1068,o),
(58,986,o),
(58,941,qs),
(58,894,o),
(74,849,o),
(94,849,qs),
(116,849,o),
(134,894,o),
(134,946,q),
(153,939,l),
(153,889,o),
(128,827,o),
(94,827,qs)
);
}
);
width = 200;
},
{
layerId = "BA0CA162-2A9B-49EE-921D-3B4346C7D39F";
shapes = (
{
closed = 1;
nodes = (
(239,861,l),
(239,1143,ls),
(239,1196,o),
(239,1225,o),
(226,1225,qs),
(213,1225,o),
(213,1197,o),
(213,1153,q),
(11,1153,l),
(11,1268,o),
(84,1363,o),
(231,1363,qs),
(378,1363,o),
(451,1268,o),
(451,1153,qs),
(451,831,l),
(280,831,l)
);
},
{
closed = 1;
nodes = (
(84,826,o),
(11,905,o),
(11,981,qs),
(11,1054,o),
(70,1113,o),
(118,1124,qs),
(174,1137,o),
(271,1137,q),
(271,1025,l),
(237,1025,o),
(229,1023,qs),
(219,1021,o),
(213,1006,o),
(213,994,qs),
(213,978,o),
(216,966,o),
(226,966,qs),
(236,966,o),
(239,979,o),
(239,1006,q),
(352,970,l),
(352,920,o),
(249,826,o),
(168,826,qs)
);
}
);
width = 464;
},
{
layerId = "C75D3228-2D13-4E9D-9829-45195F4951D0";
shapes = (
{
closed = 1;
nodes = (
(668,874,l),
(668,1133,ls),
(668,1176,o),
(608,1198,o),
(506,1198,qs),
(419,1198,o),
(222,1176,o),
(220,1175,q),
(108,1337,l),
(119,1341,o),
(378,1363,o),
(539,1363,qs),
(754,1363,o),
(950,1238,o),
(950,1123,qs),
(950,831,l),
(668,831,l)
);
},
{
closed = 1;
nodes = (
(248,821,o),
(88,900,o),
(88,994,qs),
(88,1071,o),
(268,1164,o),
(516,1164,qs),
(572,1164,o),
(700,1164,q),
(700,1025,l),
(554,1023,o),
(491,1023,qs),
(447,1023,o),
(370,1014,o),
(370,997,qs),
(370,978,o),
(413,972,o),
(459,972,qs),
(563,972,o),
(668,1004,o),
(668,1031,q),
(785,1003,l),
(785,905,o),
(561,821,o),
(392,821,qs)
);
}
);
width = 1120;
},
{
layerId = "71977205-6510-4B11-BB00-17BACA883C8F";
shapes = (
{
closed = 1;
nodes = (
(922,861,l),
(922,1123,ls),
(922,1238,o),
(734,1341,o),
(544,1341,qs),
(358,1341,o),
(187,1254,o),
(187,1180,q),
(165,1180,l),
(165,1265,o),
(349,1363,o),
(544,1363,qs),
(746,1363,o),
(944,1251,o),
(944,1121,qs),
(944,831,l),
(922,831,l)
);
},
{
closed = 1;
nodes = (
(317,827,o),
(142,909,o),
(142,987,qs),
(142,1060,o),
(320,1137,o),
(532,1135,qs),
(745,1133,o),
(934,1133,q),
(934,1112,l),
(769,1112,o),
(535,1113,qs),
(322,1114,o),
(165,1048,o),
(165,987,qs),
(165,917,o),
(332,849,o),
(531,849,qs),
(724,849,o),
(922,932,o),
(922,975,q),
(943,969,l),
(943,919,o),
(732,827,o),
(531,827,qs)
);
}
);
width = 1167;
}
);
metricLeft = a;
metricRight = a;
unicode = 170;
},
{
color = 6;
glyphname = ordmasculine;
kernLeft = ordmasculine;
kernRight = ordmasculine;
lastChange = "2023-03-03 14:59:49 +0000";
layers = (
{
layerId = "A1A0948C-E637-4A65-8CCC-05505AD98C44";
shapes = (
{
closed = 1;
nodes = (
(50,828,o),
(24,906,o),
(24,1012,qs),
(24,1174,ls),
(24,1280,o),
(50,1358,o),
(84,1358,qs),
(120,1358,o),
(146,1280,o),
(146,1174,qs),
(146,1012,ls),
(146,906,o),
(120,828,o),
(84,828,qs)
);
},
{
closed = 1;
nodes = (
(108,850,o),
(124,918,o),
(124,1014,qs),
(124,1172,ls),
(124,1268,o),
(108,1336,o),
(84,1336,qs),
(62,1336,o),
(46,1268,o),
(46,1172,qs),
(46,1014,ls),
(46,918,o),
(62,850,o),
(84,850,qs)
);
}
);
width = 180;
},
{
layerId = "BA0CA162-2A9B-49EE-921D-3B4346C7D39F";
shapes = (
{
closed = 1;
nodes = (
(140,830,o),
(12,922,o),
(12,1042,qs),
(12,1152,ls),
(12,1274,o),
(138,1364,o),
(256,1364,qs),
(374,1364,o),
(500,1274,o),
(500,1152,qs),
(500,1042,ls),
(500,920,o),
(374,830,o),
(256,830,qs)
);
},
{
closed = 1;
nodes = (
(264,982,o),
(270,993,o),
(270,1020,qs),
(270,1176,ls),
(270,1201,o),
(264,1212,o),
(256,1212,q),
(246,1212,o),
(240,1201,o),
(240,1176,qs),
(240,1020,ls),
(240,993,o),
(246,982,o),
(256,982,q)
);
}
);
width = 512;
},
{
layerId = "C75D3228-2D13-4E9D-9829-45195F4951D0";
shapes = (
{
closed = 1;
nodes = (
(296,820,o),
(46,950,o),
(46,1074,qs),
(46,1118,ls),
(46,1242,o),
(296,1374,o),
(536,1374,qs),
(774,1374,o),
(1020,1244,o),
(1020,1118,qs),
(1020,1074,ls),
(1020,950,o),
(774,820,o),
(536,820,qs)
);
},
{
closed = 1;
nodes = (
(606,1008,o),
(680,1046,o),
(680,1086,qs),
(680,1106,ls),
(680,1146,o),
(606,1184,o),
(532,1184,qs),
(458,1184,o),
(388,1146,o),
(388,1106,qs),
(388,1086,ls),
(388,1046,o),
(458,1008,o),
(532,1008,qs)
);
}
);
width = 1021;
},
{
layerId = "71977205-6510-4B11-BB00-17BACA883C8F";
shapes = (
{
closed = 1;
nodes = (
(290,823,o),
(52,950,o),
(52,1088,qs),
(52,1100,ls),
(52,1241,o),
(290,1365,o),
(538,1365,qs),
(785,1365,o),
(1023,1241,o),
(1023,1100,qs),
(1023,1088,ls),
(1023,950,o),
(785,823,o),
(538,823,qs)
);
},
{
closed = 1;
nodes = (
(773,845,o),
(1001,962,o),
(1001,1090,qs),
(1001,1098,ls),
(1001,1229,o),
(773,1343,o),
(538,1343,qs),
(302,1343,o),
(74,1229,o),
(74,1098,qs),
(74,1090,ls),
(74,962,o),
(302,845,o),
(538,845,qs)
);
}
);
width = 1098;
}
);
unicode = 186;
},
{
color = 6;
glyphname = zero;
kernLeft = zero;
kernRight = zero;
lastChange = "2023-03-03 14:59:49 +0000";
layers = (
{
layerId = "A1A0948C-E637-4A65-8CCC-05505AD98C44";
shapes = (
{
closed = 1;
nodes = (
(48,-6,o),
(24,62,o),
(24,154,qs),
(24,1196,ls),
(24,1288,o),
(48,1356,o),
(76,1356,qs),
(104,1356,o),
(128,1288,o),
(128,1196,qs),
(128,154,ls),
(128,62,o),
(104,-6,o),
(76,-6,qs)
);
},
{
closed = 1;
nodes = (
(92,16,o),
(106,76,o),
(106,158,qs),
(106,1194,ls),
(106,1274,o),
(92,1334,o),
(76,1334,qs),
(60,1334,o),
(46,1274,o),
(46,1194,qs),
(46,158,ls),
(46,76,o),
(60,16,o),
(76,16,qs)
);
}
);
width = 162;
},
{
layerId = "BA0CA162-2A9B-49EE-921D-3B4346C7D39F";
shapes = (
{
closed = 1;
nodes = (
(188,-16,o),
(12,120,o),
(12,266,qs),
(12,1080,ls),
(12,1226,o),
(188,1362,o),
(374,1362,qs),
(560,1362,o),
(736,1226,o),
(736,1080,qs),
(736,266,ls),
(736,120,o),
(560,-16,o),
(374,-16,qs)
);
},
{
closed = 1;
nodes = (
(382,238,o),
(386,260,o),
(386,304,qs),
(386,1042,ls),
(386,1086,o),
(382,1108,o),
(374,1108,qs),
(366,1108,o),
(362,1086,o),
(362,1042,qs),
(362,304,ls),
(362,260,o),
(366,238,o),
(374,238,qs)
);
}
);
width = 744;
},
{
layerId = "C75D3228-2D13-4E9D-9829-45195F4951D0";
shapes = (
{
closed = 1;
nodes = (
(514,-16,o),
(92,246,o),
(92,534,qs),
(92,812,ls),
(92,1100,o),
(518,1362,o),
(948,1362,qs),
(1378,1362,o),
(1802,1100,o),
(1802,812,qs),
(1802,534,ls),
(1802,246,o),
(1378,-16,o),
(948,-16,qs)
);
},
{
closed = 1;
nodes = (
(1102,346,o),
(1242,444,o),
(1242,534,qs),
(1242,814,ls),
(1242,904,o),
(1104,1000,o),
(948,1000,qs),
(784,1000,o),
(650,906,o),
(650,814,qs),
(650,534,ls),
(650,442,o),
(784,346,o),
(948,346,qs)
);
}
);
width = 1941;
},
{
layerId = "71977205-6510-4B11-BB00-17BACA883C8F";
shapes = (
{
closed = 1;
nodes = (
(432,-18,o),
(138,222,o),
(138,440,qs),
(138,906,ls),
(138,1124,o),
(428,1362,o),
(732,1362,qs),
(1036,1362,o),
(1326,1122,o),
(1326,906,qs),
(1326,440,ls),
(1326,222,o),
(1038,-18,o),
(734,-18,qs)
);
},
{
closed = 1;
nodes = (
(1034,4,o),
(1304,234,o),
(1304,444,qs),
(1304,898,ls),
(1304,1110,o),
(1034,1340,o),
(732,1340,qs),
(430,1340,o),
(160,1110,o),
(160,898,qs),
(160,444,ls),
(160,234,o),
(436,4,o),
(734,4,qs)
);
}
);
width = 1484;
}
);
unicode = 48;
},
{
color = 6;
glyphname = one;
kernLeft = one;
kernRight = one;
lastChange = "2023-03-03 14:59:49 +0000";
layers = (
{
layerId = "A1A0948C-E637-4A65-8CCC-05505AD98C44";
shapes = (
{
closed = 1;
nodes = (
(30,22,l),
(60,22,l),
(60,1328,l),
(24,1290,l),
(24,1316,l),
(58,1352,l),
(82,1352,l),
(82,22,l),
(112,22,l),
(112,0,l),
(30,0,l)
);
}
);
width = 146;
},
{
layerId = "BA0CA162-2A9B-49EE-921D-3B4346C7D39F";
shapes = (
{
closed = 1;
nodes = (
(36,254,l),
(168,254,l),
(168,1068,l),
(12,992,l),
(12,1254,l),
(206,1352,l),
(510,1352,l),
(510,254,l),
(642,254,l),
(642,0,l),
(36,0,l)
);
}
);
width = 654;
},
{
layerId = "C75D3228-2D13-4E9D-9829-45195F4951D0";
shapes = (
{
closed = 1;
nodes = (
(88,362,l),
(674,362,l),
(674,908,l),
(100,782,l),
(100,1176,l),
(786,1352,l),
(1234,1352,l),
(1234,362,l),
(1792,362,l),
(1792,0,l),
(88,0,l)
);
}
);
width = 1881;
},
{
layerId = "71977205-6510-4B11-BB00-17BACA883C8F";
shapes = (
{
closed = 1;
nodes = (
(152,22,l),
(670,22,l),
(670,1330,l),
(142,1266,l),
(142,1288,l),
(680,1352,l),
(692,1352,l),
(692,22,l),
(1218,22,l),
(1218,0,l),
(152,0,l)
);
}
);
width = 1380;
}
);
unicode = 49;
},
{
color = 6;
glyphname = two;
kernLeft = two;
kernRight = two;
lastChange = "2023-03-03 14:59:49 +0000";
layers = (
{
layerId = "A1A0948C-E637-4A65-8CCC-05505AD98C44";
shapes = (
{
closed = 1;
nodes = (
(24,18,l),
(24,54,o),
(28,334,o),
(58,494,qs),
(88,668,o),
(106,990,o),
(106,1172,qs),
(106,1292,o),
(92,1334,o),
(78,1334,qs),
(50,1334,o),
(50,1172,o),
(50,870,q),
(28,870,l),
(28,1170,o),
(28,1356,o),
(78,1356,qs),
(106,1356,o),
(128,1298,o),
(128,1166,qs),
(128,992,o),
(108,660,o),
(78,492,qs),
(48,322,o),
(46,64,o),
(46,22,q),
(128,22,l),
(128,0,l),
(24,0,l)
);
}
);
width = 162;
},
{
layerId = "BA0CA162-2A9B-49EE-921D-3B4346C7D39F";
shapes = (
{
closed = 1;
nodes = (
(12,184,l),
(12,304,o),
(140,514,o),
(238,658,qs),
(320,782,o),
(380,880,o),
(380,948,qs),
(380,1062,o),
(380,1108,o),
(368,1108,qs),
(356,1108,o),
(356,1062,o),
(356,920,q),
(12,920,l),
(12,1012,o),
(12,1362,o),
(360,1362,qs),
(730,1362,o),
(728,1040,o),
(728,940,qs),
(728,828,o),
(599,626,o),
(503,474,qs),
(439,372,o),
(381,280,o),
(381,254,q),
(728,254,l),
(728,0,l),
(12,0,l)
);
}
);
width = 742;
},
{
layerId = "C75D3228-2D13-4E9D-9829-45195F4951D0";
shapes = (
{
closed = 1;
nodes = (
(130,339,l),
(130,520,o),
(462,720,o),
(830,758,qs),
(1194,796,o),
(1310,842,o),
(1310,896,qs),
(1310,950,o),
(1166,1000,o),
(1036,1000,qs),
(878,1000,o),
(682,926,o),
(682,846,q),
(124,846,l),
(124,1104,o),
(608,1362,o),
(1044,1362,qs),
(1480,1362,o),
(1874,1104,o),
(1874,918,qs),
(1874,689,o),
(1502,464,o),
(1213,437,qs),
(959,413,o),
(715,387,o),
(715,362,q),
(1869,362,l),
(1869,0,l),
(130,0,l)
);
}
);
width = 2009;
},
{
layerId = "71977205-6510-4B11-BB00-17BACA883C8F";
shapes = (
{
closed = 1;
nodes = (
(133,24,l),
(133,218,o),
(426,466,o),
(740,580,qs),
(1007,677,o),
(1318,846,o),
(1318,1006,qs),
(1318,1148,o),
(1020,1340,o),
(742,1340,qs),
(464,1340,o),
(150,1104,o),
(150,900,q),
(124,900,l),
(124,1112,o),
(454,1362,o),
(742,1362,qs),
(1026,1362,o),
(1342,1156,o),
(1342,1008,qs),
(1342,840,o),
(1033,664,o),
(778,571,qs),
(448,451,o),
(157,208,o),
(157,22,q),
(1340,22,l),
(1340,0,l),
(133,0,l)
);
}
);
width = 1484;
}
);
unicode = 50;
},
{
color = 6;
glyphname = three;
kernLeft = three;
kernRight = three;
lastChange = "2023-03-03 14:59:49 +0000";
layers = (
{
layerId = "A1A0948C-E637-4A65-8CCC-05505AD98C44";
shapes = (
{
closed = 1;
nodes = (
(24,-6,o),
(24,170,o),
(24,430,q),
(46,430,l),
(46,176,o),
(46,16,o),
(74,16,qs),
(102,16,o),
(102,176,o),
(102,380,qs),
(102,532,o),
(84,656,o),
(50,662,q),
(50,684,l),
(84,690,o),
(102,816,o),
(102,968,qs),
(102,1168,o),
(102,1334,o),
(74,1334,qs),
(46,1334,o),
(46,1168,o),
(46,870,q),
(24,870,l),
(24,1174,o),
(24,1356,o),
(74,1356,qs),
(124,1356,o),
(124,1174,o),
(124,968,qs),
(124,822,o),
(102,680,o),
(72,674,q),
(104,668,o),
(124,526,o),
(124,380,qs),
(124,166,o),
(124,-6,o),
(74,-6,qs)
);
}
);
width = 158;
},
{
layerId = "BA0CA162-2A9B-49EE-921D-3B4346C7D39F";
shapes = (
{
closed = 1;
nodes = (
(12,-16,o),
(12,340,o),
(12,450,q),
(354,450,l),
(354,282,o),
(354,238,o),
(366,238,qs),
(378,238,o),
(378,276,o),
(378,464,qs),
(378,518,o),
(344,552,o),
(302,552,q),
(302,794,l),
(344,794,o),
(378,824,o),
(378,878,qs),
(378,1074,o),
(378,1108,o),
(366,1108,qs),
(354,1108,o),
(354,1064,o),
(354,888,q),
(12,888,l),
(12,998,o),
(12,1362,o),
(364,1362,qs),
(720,1362,o),
(720,1078,o),
(720,968,qs),
(720,898,o),
(720,678,o),
(552,674,q),
(720,670,o),
(720,444,o),
(720,374,qs),
(720,264,o),
(720,-16,o),
(362,-16,qs)
);
}
);
width = 732;
},
{
layerId = "C75D3228-2D13-4E9D-9829-45195F4951D0";
shapes = (
{
closed = 1;
nodes = (
(586,-16,o),
(106,206,o),
(106,480,q),
(664,480,l),
(664,398,o),
(858,334,o),
(1006,334,qs),
(1150,334,o),
(1330,390,o),
(1330,434,qs),
(1330,478,o),
(1158,516,o),
(930,516,q),
(930,830,l),
(1158,830,o),
(1330,876,o),
(1330,920,qs),
(1330,964,o),
(1150,1012,o),
(1006,1012,qs),
(852,1012,o),
(664,948,o),
(664,858,q),
(106,858,l),
(106,1128,o),
(586,1362,o),
(1004,1362,qs),
(1448,1362,o),
(1888,1176,o),
(1888,972,qs),
(1888,814,o),
(1610,692,o),
(1438,684,q),
(1610,676,o),
(1888,570,o),
(1888,414,qs),
(1888,206,o),
(1448,-16,o),
(1004,-16,qs)
);
}
);
width = 2002;
},
{
layerId = "71977205-6510-4B11-BB00-17BACA883C8F";
shapes = (
{
closed = 1;
nodes = (
(468,-18,o),
(164,168,o),
(164,446,q),
(188,446,l),
(188,182,o),
(482,4,o),
(796,4,qs),
(1112,4,o),
(1404,178,o),
(1404,366,qs),
(1404,532,o),
(1118,658,o),
(750,662,q),
(750,684,l),
(1120,694,o),
(1404,838,o),
(1404,996,qs),
(1404,1164,o),
(1104,1340,o),
(796,1340,qs),
(502,1340,o),
(188,1152,o),
(188,872,q),
(164,872,l),
(164,1160,o),
(488,1362,o),
(796,1362,qs),
(1114,1362,o),
(1428,1174,o),
(1428,1000,qs),
(1428,828,o),
(1136,678,o),
(888,674,q),
(1138,674,o),
(1428,544,o),
(1428,372,qs),
(1428,166,o),
(1122,-18,o),
(796,-18,qs)
);
}
);
width = 1612;
}
);
unicode = 51;
},
{
color = 6;
glyphname = four;
kernLeft = four;
kernRight = four;
lastChange = "2023-03-03 14:59:49 +0000";
layers = (
{
layerId = "A1A0948C-E637-4A65-8CCC-05505AD98C44";
shapes = (
{
closed = 1;
nodes = (
(100,338,l),
(24,338,l),
(24,358,l),
(74,1350,l),
(122,1350,l),
(122,360,l),
(142,360,l),
(142,338,l),
(122,338,l),
(122,0,l),
(100,0,l)
);
},
{
closed = 1;
nodes = (
(100,360,l),
(100,1328,l),
(94,1328,l),
(46,360,l)
);
}
);
width = 176;
},
{
layerId = "BA0CA162-2A9B-49EE-921D-3B4346C7D39F";
shapes = (
{
closed = 1;
nodes = (
(380,266,l),
(12,266,l),
(12,509,l),
(122,1350,l),
(722,1350,l),
(722,515,l),
(790,515,l),
(790,266,l),
(722,266,l),
(722,0,l),
(380,0,l)
);
},
{
closed = 1;
nodes = (
(380,515,l),
(380,1106,l),
(374,1106,l),
(342,515,l)
);
}
);
width = 802;
},
{
layerId = "C75D3228-2D13-4E9D-9829-45195F4951D0";
shapes = (
{
closed = 1;
nodes = (
(1008,254,l),
(72,254,l),
(72,600,l),
(832,1350,l),
(1566,1350,l),
(1566,582,l),
(1822,582,l),
(1822,254,l),
(1566,254,l),
(1566,0,l),
(1008,0,l)
);
},
{
closed = 1;
nodes = (
(1008,582,l),
(1008,958,l),
(1006,958,l),
(640,582,l)
);
}
);
width = 1909;
},
{
layerId = "71977205-6510-4B11-BB00-17BACA883C8F";
shapes = (
{
closed = 1;
nodes = (
(1008,440,l),
(76,440,l),
(76,460,l),
(1008,1350,l),
(1030,1350,l),
(1030,462,l),
(1380,462,l),
(1380,440,l),
(1030,440,l),
(1030,0,l),
(1008,0,l)
);
},
{
closed = 1;
nodes = (
(1008,462,l),
(1008,1321,l),
(1007,1321,l),
(110,462,l)
);
}
);
width = 1526;
}
);
unicode = 52;
},
{
color = 6;
glyphname = five;
kernLeft = five;
kernRight = five;
lastChange = "2023-03-03 14:59:49 +0000";
layers = (
{
layerId = "A1A0948C-E637-4A65-8CCC-05505AD98C44";
shapes = (
{
closed = 1;
nodes = (
(24,-8,o),
(24,180,o),
(24,394,q),
(46,394,l),
(46,180,o),
(46,14,o),
(76,14,qs),
(106,14,o),
(106,180,o),
(106,500,qs),
(106,782,o),
(106,924,o),
(84,924,qs),
(56,924,o),
(46,780,o),
(46,652,q),
(24,652,l),
(24,786,o),
(38,946,o),
(86,946,qs),
(128,946,o),
(128,782,o),
(128,500,qs),
(128,178,o),
(128,-8,o),
(76,-8,qs)
);
},
{
closed = 1;
nodes = (
(24,1350,l),
(124,1350,l),
(124,1328,l),
(46,1328,l),
(46,652,l),
(24,652,l)
);
}
);
width = 162;
},
{
layerId = "BA0CA162-2A9B-49EE-921D-3B4346C7D39F";
shapes = (
{
closed = 1;
nodes = (
(12,-14,o),
(12,354,o),
(12,454,q),
(354,454,l),
(354,284,o),
(354,240,o),
(366,240,qs),
(378,240,o),
(378,284,o),
(378,472,qs),
(378,618,o),
(378,662,o),
(366,662,qs),
(354,662,o),
(354,618,o),
(354,582,q),
(194,582,l),
(194,776,o),
(396,922,o),
(520,922,qs),
(720,922,o),
(720,612,o),
(720,472,qs),
(720,332,o),
(720,-14,o),
(354,-14,q)
);
},
{
closed = 1;
nodes = (
(12,1350,l),
(702,1350,l),
(702,1098,l),
(354,1098,l),
(354,582,l),
(12,582,l)
);
}
);
width = 732;
},
{
layerId = "C75D3228-2D13-4E9D-9829-45195F4951D0";
shapes = (
{
closed = 1;
nodes = (
(592,-14,o),
(90,162,o),
(90,410,q),
(650,410,l),
(656,362,o),
(824,328,o),
(960,328,qs),
(1100,328,o),
(1260,394,o),
(1260,470,qs),
(1260,546,o),
(1098,608,o),
(960,608,qs),
(826,608,o),
(660,572,o),
(650,534,q),
(314,552,l),
(358,718,o),
(866,894,o),
(1156,894,qs),
(1442,894,o),
(1838,726,o),
(1838,486,qs),
(1838,192,o),
(1334,-14,o),
(926,-14,qs)
);
},
{
closed = 1;
nodes = (
(90,1350,l),
(1778,1350,l),
(1778,990,l),
(650,990,l),
(650,534,l),
(90,534,l)
);
}
);
width = 1978;
},
{
layerId = "71977205-6510-4B11-BB00-17BACA883C8F";
shapes = (
{
closed = 1;
nodes = (
(428,-14,o),
(122,178,o),
(122,374,q),
(146,374,l),
(146,198,o),
(436,8,o),
(718,8,qs),
(990,8,o),
(1312,212,o),
(1312,456,qs),
(1312,700,o),
(1010,898,o),
(762,898,qs),
(504,898,o),
(146,708,o),
(146,568,q),
(124,568,l),
(124,726,o),
(496,920,o),
(764,920,qs),
(1022,920,o),
(1336,714,o),
(1336,456,qs),
(1336,198,o),
(998,-14,o),
(718,-14,qs)
);
},
{
closed = 1;
nodes = (
(122,1350,l),
(1296,1350,l),
(1296,1328,l),
(144,1328,l),
(144,568,l),
(122,568,l)
);
}
);
width = 1494;
}
);
unicode = 53;
},
{
color = 6;
glyphname = six;
kernLeft = six;
kernRight = six;
lastChange = "2023-03-03 14:59:49 +0000";
layers = (
{
layerId = "A1A0948C-E637-4A65-8CCC-05505AD98C44";
shapes = (
{
closed = 1;
nodes = (
(24,-8,o),
(24,178,o),
(24,606,qs),
(24,1174,o),
(24,1356,o),
(74,1356,qs),
(126,1356,o),
(126,1174,o),
(126,1032,q),
(104,1032,l),
(104,1166,o),
(104,1334,o),
(74,1334,qs),
(46,1334,o),
(46,1166,o),
(46,606,qs),
(46,182,o),
(46,14,o),
(74,14,qs),
(104,14,o),
(104,182,o),
(104,474,qs),
(104,784,o),
(104,924,o),
(80,924,qs),
(56,924,o),
(46,772,o),
(46,672,q),
(24,686,l),
(24,806,o),
(44,946,o),
(82,946,qs),
(126,946,o),
(126,782,o),
(126,474,qs),
(126,178,o),
(126,-8,o),
(74,-8,qs)
);
}
);
width = 160;
},
{
layerId = "BA0CA162-2A9B-49EE-921D-3B4346C7D39F";
shapes = (
{
closed = 1;
nodes = (
(12,-14,o),
(12,368,o),
(12,676,qs),
(12,984,o),
(12,1362,o),
(368,1362,qs),
(718,1362,o),
(718,1034,o),
(718,956,q),
(378,956,l),
(378,1062,o),
(378,1108,o),
(366,1108,qs),
(354,1108,o),
(354,1042,o),
(354,582,qs),
(354,286,o),
(354,240,o),
(366,240,qs),
(378,240,o),
(378,286,o),
(378,442,qs),
(378,618,o),
(378,662,o),
(366,662,q),
(354,662,o),
(354,618,o),
(354,582,q),
(190,636,l),
(190,710,o),
(376,912,o),
(520,912,qs),
(718,912,o),
(718,612,o),
(718,472,qs),
(718,332,o),
(718,-14,o),
(354,-14,q)
);
}
);
width = 730;
},
{
layerId = "C75D3228-2D13-4E9D-9829-45195F4951D0";
shapes = (
{
closed = 1;
nodes = (
(494,-14,o),
(86,318,o),
(86,646,qs),
(86,966,o),
(538,1362,o),
(1012,1362,qs),
(1402,1362,o),
(1818,1124,o),
(1818,938,q),
(1252,938,l),
(1240,980,o),
(1126,1028,o),
(1014,1028,qs),
(860,1028,o),
(650,864,o),
(650,646,qs),
(650,440,o),
(852,326,o),
(994,326,qs),
(1140,326,o),
(1288,396,o),
(1288,466,qs),
(1288,536,o),
(1140,604,o),
(994,604,qs),
(852,604,o),
(670,522,o),
(644,458,q),
(386,592,l),
(406,674,o),
(852,888,o),
(1158,888,qs),
(1480,888,o),
(1866,720,o),
(1866,486,qs),
(1866,232,o),
(1418,-14,o),
(950,-14,qs)
);
}
);
width = 2005;
},
{
layerId = "71977205-6510-4B11-BB00-17BACA883C8F";
shapes = (
{
closed = 1;
nodes = (
(446,-14,o),
(140,290,o),
(140,562,qs),
(140,980,o),
(484,1362,o),
(780,1362,qs),
(1056,1362,o),
(1316,1132,o),
(1316,1010,q),
(1292,1010,l),
(1292,1124,o),
(1046,1340,o),
(780,1340,qs),
(500,1340,o),
(164,972,o),
(164,556,qs),
(164,308,o),
(454,8,o),
(754,8,qs),
(1050,8,o),
(1332,248,o),
(1332,476,qs),
(1332,696,o),
(1048,898,o),
(780,898,qs),
(514,898,o),
(164,698,o),
(164,556,q),
(144,574,l),
(144,718,o),
(510,920,o),
(784,920,qs),
(1058,920,o),
(1356,710,o),
(1356,476,qs),
(1356,236,o),
(1056,-14,o),
(754,-14,qs)
);
}
);
width = 1516;
}
);
unicode = 54;
},
{
color = 6;
glyphname = seven;
kernLeft = seven;
kernRight = seven;
lastChange = "2023-03-03 14:59:49 +0000";
layers = (
{
layerId = "A1A0948C-E637-4A65-8CCC-05505AD98C44";
shapes = (
{
closed = 1;
nodes = (
(49,312,o),
(61,918,o),
(111,1326,q),
(111,1328,l),
(21,1328,l),
(21,1350,l),
(131,1350,l),
(131,1328,l),
(83,926,o),
(73,328,o),
(69,0,q),
(47,0,l)
);
}
);
width = 158;
},
{
layerId = "BA0CA162-2A9B-49EE-921D-3B4346C7D39F";
shapes = (
{
closed = 1;
nodes = (
(116,210,o),
(174,820,o),
(268,1090,q),
(268,1096,l),
(12,1096,l),
(12,1350,l),
(632,1350,l),
(632,1092,l),
(542,824,o),
(488,206,o),
(492,0,q),
(118,0,l)
);
}
);
width = 644;
},
{
layerId = "C75D3228-2D13-4E9D-9829-45195F4951D0";
shapes = (
{
closed = 1;
nodes = (
(374,416,o),
(862,902,o),
(1172,986,q),
(1172,990,l),
(24,990,l),
(24,1350,l),
(1774,1350,l),
(1774,998,l),
(1446,820,o),
(978,396,o),
(978,0,q),
(374,0,l)
);
}
);
width = 1806;
},
{
layerId = "71977205-6510-4B11-BB00-17BACA883C8F";
shapes = (
{
closed = 1;
nodes = (
(618,450,o),
(927,1110,o),
(1287,1328,q),
(1286,1328,l),
(112,1328,l),
(112,1350,l),
(1320,1350,l),
(1320,1326,l),
(950,1102,o),
(642,444,o),
(642,0,q),
(618,0,l)
);
}
);
width = 1408;
}
);
unicode = 55;
},
{
color = 6;
glyphname = eight;
kernLeft = eight;
kernRight = eight;
lastChange = "2023-03-03 14:59:49 +0000";
layers = (
{
layerId = "A1A0948C-E637-4A65-8CCC-05505AD98C44";
shapes = (
{
closed = 1;
nodes = (
(24,-8,o),
(24,178,o),
(24,392,qs),
(24,586,o),
(24,728,o),
(72,728,qs),
(120,728,o),
(120,586,o),
(120,392,qs),
(120,178,o),
(120,-8,o),
(72,-8,qs)
);
},
{
closed = 1;
nodes = (
(98,14,o),
(98,184,o),
(98,392,qs),
(98,580,o),
(98,710,o),
(72,710,qs),
(46,710,o),
(46,580,o),
(46,392,qs),
(46,184,o),
(46,14,o),
(72,14,qs)
);
},
{
closed = 1;
nodes = (
(24,718,o),
(24,860,o),
(24,1048,qs),
(24,1210,o),
(24,1356,o),
(72,1356,qs),
(120,1356,o),
(120,1210,o),
(120,1048,qs),
(120,860,o),
(120,718,o),
(72,718,qs)
);
},
{
closed = 1;
nodes = (
(98,734,o),
(98,866,o),
(98,1048,qs),
(98,1204,o),
(98,1334,o),
(72,1334,qs),
(46,1334,o),
(46,1204,o),
(46,1048,qs),
(46,866,o),
(46,734,o),
(72,734,qs)
);
}
);
width = 154;
},
{
layerId = "BA0CA162-2A9B-49EE-921D-3B4346C7D39F";
shapes = (
{
closed = 1;
nodes = (
(12,-16,o),
(12,338,o),
(12,474,qs),
(12,642,o),
(224,812,o),
(368,812,qs),
(512,812,o),
(720,642,o),
(720,474,qs),
(720,338,o),
(720,-16,o),
(368,-16,qs)
);
},
{
closed = 1;
nodes = (
(378,238,o),
(378,282,o),
(378,410,qs),
(378,554,o),
(378,598,o),
(366,598,qs),
(354,598,o),
(354,554,o),
(354,410,qs),
(354,282,o),
(354,238,o),
(366,238,qs)
);
},
{
closed = 1;
nodes = (
(224,628,o),
(12,772,o),
(12,940,qs),
(12,1024,o),
(12,1362,o),
(366,1362,qs),
(720,1362,o),
(720,1024,o),
(720,940,qs),
(720,772,o),
(512,628,o),
(368,628,qs)
);
},
{
closed = 1;
nodes = (
(378,842,o),
(378,886,o),
(378,994,qs),
(378,1060,o),
(378,1108,o),
(366,1108,qs),
(354,1108,o),
(354,1060,o),
(354,994,qs),
(354,886,o),
(354,842,o),
(366,842,qs)
);
}
);
width = 732;
},
{
layerId = "C75D3228-2D13-4E9D-9829-45195F4951D0";
shapes = (
{
closed = 1;
nodes = (
(576,-16,o),
(118,201,o),
(118,420,qs),
(118,612,o),
(576,816,o),
(980,816,qs),
(1384,816,o),
(1842,610,o),
(1842,420,qs),
(1842,201,o),
(1344,-16,o),
(980,-16,qs)
);
},
{
closed = 1;
nodes = (
(1126,334,o),
(1284,400,o),
(1284,456,qs),
(1284,510,o),
(1120,570,o),
(980,570,qs),
(840,570,o),
(676,510,o),
(676,456,qs),
(676,400,o),
(834,334,o),
(980,334,qs)
);
},
{
closed = 1;
nodes = (
(566,618,o),
(158,792,o),
(158,974,qs),
(158,1188,o),
(608,1362,o),
(982,1362,qs),
(1316,1362,o),
(1802,1187,o),
(1802,974,qs),
(1802,794,o),
(1394,618,o),
(980,618,qs)
);
},
{
closed = 1;
nodes = (
(1120,844,o),
(1274,888,o),
(1274,936,qs),
(1274,980,o),
(1116,1026,o),
(980,1026,qs),
(844,1026,o),
(686,980,o),
(686,936,qs),
(686,888,o),
(840,844,o),
(980,844,qs)
);
}
);
width = 1967;
},
{
layerId = "71977205-6510-4B11-BB00-17BACA883C8F";
shapes = (
{
closed = 1;
nodes = (
(452,-16,o),
(112,196,o),
(112,372,qs),
(112,542,o),
(428,730,o),
(746,730,qs),
(1064,730,o),
(1376,542,o),
(1376,372,qs),
(1376,196,o),
(1040,-16,o),
(746,-16,qs)
);
},
{
closed = 1;
nodes = (
(1032,6,o),
(1354,206,o),
(1354,370,qs),
(1354,531,o),
(1054,712,o),
(746,712,qs),
(437,712,o),
(134,531,o),
(134,370,qs),
(134,206,o),
(460,6,o),
(746,6,qs)
);
},
{
closed = 1;
nodes = (
(446,716,o),
(152,888,o),
(152,1044,qs),
(152,1186,o),
(460,1362,o),
(746,1362,qs),
(1032,1362,o),
(1336,1186,o),
(1336,1044,qs),
(1336,888,o),
(1046,716,o),
(746,716,qs)
);
},
{
closed = 1;
nodes = (
(1040,734,o),
(1314,902,o),
(1314,1044,qs),
(1314,1176,o),
(1020,1340,o),
(746,1340,qs),
(470,1340,o),
(174,1176,o),
(174,1044,qs),
(174,902,o),
(452,734,o),
(746,734,qs)
);
}
);
width = 1508;
}
);
unicode = 56;
},
{
color = 6;
glyphname = nine;
kernLeft = nine;
kernRight = nine;
lastChange = "2023-03-03 14:59:49 +0000";
layers = (
{
layerId = "A1A0948C-E637-4A65-8CCC-05505AD98C44";
shapes = (
{
closed = 1;
nodes = (
(24,-8,o),
(24,174,o),
(24,316,q),
(46,316,l),
(46,182,o),
(46,14,o),
(76,14,qs),
(104,14,o),
(104,182,o),
(104,742,qs),
(104,1166,o),
(104,1334,o),
(76,1334,qs),
(46,1334,o),
(46,1166,o),
(46,874,qs),
(46,564,o),
(46,424,o),
(70,424,qs),
(94,424,o),
(104,576,o),
(104,676,q),
(124,662,l),
(124,542,o),
(106,402,o),
(68,402,qs),
(24,402,o),
(24,566,o),
(24,874,qs),
(24,1170,o),
(24,1356,o),
(76,1356,qs),
(126,1356,o),
(126,1170,o),
(126,742,qs),
(126,174,o),
(126,-8,o),
(76,-8,qs)
);
}
);
width = 160;
},
{
layerId = "BA0CA162-2A9B-49EE-921D-3B4346C7D39F";
shapes = (
{
closed = 1;
nodes = (
(12,-14,o),
(12,314,o),
(12,372,q),
(352,372,l),
(352,286,o),
(352,240,o),
(364,240,qs),
(376,240,o),
(376,306,o),
(376,766,qs),
(376,1082,o),
(376,1108,o),
(364,1108,qs),
(352,1108,o),
(352,1062,o),
(352,906,qs),
(352,730,o),
(352,686,o),
(364,686,q),
(376,686,o),
(376,730,o),
(376,766,q),
(540,712,l),
(540,638,o),
(354,436,o),
(210,436,qs),
(12,436,o),
(12,786,o),
(12,926,qs),
(12,1046,o),
(12,1362,o),
(386,1362,q),
(718,1362,o),
(718,940,o),
(718,672,qs),
(718,404,o),
(718,-14,o),
(362,-14,qs)
);
}
);
width = 730;
},
{
layerId = "C75D3228-2D13-4E9D-9829-45195F4951D0";
shapes = (
{
closed = 1;
nodes = (
(560,-14,o),
(178,260,o),
(178,410,q),
(744,410,l),
(756,368,o),
(870,320,o),
(982,320,qs),
(1146,320,o),
(1346,474,o),
(1346,702,qs),
(1346,888,o),
(1162,1012,o),
(1020,1012,qs),
(874,1012,o),
(692,948,o),
(692,888,qs),
(692,828,o),
(856,764,o),
(1002,764,qs),
(1144,764,o),
(1336,826,o),
(1352,890,q),
(1610,756,l),
(1590,674,o),
(1144,460,o),
(838,460,qs),
(516,460,o),
(126,638,o),
(126,872,qs),
(126,1126,o),
(578,1362,o),
(1046,1362,qs),
(1502,1362,o),
(1910,1030,o),
(1910,702,qs),
(1910,382,o),
(1458,-14,o),
(984,-14,qs)
);
}
);
width = 2017;
},
{
layerId = "71977205-6510-4B11-BB00-17BACA883C8F";
shapes = (
{
closed = 1;
nodes = (
(416,-14,o),
(156,216,o),
(156,358,q),
(180,358,l),
(180,224,o),
(426,8,o),
(712,8,qs),
(972,8,o),
(1308,336,o),
(1308,792,qs),
(1308,1040,o),
(1018,1340,o),
(718,1340,qs),
(422,1340,o),
(140,1100,o),
(140,872,qs),
(140,652,o),
(424,450,o),
(692,450,qs),
(958,450,o),
(1308,650,o),
(1308,792,q),
(1328,774,l),
(1328,630,o),
(962,428,o),
(688,428,qs),
(414,428,o),
(116,638,o),
(116,872,qs),
(116,1112,o),
(416,1362,o),
(718,1362,qs),
(1026,1362,o),
(1332,1058,o),
(1332,786,qs),
(1332,328,o),
(988,-14,o),
(712,-14,qs)
);
}
);
width = 1462;
}
);
unicode = 57;
},
{
color = 3;
glyphname = zero.zero;
lastChange = "2023-03-03 14:59:49 +0000";
layers = (
{
layerId = "A1A0948C-E637-4A65-8CCC-05505AD98C44";
shapes = (
{
closed = 1;
nodes = (
(119,682,l),
(119,660,l),
(32,660,l),
(32,682,l)
);
},
{
ref = zero;
}
);
width = 162;
},
{
layerId = "BA0CA162-2A9B-49EE-921D-3B4346C7D39F";
shapes = (
{
closed = 1;
nodes = (
(628,794,l),
(628,548,l),
(125,548,l),
(125,794,l)
);
},
{
ref = zero;
}
);
width = 744;
},
{
layerId = "71977205-6510-4B11-BB00-17BACA883C8F";
shapes = (
{
closed = 1;
nodes = (
(1309,682,l),
(1309,660,l),
(146,660,l),
(146,682,l)
);
},
{
ref = zero;
}
);
width = 1484;
},
{
layerId = "C75D3228-2D13-4E9D-9829-45195F4951D0";
shapes = (
{
closed = 1;
nodes = (
(1477,813,l),
(1477,529,l),
(408,529,l),
(408,813,l)
);
},
{
ref = zero;
}
);
width = 1941;
}
);
metricLeft = zero;
metricRight = zero;
},
{
color = 6;
glyphname = zero.dnom;
kernLeft = zero.dnom;
kernRight = zero.dnom;
lastChange = "2023-03-03 14:59:49 +0000";
layers = (
{
layerId = "A1A0948C-E637-4A65-8CCC-05505AD98C44";
shapes = (
{
closed = 1;
nodes = (
(37,-3,o),
(17,31,o),
(17,75,qs),
(17,532,ls),
(17,577,o),
(37,611,o),
(59,611,qs),
(82,611,o),
(101,576,o),
(101,532,qs),
(101,75,ls),
(101,32,o),
(82,-3,o),
(59,-3,qs)
);
},
{
closed = 1;
nodes = (
(70,18,o),
(80,43,o),
(80,78,qs),
(80,530,ls),
(80,564,o),
(70,589,o),
(59,589,qs),
(48,589,o),
(39,563,o),
(39,530,qs),
(39,78,ls),
(39,44,o),
(48,18,o),
(59,18,qs)
);
}
);
userData = {
RMXScaler = {
height = 45;
weight = -15;
width = 70;
};
};
width = 124;
},
{
layerId = "BA0CA162-2A9B-49EE-921D-3B4346C7D39F";
shapes = (
{
closed = 1;
nodes = (
(101,-8,o),
(11,57,o),
(11,126,qs),
(11,479,ls),
(11,548,o),
(100,613,o),
(195,613,qs),
(289,613,o),
(378,548,o),
(378,479,qs),
(378,126,ls),
(378,57,o),
(288,-8,o),
(195,-8,qs)
);
},
{
closed = 1;
nodes = (
(202,120,o),
(207,128,o),
(207,145,qs),
(207,460,ls),
(207,478,o),
(202,486,o),
(195,486,qs),
(187,486,o),
(182,477,o),
(182,460,qs),
(182,145,ls),
(182,128,o),
(187,120,o),
(195,120,qs)
);
}
);
userData = {
RMXScaler = {
height = 45;
weight = -450;
width = 70;
};
};
width = 389;
},
{
layerId = "71977205-6510-4B11-BB00-17BACA883C8F";
shapes = (
{
closed = 1;
nodes = (
(304,-8,o),
(95,102,o),
(95,204,qs),
(95,402,ls),
(95,504,o),
(302,613,o),
(518,613,qs),
(735,613,o),
(942,503,o),
(942,402,qs),
(942,204,ls),
(942,101,o),
(735,-8,o),
(520,-8,qs)
);
},
{
closed = 1;
nodes = (
(725,22,o),
(911,118,o),
(911,205,qs),
(911,399,ls),
(911,487,o),
(725,583,o),
(518,583,qs),
(311,583,o),
(126,487,o),
(126,399,qs),
(126,205,ls),
(126,118,o),
(315,22,o),
(520,22,qs)
);
}
);
userData = {
RMXScaler = {
height = 45;
weight = -7;
width = 70;
};
};
width = 1052;
},
{
layerId = "C75D3228-2D13-4E9D-9829-45195F4951D0";
shapes = (
{
closed = 1;
nodes = (
(336,-7,o),
(78,111,o),
(78,240,qs),
(78,366,ls),
(78,495,o),
(337,613,o),
(602,613,qs),
(866,613,o),
(1125,495,o),
(1125,366,qs),
(1125,240,ls),
(1125,111,o),
(868,-7,o),
(602,-7,qs)
);
},
{
closed = 1;
nodes = (
(750,154,o),
(888,198,o),
(888,240,qs),
(888,367,ls),
(888,408,o),
(753,452,o),
(602,452,qs),
(448,452,o),
(314,409,o),
(314,367,qs),
(314,240,ls),
(314,198,o),
(448,154,o),
(602,154,qs)
);
}
);
userData = {
RMXScaler = {
height = 45;
weight = -500;
width = 70;
};
};
width = 1228;
}
);
userData = {
RMXScaler = {
source = zero;
};
};
},
{
color = 6;
glyphname = one.dnom;
kernLeft = one.dnom;
kernRight = one.dnom;
lastChange = "2023-03-03 14:59:49 +0000";
layers = (
{
layerId = "A1A0948C-E637-4A65-8CCC-05505AD98C44";
shapes = (
{
closed = 1;
nodes = (
(22,22,l),
(44,22,l),
(44,585,l),
(17,566,l),
(17,589,l),
(44,608,l),
(66,608,l),
(66,22,l),
(89,22,l),
(89,0,l),
(22,0,l)
);
}
);
userData = {
RMXScaler = {
height = 45;
weight = -15;
width = 70;
};
};
width = 112;
},
{
layerId = "BA0CA162-2A9B-49EE-921D-3B4346C7D39F";
shapes = (
{
closed = 1;
nodes = (
(24,127,l),
(93,127,l),
(93,466,l),
(11,430,l),
(11,561,l),
(111,608,l),
(261,608,l),
(261,127,l),
(330,127,l),
(330,0,l),
(24,0,l)
);
}
);
userData = {
RMXScaler = {
height = 45;
weight = -450;
width = 70;
};
};
width = 343;
},
{
layerId = "71977205-6510-4B11-BB00-17BACA883C8F";
shapes = (
{
closed = 1;
nodes = (
(104,30,l),
(469,30,l),
(469,576,l),
(98,544,l),
(98,573,l),
(479,608,l),
(500,608,l),
(500,30,l),
(869,30,l),
(869,0,l),
(104,0,l)
);
}
);
userData = {
RMXScaler = {
height = 45;
weight = -7;
width = 70;
};
};
width = 980;
},
{
layerId = "C75D3228-2D13-4E9D-9829-45195F4951D0";
shapes = (
{
closed = 1;
nodes = (
(80,161,l),
(471,161,l),
(471,411,l),
(82,355,l),
(82,530,l),
(520,608,l),
(708,608,l),
(708,161,l),
(1089,161,l),
(1089,0,l),
(80,0,l)
);
}
);
userData = {
RMXScaler = {
height = 45;
weight = -500;
width = 70;
};
};
width = 1172;
}
);
userData = {
RMXScaler = {
source = one;
};
};
},
